<svg width="60" height="60" viewBox="0 0 60 60" fill="none" xmlns="http://www.w3.org/2000/svg">
<path d="M5.06549 2.20796C3.88309 2.63494 2.8868 3.53269 2.3175 4.68225L2 5.33915V25.3196V45.3L2.33939 46.0226C2.94154 47.2926 3.89404 48.1247 5.20782 48.5298C5.88661 48.7378 6.26979 48.7487 18.8712 48.7487H31.8338V50.6209C31.8338 52.712 31.9433 53.336 32.5236 54.5403C33.0053 55.5366 34.3519 56.8832 35.3701 57.3759C36.8152 58.0656 36.6072 58.0547 44.9169 58.0547C53.2375 58.0547 53.0624 58.0656 54.4966 57.3649C55.46 56.8942 56.8285 55.5256 57.3103 54.5513C58.0109 53.1389 58 53.3251 58 44.6869V36.848L57.7482 36.4867C57.3212 35.8517 56.9818 35.6766 56.0731 35.6328L55.2629 35.589V32.9833C55.2629 30.0054 55.1644 29.0639 54.7046 27.6735C54.3104 26.502 53.8397 25.6261 53.0295 24.5751L52.4164 23.7868L52.3945 14.6232L52.3617 5.44863L52.0223 4.72604C51.442 3.5108 50.5662 2.70063 49.3181 2.22986L48.6831 1.99995H27.148C6.64203 2.01089 5.59101 2.02184 5.06549 2.20796ZM48.7378 4.12389C49.2962 4.35381 49.9093 4.95596 50.183 5.55811C50.4238 6.05078 50.4457 6.25879 50.4457 7.76964V9.44471H27.1808H3.91593V7.74775C3.91593 5.82087 3.99257 5.50337 4.66041 4.80268C4.87937 4.57277 5.26256 4.28812 5.50342 4.17863C5.9304 3.98157 6.70772 3.97062 27.1589 3.97062C44.9169 3.97062 48.4313 3.99252 48.7378 4.12389ZM50.4457 16.78C50.4457 19.7251 50.4238 22.1446 50.4019 22.1446C50.3801 22.1446 49.964 21.9475 49.4714 21.6957C47.0846 20.5024 44.1396 20.3272 41.5449 21.2031C38.6545 22.1884 36.2569 24.5423 35.2278 27.3778C34.7132 28.7902 34.5709 30.0273 34.5709 32.9943V35.589L33.7607 35.6328C32.852 35.6766 32.5126 35.8517 32.0856 36.4867L31.8338 36.848V41.8185V46.778L18.8383 46.7561L5.83187 46.7233L5.39394 46.4824C4.82463 46.1759 4.41955 45.738 4.14585 45.1358C3.92688 44.6431 3.91593 44.5118 3.91593 28.0238V11.4154H27.1808H50.4457V16.78ZM46.0884 22.703C47.9496 22.9876 49.4823 23.7868 50.8289 25.1444C51.7924 26.1298 52.3069 26.9071 52.712 28.0347C53.1828 29.2938 53.2813 30.2025 53.2923 33.0052V35.6109H44.9169H36.5415V33.1585C36.5415 31.8009 36.5963 30.3229 36.662 29.8521C37.1546 26.283 39.9355 23.3927 43.4936 22.7468C44.479 22.5606 45.1249 22.5497 46.0884 22.703ZM56.0293 38.4574V39.3333H54.5075C53.0514 39.3333 52.9638 39.3442 52.6682 39.596C52.2741 39.9354 52.2412 40.6361 52.6135 40.9974C52.8434 41.2273 52.9748 41.2492 54.4418 41.2821L56.0293 41.3149V42.1908V43.0557H54.5075C53.0514 43.0557 52.9638 43.0666 52.6682 43.3184C52.4274 43.5264 52.3617 43.6688 52.3617 44.041C52.3617 44.4132 52.4274 44.5556 52.6682 44.7636C52.9638 45.0154 53.0514 45.0263 54.5075 45.0263H56.0293V45.8912V46.7671L54.4418 46.7999C52.9748 46.8328 52.8434 46.8547 52.6135 47.0846C52.2412 47.4459 52.2741 48.1466 52.6682 48.486C52.9638 48.7378 53.0514 48.7487 54.5075 48.7487H56.0293V49.6246V50.5004H54.617C53.8397 50.5004 53.0733 50.5442 52.92 50.6099C52.5587 50.7413 52.2631 51.3106 52.3617 51.6938C52.4055 51.8471 52.5368 52.0879 52.6573 52.2193C52.8762 52.4602 52.9748 52.4711 54.409 52.4711C55.3067 52.4711 55.9198 52.5149 55.9198 52.5806C55.9198 52.9747 55.3943 53.982 54.9017 54.5075C54.2448 55.23 53.7083 55.5913 52.8762 55.876C52.3069 56.0731 51.8581 56.084 44.9169 56.084C37.921 56.084 37.5269 56.0731 36.9466 55.876C35.5343 55.3833 34.2972 54.0914 33.9578 52.7558L33.8921 52.4711H35.4248H36.9576L37.2532 52.1208C37.494 51.8361 37.5378 51.6938 37.4831 51.3872C37.3627 50.6428 37.1765 50.5552 35.392 50.5223L33.8045 50.4895V49.6136V48.7487H35.3482H36.8919L37.2203 48.4203C37.505 48.1247 37.5488 48.0261 37.494 47.6758C37.4502 47.4349 37.3079 47.1722 37.1437 47.0189C36.8809 46.789 36.7605 46.778 35.3263 46.778H33.8045V45.9022V45.0263H35.3263C36.7824 45.0263 36.87 45.0154 37.1656 44.7636C37.4064 44.5556 37.4721 44.4132 37.4721 44.041C37.4721 43.6688 37.4064 43.5264 37.1656 43.3184C36.87 43.0666 36.7824 43.0557 35.3263 43.0557H33.8045V42.1798V41.3039H35.3263C36.7605 41.3039 36.8809 41.293 37.1437 41.0521C37.3079 40.9098 37.4502 40.6471 37.494 40.4062C37.5488 40.0559 37.505 39.9573 37.2203 39.6617L36.8919 39.3333H35.3482H33.8045V38.4574V37.5816H44.9169H56.0293V38.4574Z" fill="#D2A226"/>
<path d="M7.00329 5.79896C6.74053 5.89749 6.52157 6.49964 6.5982 6.89378C6.69674 7.41929 7.17846 7.69299 7.99957 7.69299C8.76595 7.69299 9.20387 7.48498 9.38999 7.04705C9.55421 6.64197 9.46663 6.23688 9.14913 5.94128C8.95206 5.75516 8.76595 5.72232 8.03242 5.73327C7.53975 5.73327 7.07992 5.76611 7.00329 5.79896Z" fill="#D2A226"/>
<path d="M11.525 5.99596C11.1637 6.3463 11.1637 6.9156 11.514 7.33163C11.7658 7.61629 11.8315 7.63818 12.6526 7.63818C13.43 7.63818 13.5613 7.60534 13.8131 7.37543C14.0321 7.16741 14.0978 7.00319 14.0978 6.6419C14.0978 5.93027 13.7694 5.72225 12.6526 5.72225C11.8863 5.72225 11.7549 5.7551 11.525 5.99596Z" fill="#D2A226"/>
<path d="M16.1998 5.97406C15.8823 6.31345 15.8714 7.05793 16.1779 7.36448C16.4626 7.64913 16.8239 7.72577 17.6231 7.67103C18.1815 7.62724 18.3347 7.5725 18.5537 7.32069C18.8931 6.9156 18.8931 6.3463 18.5318 5.99596C18.2909 5.74415 18.1815 5.72225 17.3494 5.72225C16.5392 5.72225 16.4079 5.7551 16.1998 5.97406Z" fill="#D2A226"/>
<path d="M21.0171 5.79895C20.9404 5.83179 20.8091 5.99601 20.7105 6.18213C20.4587 6.6748 20.5901 7.21126 21.028 7.47402C21.3674 7.68203 21.6849 7.69298 34.1658 7.69298C48.3 7.69298 47.457 7.73678 47.6978 7.00325C47.8401 6.58722 47.7745 6.32446 47.457 5.96317L47.238 5.72231L34.1987 5.73326C27.0276 5.73326 21.0937 5.7661 21.0171 5.79895Z" fill="#D2A226"/>
<path d="M8.51427 15.2692C8.18582 15.4334 7.93402 15.6743 7.78074 15.9589C7.52893 16.3969 7.52893 16.4078 7.55083 20.798C7.58367 25.0459 7.59462 25.1992 7.81359 25.4948C7.93402 25.659 8.17488 25.8999 8.3391 26.0203C8.6347 26.2393 8.76608 26.2502 13.1454 26.2502H17.656L18.0173 25.9984C18.6961 25.5058 18.8056 25.1116 18.8056 23.0753V21.2469L18.4881 20.9294C18.2691 20.7105 18.0611 20.6119 17.8202 20.6119C17.5794 20.6119 17.3714 20.7105 17.1524 20.9294L16.8349 21.2469V22.7906V24.3343H13.1673H9.49961V20.6667V16.999H11.525C13.5395 16.999 13.5614 16.999 13.8241 16.7253C14.2073 16.3531 14.2073 15.6743 13.8241 15.3021C13.5614 15.0283 13.5504 15.0283 11.2842 15.0283C9.12737 15.0283 8.97409 15.0393 8.51427 15.2692Z" fill="#D2A226"/>
<path d="M17.3493 15.1487C17.2508 15.2144 16.2874 16.3092 15.2254 17.5792C14.1634 18.8601 13.2547 19.944 13.2109 19.9987C13.1562 20.0644 12.8496 19.8455 12.4774 19.4842C11.7439 18.7944 11.4045 18.6631 10.9118 18.8711C10.5177 19.0244 10.2221 19.5937 10.3315 19.9987C10.3644 20.1411 10.9227 20.7761 11.5687 21.422C12.6307 22.4621 12.7949 22.5825 13.1452 22.5825C13.4299 22.5825 13.6379 22.4949 13.8678 22.276C14.2838 21.8818 18.5208 16.78 18.685 16.4844C18.9149 16.0465 18.8273 15.6195 18.4661 15.3129C18.1157 15.0173 17.6887 14.9516 17.3493 15.1487Z" fill="#D2A226"/>
<path d="M21.7725 16.2983C21.4659 16.6924 21.4769 17.2398 21.8053 17.623L22.0681 17.9295L25.889 17.9624C27.9801 17.9843 29.8632 17.9624 30.0712 17.9295C30.9033 17.7763 31.2536 16.8457 30.6843 16.2873L30.4215 16.0136H26.2065H21.9914L21.7725 16.2983Z" fill="#D2A226"/>
<path d="M22.0351 20.7432C21.4658 21.0717 21.3564 21.8599 21.8162 22.3088L22.0789 22.5825H28.5274C34.8226 22.5825 34.9869 22.5825 35.2606 22.3636C35.808 21.9256 35.6875 20.9622 35.0525 20.7213C34.6365 20.5571 22.3089 20.579 22.0351 20.7432Z" fill="#D2A226"/>
<path d="M8.51416 31.155C8.20761 31.3192 7.9339 31.5711 7.76968 31.8448C7.52882 32.2717 7.52882 32.2827 7.55072 36.6729C7.58356 40.9427 7.59451 41.0741 7.81347 41.3806C7.9339 41.5449 8.20761 41.7967 8.40468 41.939L8.77692 42.1908L13.2328 42.158C17.5683 42.1251 17.6997 42.1142 18.0062 41.8952C18.1705 41.7748 18.4223 41.4792 18.5536 41.2383C18.7836 40.8442 18.8055 40.669 18.8055 38.983C18.8055 37.2094 18.7945 37.1437 18.5427 36.8481C18.1705 36.4211 17.4698 36.4211 17.0975 36.8481C16.8457 37.1437 16.8348 37.2313 16.8348 38.6874V40.2092H13.1671H9.4995V36.5415V32.8739H11.5249C13.5394 32.8739 13.5613 32.8739 13.824 32.6002C14.1634 32.2717 14.1963 31.5929 13.8897 31.2207C13.6817 30.958 13.6489 30.958 11.3388 30.9251C9.06157 30.8923 8.99588 30.9032 8.51416 31.155Z" fill="#D2A226"/>
<path d="M17.3493 31.0237C17.2508 31.0894 16.2873 32.1842 15.2254 33.4542C14.1634 34.7351 13.2547 35.819 13.2109 35.8737C13.1561 35.9394 12.8496 35.7205 12.4774 35.3592C11.7438 34.6694 11.4044 34.5381 10.9118 34.7461C10.5176 34.8994 10.2111 35.4906 10.3315 35.8628C10.3644 35.9942 10.9227 36.6292 11.5577 37.2751C12.5759 38.3042 12.773 38.4575 13.0905 38.4575C13.2875 38.4575 13.5503 38.4137 13.6598 38.348C13.8787 38.2276 18.477 32.7535 18.674 32.3594C19.1229 31.5273 18.1485 30.5529 17.3493 31.0237Z" fill="#D2A226"/>
<path d="M21.8162 32.1622C21.433 32.5345 21.444 33.1804 21.8272 33.5417L22.1118 33.8044H26.2721H30.4324L30.6952 33.4979C31.0455 33.0819 31.0455 32.5126 30.6842 32.1622L30.4215 31.8885H26.2502H22.079L21.8162 32.1622Z" fill="#D2A226"/>
<path d="M21.882 36.7715C21.4331 37.1437 21.4003 37.7787 21.8163 38.1838L22.079 38.4575H25.7357C29.272 38.4575 29.4034 38.4466 29.688 38.2276C29.907 38.0524 29.9727 37.9101 29.9727 37.5817C29.9727 36.4978 29.9398 36.4868 25.7138 36.4868H22.2214L21.882 36.7715Z" fill="#D2A226"/>
<path d="M44.3476 42.1907C42.1251 42.6177 41.304 45.4314 42.9462 47.0189C43.1761 47.2378 43.5046 47.4787 43.6798 47.5553L43.9863 47.6757V48.9129C43.9863 50.1281 43.9973 50.161 44.271 50.3799C44.6651 50.6865 45.2125 50.6755 45.5957 50.3471C45.8913 50.0953 45.9022 50.0406 45.9351 48.88L45.9789 47.6757L46.4715 47.3582C48.2561 46.2306 48.1576 43.4059 46.2854 42.4972C45.5957 42.1579 45.0045 42.0593 44.3476 42.1907ZM45.4096 44.2599C45.957 44.5555 45.8256 45.5518 45.2235 45.7708C44.8403 45.9021 44.2819 45.7051 44.1615 45.4095C43.8549 44.5884 44.6432 43.8439 45.4096 44.2599Z" fill="#D2A226"/>
</svg>
