<svg width="61" height="60" viewBox="0 0 61 60" fill="none" xmlns="http://www.w3.org/2000/svg">
<path d="M29.0397 5.04148C27.2851 5.19187 25.5556 5.86864 23.9765 7.05925C21.6454 8.81383 20.0161 11.9721 20.0161 14.7418V15.7695L19.0511 16.3961C16.0934 18.276 13.5116 21.1836 11.9325 24.392C10.7795 26.7607 9.98993 29.9315 9.98993 32.2375C9.98993 33.566 10.1654 33.8542 10.9925 33.8542C11.8824 33.8542 12.0077 33.5911 12.1832 31.3477C12.5341 26.7106 15.3539 21.7476 19.3018 18.7899C20.2542 18.0881 20.5174 18.0003 20.5174 18.3763C20.5174 18.4766 20.7806 19.0656 21.1065 19.7048C22.1342 21.71 24.1269 23.5398 26.1948 24.367C28.3504 25.2317 30.882 25.3069 33.1003 24.5675C36.1834 23.5523 38.4894 21.309 39.492 18.3512C40.6951 14.8045 39.9056 10.9569 37.3865 8.21226C35.2559 5.86864 32.3483 4.76575 29.0397 5.04148ZM31.7718 7.43523C32.7118 7.61069 34.4914 8.53811 35.3311 9.29007C36.2335 10.0922 37.1233 11.4332 37.5369 12.5862C37.7875 13.288 37.8753 13.8019 37.9129 14.8797C37.963 16.4087 37.8001 17.2985 37.2236 18.5894L36.8977 19.3288L36.6721 18.6771C36.5468 18.3262 36.2711 17.7622 36.058 17.4238C35.5943 16.7095 34.1907 15.3685 33.6141 15.0927L33.2006 14.8922L33.5515 14.3408C34.4914 12.8619 34.3285 10.8065 33.163 9.4906C31.6089 7.72348 28.9645 7.57309 27.235 9.16475C25.8313 10.4556 25.518 12.7366 26.5206 14.3282L26.8715 14.8797L26.3326 15.1805C25.1545 15.7946 23.2746 18.2385 23.2746 19.1408C23.2746 19.5669 22.7984 18.6896 22.4349 17.6243C22.1592 16.7847 22.1091 16.3961 22.1091 15.2431C22.1091 14.0776 22.1592 13.7016 22.4475 12.8368C22.8485 11.6086 23.801 10.1298 24.6658 9.3778C26.8089 7.53549 29.0648 6.90885 31.7718 7.43523ZM31.0199 10.5433C32.6491 11.5334 31.9473 14.0525 30.0423 14.0525C28.977 14.0525 28.1624 13.2379 28.1624 12.1726C28.1624 11.4958 28.5008 10.8943 29.0648 10.5433C29.3154 10.393 29.7039 10.2927 30.0423 10.2927C30.3807 10.2927 30.7692 10.393 31.0199 10.5433ZM32.1854 16.7721C33.6768 17.5116 34.7296 18.9904 34.9176 20.5946L35.0053 21.334L34.504 21.685C33.0752 22.6625 31.7593 23.0761 30.0423 23.0761C28.3253 23.0761 27.0094 22.6625 25.5807 21.685L25.0793 21.334L25.1671 20.5946C25.2673 19.6547 25.7311 18.627 26.3452 17.9502C26.9593 17.2734 27.4104 16.9601 28.2752 16.5967C28.8768 16.346 29.1525 16.3084 30.1676 16.3335C31.2204 16.3711 31.4585 16.4212 32.1854 16.7721Z" fill="#D2A226"/>
<path d="M41.7604 18.1257C41.1463 18.7272 41.2841 19.0405 42.8633 20.6823C45.445 23.3643 46.8863 26.0589 47.6633 29.6056C47.8513 30.4203 47.9014 31.1848 47.9014 33.002C47.9014 34.2804 47.8638 35.3707 47.8137 35.4208C47.7761 35.471 47.4001 35.4334 46.9991 35.3456C45.8962 35.095 43.703 35.1577 42.5374 35.471C39.7301 36.2104 37.1734 38.366 35.9201 41.0355C34.9927 43.0282 34.742 45.7478 35.281 47.8032C36.0454 50.6231 38.1885 53.1672 40.858 54.4205C42.2241 55.0471 43.4648 55.3103 45.1442 55.3103C46.9991 55.3103 48.1145 55.0471 49.7563 54.1949C50.6962 53.7061 51.1223 53.3928 52.0999 52.4027C54.3808 50.1217 55.1955 48.0413 55.0702 44.8204C54.995 42.6397 54.5438 41.236 53.3532 39.494C52.7767 38.6418 51.3855 37.3133 50.4957 36.7493C49.9944 36.436 49.8565 36.2731 49.9192 36.1227C49.9693 36.0099 50.032 34.8819 50.0696 33.6036C50.1072 31.636 50.0821 31.0469 49.8565 29.731C49.1672 25.6704 47.2873 22.0359 44.3672 19.1032C43.1515 17.8875 43.0513 17.8123 42.575 17.8123C42.199 17.8123 41.986 17.9001 41.7604 18.1257ZM47.4252 37.6767C49.7939 38.4162 51.6487 40.2459 52.5761 42.7274C52.9897 43.8679 53.09 45.7353 52.8017 47.0262C52.6012 47.916 51.8618 49.5452 51.8492 49.1442C51.8492 49.0314 51.6612 48.5552 51.4357 48.0789C50.9343 47.0387 49.9192 45.8857 48.9542 45.259L48.2523 44.8079L48.5531 44.3818C49.0168 43.6925 49.255 42.7024 49.1798 41.8C49.0419 40.3086 48.2273 39.1305 46.8737 38.4663C46.1468 38.1154 45.9087 38.0527 45.0816 38.0527C44.2544 38.0527 44.0163 38.1154 43.2894 38.4663C42.387 38.9175 41.7478 39.5566 41.3343 40.4465C40.7828 41.5995 40.8831 43.2037 41.5473 44.269L41.8982 44.8204L41.2089 45.2716C39.9682 46.0737 38.8904 47.4397 38.3765 48.8935L38.2136 49.3322L37.8376 48.505C37.2987 47.3395 37.0105 45.823 37.1107 44.6825C37.587 39.4815 42.5374 36.1227 47.4252 37.6767ZM46.0591 40.6219C47.6884 41.612 46.9865 44.1311 45.0816 44.1311C43.1766 44.1311 42.4747 41.612 44.104 40.6219C44.6429 40.2961 45.5202 40.2961 46.0591 40.6219ZM47.2247 46.8507C48.7161 47.5901 49.7688 49.069 49.9568 50.6732L50.0445 51.4126L49.5432 51.7635C48.1145 52.7411 46.7985 53.1547 45.0816 53.1547C43.3646 53.1547 42.0486 52.7411 40.6199 51.7635L40.1186 51.4126L40.2063 50.6732C40.3066 49.7332 40.7703 48.7055 41.3844 48.0288C41.9985 47.352 42.4497 47.0387 43.3144 46.6752C43.916 46.4246 44.1917 46.387 45.2069 46.4121C46.2596 46.4497 46.4978 46.4998 47.2247 46.8507Z" fill="#D2A226"/>
<path d="M12.9978 35.4208C7.8343 36.5237 4.43792 41.236 5.07709 46.4245C5.59093 50.5603 8.19774 53.6559 12.1832 54.8591C13.1356 55.1473 13.5492 55.1974 14.8777 55.1974C16.6072 55.21 17.66 55.0095 18.9383 54.4455C20.0287 53.9692 21.2318 53.1671 21.9712 52.4402L22.5979 51.8136L23.8511 52.2272C26.9091 53.2423 29.6162 53.4679 33.0376 53.0042C34.3536 52.8288 34.8048 52.5154 34.8048 51.7635C34.8048 51.2371 34.4664 50.7734 34.0904 50.7734C33.9651 50.7734 33.3886 50.8611 32.7995 50.9739C31.4585 51.212 28.6637 51.212 27.3478 50.9864C26.0569 50.7483 24.3524 50.2971 24.0893 50.0966C23.9138 49.9713 23.9138 49.8836 24.2021 49.2695C24.7911 47.9786 24.9666 47.0762 24.9666 45.259C24.9666 43.3415 24.7911 42.5143 24.0767 41.0104C22.7984 38.2908 20.4548 36.3106 17.5722 35.5336C16.5446 35.2579 14.038 35.1952 12.9978 35.4208ZM16.7325 37.5137C17.6725 37.6892 19.4521 38.6166 20.2918 39.3686C21.1942 40.1707 22.084 41.5117 22.4976 42.6647C22.7483 43.3665 22.836 43.8804 22.8736 44.9582C22.9237 46.4872 22.7608 47.377 22.1843 48.6679L21.8584 49.4073L21.6328 48.7556C21.5075 48.4047 21.2318 47.8407 21.0187 47.5023C20.555 46.788 19.1514 45.447 18.5749 45.1713L18.1613 44.9707L18.5122 44.4193C19.5399 42.8026 19.2266 40.5592 17.8104 39.2433C16.9205 38.4286 16.2688 38.178 15.003 38.178C13.7372 38.1905 13.0604 38.4412 12.1957 39.2433C10.792 40.5467 10.4787 42.8151 11.4939 44.4193L11.8448 44.9833L11.4563 45.1462C10.9299 45.3718 9.46355 46.7629 8.98731 47.5149C8.77425 47.8407 8.49853 48.4047 8.3732 48.7556L8.14761 49.4073L7.82176 48.6679C7.23272 47.352 7.0698 46.4872 7.13246 44.883C7.18259 43.73 7.25779 43.2788 7.52098 42.602C8.16015 40.9477 9.2129 39.6192 10.6166 38.6793C12.4714 37.4386 14.439 37.0751 16.7325 37.5137ZM15.9806 40.6219C17.6098 41.612 16.908 44.131 15.003 44.131C13.098 44.131 12.3962 41.612 14.0255 40.6219C14.5644 40.296 15.4417 40.296 15.9806 40.6219ZM17.1461 46.8506C18.6375 47.5901 19.6903 49.0689 19.8783 50.6731L19.966 51.4126L19.4647 51.7635C18.0359 52.741 16.72 53.1546 15.003 53.1546C13.286 53.1546 11.9701 52.741 10.5414 51.7635L10.0401 51.4126L10.1278 50.6731C10.228 49.7332 10.6918 48.7055 11.3059 48.0287C11.92 47.352 12.3711 47.0386 13.2359 46.6752C13.8375 46.4245 14.1132 46.3869 15.1284 46.412C16.1811 46.4496 16.4192 46.4997 17.1461 46.8506Z" fill="#D2A226"/>
</svg>
