<svg width="60" height="60" viewBox="0 0 60 60" fill="none" xmlns="http://www.w3.org/2000/svg">
<mask id="path-1-inside-1_402_2921" fill="white">
<path d="M26.0391 3.64453C25.7695 3.78516 25.3711 4.10156 25.1602 4.34766L24.7734 4.79297L24.1992 4.51172C22.7812 3.78516 21.0937 4.47656 20.4375 6.03516C20.2969 6.375 20.2734 7.48828 20.2734 12.6797C20.2734 19.793 20.2031 19.1484 21.3867 22.7344C22.4531 25.9922 22.6523 27.4688 22.0898 27.9141C21.5742 28.3125 21.4453 28.7227 21.4453 29.9414C21.4453 31.2656 21.6094 31.7695 22.1719 32.1094C22.5469 32.332 22.7461 32.3438 29.4609 32.3438C36.1758 32.3438 36.375 32.332 36.7383 32.1094C37.3242 31.7461 37.5 31.2539 37.5 30.0117C37.5 28.8164 37.3477 28.2891 36.8672 27.9258C36.5977 27.7031 36.5625 27.5977 36.5625 26.8945C36.5625 25.9688 36.6094 25.8633 37.6406 24.668C39.1406 22.9336 39.75 21.2227 39.7617 18.75C39.7617 17.1211 39.5859 15.9727 39.1055 14.6484L38.7422 13.6523L38.6836 9.96094C38.6016 5.78906 38.6016 5.78906 37.7109 4.95703C36.7969 4.125 35.7422 3.99609 34.6172 4.57031L33.9258 4.92188L33.7148 4.62891C32.9297 3.57422 30.9961 3.33984 30 4.18359L29.6367 4.48828L29.2617 4.125C29.0508 3.92578 28.6875 3.67969 28.4531 3.58594C27.8086 3.31641 26.6484 3.33984 26.0391 3.64453ZM28.2539 5.10938C28.4414 5.29688 28.6523 5.625 28.7227 5.85938C28.8047 6.11719 28.8281 7.85156 28.8047 10.6875C28.7695 14.9297 28.7578 15.1172 28.5234 15.4336C28.3945 15.6094 28.0898 15.8555 27.8555 15.9727C27.4688 16.1719 27.3633 16.1719 26.9297 16.0312C26.6016 15.9258 26.3438 15.75 26.168 15.4805C25.8984 15.082 25.8984 15.082 25.8984 10.3828C25.8984 5.19141 25.875 5.39062 26.6484 4.91016C27.1406 4.59375 27.8086 4.67578 28.2539 5.10938ZM32.4023 5.29688C32.8125 5.61328 33.0469 6.17578 33.0469 6.84375V7.37109L32.6367 7.19531C32.1094 6.98438 31.1602 6.98438 30.6211 7.20703C30.3984 7.30078 30.1875 7.38281 30.1641 7.38281C30.0352 7.38281 30.1406 6.38672 30.3164 5.96484C30.6563 5.09766 31.7227 4.75781 32.4023 5.29688ZM23.9414 5.94141C24.457 6.39844 24.4922 6.71484 24.4922 10.4414C24.4922 14.3555 24.457 14.5781 23.7422 15.0117C23.0039 15.457 22.207 15.1992 21.8086 14.3789C21.5742 13.8984 21.5625 13.6875 21.5625 10.3828C21.5625 7.17188 21.5742 6.86719 21.7852 6.45703C22.2539 5.54297 23.2266 5.30859 23.9414 5.94141ZM36.6797 5.85938C37.2773 6.28125 37.3828 6.79688 37.3828 9.29297V11.543L35.918 10.0781L34.4531 8.61328V7.69922C34.4531 6.69141 34.6055 6.26953 35.1094 5.87109C35.5195 5.55469 36.2344 5.54297 36.6797 5.85938ZM32.1797 8.48438C32.3086 8.53125 33.4453 9.59766 34.6992 10.875C36.7148 12.9258 37.0312 13.2891 37.418 14.0859C38.5898 16.5 38.7539 19.8984 37.8047 21.9961C37.4766 22.6992 37.043 23.2969 36.1875 24.2227C35.4375 25.043 35.2734 25.4531 35.2734 26.6016V27.5391H29.4727H23.6719V26.7422C23.6719 25.5352 23.4961 24.7852 22.6172 22.0898C21.7383 19.4062 21.5625 18.5977 21.5625 17.1445V16.1836L21.8789 16.3477C22.4297 16.6289 23.1328 16.6758 23.8242 16.4766C24.1758 16.3711 24.5273 16.207 24.6094 16.1133C24.7383 15.9609 24.7969 16.0078 25.0781 16.3945C26.0039 17.6719 28.1367 17.8125 29.3203 16.6758C29.6133 16.3945 29.6602 16.3828 29.8477 16.5469C30.3047 16.9453 30.8906 17.1445 31.582 17.1562C32.3672 17.1562 32.9297 16.9336 33.4688 16.4062L33.8203 16.0781L34.3711 16.5586L34.9336 17.0508L34.2188 17.5781C32.3086 18.9492 31.2188 20.9648 32.168 21.3281C32.6367 21.5039 32.918 21.3281 33.2812 20.6367C33.6328 19.9453 34.5234 19.0078 35.3906 18.4336C36.1641 17.9062 36.3516 17.6484 36.375 17.1094C36.3867 16.6523 36.3398 16.5938 33.3164 13.5703C30.0352 10.2656 29.9414 10.1367 30.2695 9.36328C30.4688 8.88281 30.7969 8.57812 31.2422 8.4375C31.582 8.34375 31.6875 8.35547 32.1797 8.48438ZM32.6836 15.2578C32.5312 15.5391 31.9688 15.8203 31.5352 15.8203C31.1133 15.8203 30.4922 15.3281 30.2813 14.8008C30.1875 14.5781 30.1172 13.9922 30.1172 13.3945V12.3633L31.4531 13.6992C32.5781 14.8242 32.7773 15.0703 32.6836 15.2578ZM36.0352 30V30.9961H29.4727H22.9102L22.875 29.9648L22.8398 28.9453L29.4375 28.9688L36.0352 29.0039V30Z"/>
</mask>
<path d="M26.0391 3.64453C25.7695 3.78516 25.3711 4.10156 25.1602 4.34766L24.7734 4.79297L24.1992 4.51172C22.7812 3.78516 21.0937 4.47656 20.4375 6.03516C20.2969 6.375 20.2734 7.48828 20.2734 12.6797C20.2734 19.793 20.2031 19.1484 21.3867 22.7344C22.4531 25.9922 22.6523 27.4688 22.0898 27.9141C21.5742 28.3125 21.4453 28.7227 21.4453 29.9414C21.4453 31.2656 21.6094 31.7695 22.1719 32.1094C22.5469 32.332 22.7461 32.3438 29.4609 32.3438C36.1758 32.3438 36.375 32.332 36.7383 32.1094C37.3242 31.7461 37.5 31.2539 37.5 30.0117C37.5 28.8164 37.3477 28.2891 36.8672 27.9258C36.5977 27.7031 36.5625 27.5977 36.5625 26.8945C36.5625 25.9688 36.6094 25.8633 37.6406 24.668C39.1406 22.9336 39.75 21.2227 39.7617 18.75C39.7617 17.1211 39.5859 15.9727 39.1055 14.6484L38.7422 13.6523L38.6836 9.96094C38.6016 5.78906 38.6016 5.78906 37.7109 4.95703C36.7969 4.125 35.7422 3.99609 34.6172 4.57031L33.9258 4.92188L33.7148 4.62891C32.9297 3.57422 30.9961 3.33984 30 4.18359L29.6367 4.48828L29.2617 4.125C29.0508 3.92578 28.6875 3.67969 28.4531 3.58594C27.8086 3.31641 26.6484 3.33984 26.0391 3.64453ZM28.2539 5.10938C28.4414 5.29688 28.6523 5.625 28.7227 5.85938C28.8047 6.11719 28.8281 7.85156 28.8047 10.6875C28.7695 14.9297 28.7578 15.1172 28.5234 15.4336C28.3945 15.6094 28.0898 15.8555 27.8555 15.9727C27.4688 16.1719 27.3633 16.1719 26.9297 16.0312C26.6016 15.9258 26.3438 15.75 26.168 15.4805C25.8984 15.082 25.8984 15.082 25.8984 10.3828C25.8984 5.19141 25.875 5.39062 26.6484 4.91016C27.1406 4.59375 27.8086 4.67578 28.2539 5.10938ZM32.4023 5.29688C32.8125 5.61328 33.0469 6.17578 33.0469 6.84375V7.37109L32.6367 7.19531C32.1094 6.98438 31.1602 6.98438 30.6211 7.20703C30.3984 7.30078 30.1875 7.38281 30.1641 7.38281C30.0352 7.38281 30.1406 6.38672 30.3164 5.96484C30.6563 5.09766 31.7227 4.75781 32.4023 5.29688ZM23.9414 5.94141C24.457 6.39844 24.4922 6.71484 24.4922 10.4414C24.4922 14.3555 24.457 14.5781 23.7422 15.0117C23.0039 15.457 22.207 15.1992 21.8086 14.3789C21.5742 13.8984 21.5625 13.6875 21.5625 10.3828C21.5625 7.17188 21.5742 6.86719 21.7852 6.45703C22.2539 5.54297 23.2266 5.30859 23.9414 5.94141ZM36.6797 5.85938C37.2773 6.28125 37.3828 6.79688 37.3828 9.29297V11.543L35.918 10.0781L34.4531 8.61328V7.69922C34.4531 6.69141 34.6055 6.26953 35.1094 5.87109C35.5195 5.55469 36.2344 5.54297 36.6797 5.85938ZM32.1797 8.48438C32.3086 8.53125 33.4453 9.59766 34.6992 10.875C36.7148 12.9258 37.0312 13.2891 37.418 14.0859C38.5898 16.5 38.7539 19.8984 37.8047 21.9961C37.4766 22.6992 37.043 23.2969 36.1875 24.2227C35.4375 25.043 35.2734 25.4531 35.2734 26.6016V27.5391H29.4727H23.6719V26.7422C23.6719 25.5352 23.4961 24.7852 22.6172 22.0898C21.7383 19.4062 21.5625 18.5977 21.5625 17.1445V16.1836L21.8789 16.3477C22.4297 16.6289 23.1328 16.6758 23.8242 16.4766C24.1758 16.3711 24.5273 16.207 24.6094 16.1133C24.7383 15.9609 24.7969 16.0078 25.0781 16.3945C26.0039 17.6719 28.1367 17.8125 29.3203 16.6758C29.6133 16.3945 29.6602 16.3828 29.8477 16.5469C30.3047 16.9453 30.8906 17.1445 31.582 17.1562C32.3672 17.1562 32.9297 16.9336 33.4688 16.4062L33.8203 16.0781L34.3711 16.5586L34.9336 17.0508L34.2188 17.5781C32.3086 18.9492 31.2188 20.9648 32.168 21.3281C32.6367 21.5039 32.918 21.3281 33.2812 20.6367C33.6328 19.9453 34.5234 19.0078 35.3906 18.4336C36.1641 17.9062 36.3516 17.6484 36.375 17.1094C36.3867 16.6523 36.3398 16.5938 33.3164 13.5703C30.0352 10.2656 29.9414 10.1367 30.2695 9.36328C30.4688 8.88281 30.7969 8.57812 31.2422 8.4375C31.582 8.34375 31.6875 8.35547 32.1797 8.48438ZM32.6836 15.2578C32.5312 15.5391 31.9688 15.8203 31.5352 15.8203C31.1133 15.8203 30.4922 15.3281 30.2813 14.8008C30.1875 14.5781 30.1172 13.9922 30.1172 13.3945V12.3633L31.4531 13.6992C32.5781 14.8242 32.7773 15.0703 32.6836 15.2578ZM36.0352 30V30.9961H29.4727H22.9102L22.875 29.9648L22.8398 28.9453L29.4375 28.9688L36.0352 29.0039V30Z" fill="#D2A226" stroke="#D2A226" stroke-width="1.6" mask="url(#path-1-inside-1_402_2921)"/>
<path d="M12.678 26.8311C12.7282 26.7508 12.9202 26.4944 13.221 26.117C13.5228 25.7382 13.9126 25.2642 14.3198 24.787L14.3202 24.7866L15.7968 23.0523L16.3201 22.4375L15.514 22.3936L14.8694 22.3584L14.8676 22.3583C14.5199 22.3409 14.3959 22.2916 14.3558 22.2625C14.3477 22.2566 14.345 22.2538 14.3404 22.2419C14.3329 22.2227 14.3219 22.1786 14.3219 22.0898C14.3219 21.9406 14.3553 21.9147 14.3628 21.9088C14.3631 21.9086 14.3634 21.9083 14.3636 21.9082C14.3949 21.8821 14.4943 21.8309 14.773 21.809C15.0648 21.7865 15.7803 21.7632 16.3674 21.7515L16.3691 21.7514C16.7438 21.7423 16.9766 21.737 17.1418 21.7576C17.219 21.7673 17.2586 21.7804 17.2778 21.7894C17.2918 21.7959 17.295 21.7999 17.2987 21.8048C17.3181 21.8308 17.3593 21.9173 17.385 22.1899C17.409 22.4457 17.4151 22.7925 17.4237 23.2847L17.4243 23.3153L17.4243 23.3156C17.4361 24.028 17.4349 24.3973 17.412 24.6068C17.4066 24.6556 17.4007 24.6887 17.3955 24.7107C17.3939 24.7172 17.3925 24.7223 17.3913 24.7264C17.2482 24.8228 17.1566 24.7981 17.1025 24.7638C17.0279 24.7165 16.9171 24.5782 16.8992 24.2915L16.8991 24.2898L16.864 23.7625L16.7986 22.782L16.1606 23.5294L15.3403 24.4903L15.3389 24.4919L15.3389 24.4919C15.1579 24.7063 14.9366 24.967 14.7134 25.23C14.391 25.6098 14.0646 25.9943 13.8499 26.2506C13.8498 26.2507 13.8497 26.2508 13.8496 26.2509L13.1704 27.059L13.0766 27.1706V27.3164V29.6133C13.0766 30.2499 13.0736 30.7308 13.0591 31.0969C13.0444 31.4692 13.0185 31.6937 12.9826 31.8311C12.9677 31.8882 12.9544 31.9175 12.9467 31.931C12.93 31.9351 12.8812 31.9437 12.7617 31.9437C12.6602 31.9437 12.6196 31.9341 12.6074 31.9303C12.5984 31.917 12.5766 31.8765 12.5544 31.7774C12.5182 31.6154 12.495 31.3628 12.486 30.9652C12.477 30.5727 12.482 30.063 12.4937 29.3977L12.678 26.8311ZM12.678 26.8311C12.6344 26.9189 12.5922 27.0536 12.5612 27.4231C12.5288 27.8088 12.5113 28.4043 12.4937 29.3977L12.678 26.8311ZM12.6117 31.9356C12.6117 31.9356 12.6111 31.9349 12.61 31.9338C12.611 31.9352 12.6116 31.9357 12.6117 31.9356ZM12.9399 31.9408C12.9399 31.941 12.9411 31.9399 12.9431 31.937C12.9408 31.9391 12.9398 31.9406 12.9399 31.9408Z" fill="#D2A226" stroke="#D2A226" stroke-width="0.8"/>
<path d="M43.8394 23.5294L44.6577 24.488C44.6581 24.4884 44.6584 24.4888 44.6587 24.4892C44.8887 24.7545 45.1709 25.0867 45.4412 25.4053C45.4614 25.429 45.4815 25.4528 45.5015 25.4764C45.751 25.7703 45.9859 26.0471 46.158 26.2462L46.1581 26.2461L46.1638 26.2531L46.8318 27.0617L46.9234 27.1726V27.3164V29.6367C46.9234 30.6928 46.9296 31.2556 46.9571 31.5773C46.9709 31.7382 46.9879 31.8082 46.9987 31.8382C47.001 31.8444 47.0014 31.8463 47.0023 31.8475C47.1642 31.9908 47.3437 31.9452 47.4215 31.845C47.423 31.8401 47.425 31.8333 47.4274 31.8242C47.437 31.788 47.4478 31.7343 47.4587 31.6611C47.4803 31.5151 47.4981 31.3183 47.5115 31.0818C47.538 30.6104 47.545 30.0089 47.5341 29.3992C47.5233 28.7897 47.4947 28.1796 47.4512 27.6911C47.4295 27.4464 47.4045 27.2376 47.3772 27.0772C47.3636 26.9969 47.3501 26.9333 47.3376 26.8859C47.3288 26.8527 47.3223 26.8345 47.3195 26.8272C47.2658 26.7427 47.075 26.4885 46.779 26.117C46.4771 25.7382 46.0874 25.2642 45.6801 24.7871L45.6798 24.7866L44.2032 23.0523L43.6799 22.4375L44.486 22.3936L45.1306 22.3584L45.1327 22.3583C45.4874 22.3409 45.6131 22.2911 45.6539 22.2615C45.662 22.2556 45.6652 22.2523 45.6704 22.2388C45.6786 22.2176 45.6898 22.1708 45.6898 22.0781C45.6898 21.9954 45.6829 21.9579 45.6794 21.9441C45.6711 21.9388 45.6551 21.9304 45.6268 21.9199C45.5412 21.8881 45.3947 21.8569 45.1425 21.8299C44.8956 21.8034 44.5736 21.7833 44.1501 21.7629C43.4184 21.7332 43.0543 21.7235 42.8472 21.7413C42.7492 21.7497 42.72 21.7623 42.7168 21.7637C42.7165 21.7638 42.7171 21.7634 42.7158 21.7644C42.7135 21.7662 42.7076 21.7711 42.6956 21.7836C42.685 21.798 42.6556 21.8532 42.6314 22.0517C42.6021 22.2927 42.5875 22.6728 42.5757 23.3156C42.5638 24.028 42.565 24.3973 42.588 24.6068C42.5934 24.6557 42.5993 24.6887 42.6045 24.7107C42.6061 24.7172 42.6075 24.7223 42.6087 24.7264C42.7518 24.8228 42.8434 24.7981 42.8975 24.7638C42.9721 24.7165 43.0828 24.5782 43.1008 24.2915L43.1009 24.2898L43.136 23.7625L43.2014 22.782L43.8394 23.5294ZM45.6871 21.9499C45.6872 21.9498 45.6864 21.9489 45.6843 21.9473C45.6859 21.9491 45.6869 21.9499 45.6871 21.9499Z" fill="#D2A226" stroke="#D2A226" stroke-width="0.8"/>
<mask id="path-4-inside-2_402_2921" fill="white">
<path d="M11.8359 33.4102C9.63281 33.6914 7.47656 35.6602 6.98437 37.8516C6.50391 39.9375 7.05469 42.0352 8.42578 43.4297L8.98828 44.0039L8.29687 44.1445C5.91797 44.625 3.79687 46.7109 3.22266 49.1133C3 50.0742 2.96484 54.3633 3.1875 54.5859C3.29297 54.6914 5.36719 54.7266 11.8008 54.7266H20.2734V55.5234C20.2734 55.9922 20.332 56.3789 20.4141 56.4609C20.6133 56.6602 39.3867 56.6602 39.5859 56.4609C39.668 56.3789 39.7266 55.9922 39.7266 55.5234V54.7266H48.1992C54.6328 54.7266 56.707 54.6914 56.8125 54.5859C57.0352 54.3633 57 50.0742 56.7773 49.1133C56.2031 46.7227 54.082 44.625 51.7266 44.1445L51.0117 44.0039L51.5742 43.4297C54.3398 40.6172 53.4609 35.7539 49.8633 33.9727C45.8789 32.0039 41.25 34.875 41.25 39.3164C41.25 40.8633 41.8594 42.4219 42.8906 43.4766L43.418 44.0156L42.7148 44.1562C41.1094 44.4609 39.2695 45.7734 38.4375 47.2031L38.0391 47.9062L37.5 47.4375C36.6562 46.6875 34.957 45.9375 34.1016 45.9375C33.8086 45.9375 33.8203 45.9141 34.3711 45.3281C36.1641 43.418 36.4922 40.3711 35.1445 38.1328C34.6641 37.3477 33.5859 36.3047 32.8359 35.9297C31.0781 35.0391 28.9219 35.0391 27.1641 35.9297C26.4141 36.3047 25.3359 37.3477 24.8555 38.1328C23.5078 40.3711 23.8477 43.4883 25.6406 45.3516C26.2031 45.9258 26.2031 45.9375 25.8867 45.9375C25.0195 45.9375 23.1211 46.8047 22.3242 47.5781L21.9727 47.918L21.6328 47.3086C20.8008 45.832 18.9141 44.4609 17.2734 44.1562L16.582 44.0156L17.1211 43.4531C19.2773 41.2031 19.2891 37.4648 17.1562 35.2383C15.7617 33.7734 13.9336 33.1523 11.8359 33.4102ZM14.707 35.1328C17.4258 36.4102 18.2578 39.832 16.4062 42.1758C14.6953 44.3438 11.4727 44.5312 9.51562 42.5742C7.00781 40.0664 8.22656 35.6836 11.6836 34.8047C12.5156 34.5938 13.8633 34.7461 14.707 35.1328ZM49.1367 35.1328C52.0547 36.4922 52.7461 40.3125 50.4844 42.5742C48.5273 44.5312 45.3047 44.3438 43.5937 42.1758C42.7852 41.1445 42.4219 39.8086 42.6445 38.6016C42.9844 36.7734 44.3789 35.25 46.1367 34.8047C46.957 34.6055 48.3164 34.7461 49.1367 35.1328ZM31.1133 36.75C32.918 37.2188 34.2305 38.6484 34.5703 40.5234C34.9102 42.4336 33.7969 44.5078 31.9336 45.4219C31.2891 45.7266 31.125 45.7617 30 45.7617C28.8867 45.7617 28.6992 45.7266 28.1016 45.4336C26.1797 44.4961 25.0781 42.4688 25.4297 40.5234C25.7695 38.6719 27.0703 37.2188 28.8281 36.75C29.6719 36.5273 30.2695 36.5273 31.1133 36.75ZM17.332 45.5742C17.7187 45.6914 18.2695 45.9258 18.5391 46.0898C19.3008 46.5352 20.2383 47.5898 20.6484 48.4688C21 49.2188 21 49.2422 20.8125 49.6641C20.4609 50.4609 20.2734 51.375 20.2734 52.4062V53.4375H19.3359H18.3984V51.8789C18.3984 50.0625 18.3047 49.7695 17.6953 49.7109C17.0625 49.6406 16.9922 49.8398 16.9922 51.7617V53.4375H12.7734H8.55469V51.7031C8.55469 49.8047 8.51953 49.6875 7.91015 49.6875C7.30078 49.6875 7.26562 49.8047 7.26562 51.7031V53.4375H5.80078H4.33594L4.34766 51.8203C4.34766 49.9336 4.54687 49.0078 5.15625 48C5.88281 46.793 7.23047 45.7852 8.51953 45.4805C8.76562 45.4219 10.6875 45.375 12.7969 45.3633C16.2305 45.3516 16.6875 45.375 17.332 45.5742ZM51.4102 45.4688C52.7578 45.7852 54.1055 46.7695 54.8437 48C55.4531 49.0078 55.6523 49.9336 55.6523 51.8203L55.6641 53.4375H54.1992H52.7344V51.7031C52.7344 49.8047 52.6992 49.6875 52.0898 49.6875C51.4805 49.6875 51.4453 49.8047 51.4453 51.7031V53.4375H47.2266H43.0078V51.7617C43.0078 49.8398 42.9375 49.6406 42.3047 49.7109C41.6953 49.7695 41.6016 50.0625 41.6016 51.8789V53.4375H40.6758H39.7617L39.7031 52.1133C39.6562 51.0352 39.5859 50.6602 39.3281 50.0039L39 49.207L39.3633 48.457C39.7734 47.5781 40.6875 46.5586 41.4727 46.0898C42.6445 45.3984 42.9492 45.3633 47.1094 45.3633C49.207 45.3633 51.1406 45.4102 51.4102 45.4688ZM34.4883 47.4023C35.4609 47.6484 36.0469 47.9883 36.7969 48.7031C38.0859 49.9219 38.4375 50.9883 38.4375 53.5781V55.3125H36.9727H35.5078V53.5781C35.5078 52.3828 35.4609 51.7969 35.3672 51.7031C35.1328 51.4688 34.4766 51.5273 34.3359 51.7852C34.2773 51.9141 34.2187 52.7578 34.2187 53.6602V55.3125H30H25.7812V53.6602C25.7812 52.7578 25.7227 51.9141 25.6641 51.7852C25.5234 51.5273 24.8672 51.4688 24.6328 51.7031C24.5391 51.7969 24.4922 52.3828 24.4922 53.5781V55.3125H23.0273H21.5625V53.6602C21.5625 51.6211 21.7617 50.6602 22.3711 49.7227C23.168 48.5039 24.1641 47.7539 25.4648 47.4023C26.3789 47.1562 33.5508 47.1562 34.4883 47.4023Z"/>
</mask>
<path d="M11.8359 33.4102C9.63281 33.6914 7.47656 35.6602 6.98437 37.8516C6.50391 39.9375 7.05469 42.0352 8.42578 43.4297L8.98828 44.0039L8.29687 44.1445C5.91797 44.625 3.79687 46.7109 3.22266 49.1133C3 50.0742 2.96484 54.3633 3.1875 54.5859C3.29297 54.6914 5.36719 54.7266 11.8008 54.7266H20.2734V55.5234C20.2734 55.9922 20.332 56.3789 20.4141 56.4609C20.6133 56.6602 39.3867 56.6602 39.5859 56.4609C39.668 56.3789 39.7266 55.9922 39.7266 55.5234V54.7266H48.1992C54.6328 54.7266 56.707 54.6914 56.8125 54.5859C57.0352 54.3633 57 50.0742 56.7773 49.1133C56.2031 46.7227 54.082 44.625 51.7266 44.1445L51.0117 44.0039L51.5742 43.4297C54.3398 40.6172 53.4609 35.7539 49.8633 33.9727C45.8789 32.0039 41.25 34.875 41.25 39.3164C41.25 40.8633 41.8594 42.4219 42.8906 43.4766L43.418 44.0156L42.7148 44.1562C41.1094 44.4609 39.2695 45.7734 38.4375 47.2031L38.0391 47.9062L37.5 47.4375C36.6562 46.6875 34.957 45.9375 34.1016 45.9375C33.8086 45.9375 33.8203 45.9141 34.3711 45.3281C36.1641 43.418 36.4922 40.3711 35.1445 38.1328C34.6641 37.3477 33.5859 36.3047 32.8359 35.9297C31.0781 35.0391 28.9219 35.0391 27.1641 35.9297C26.4141 36.3047 25.3359 37.3477 24.8555 38.1328C23.5078 40.3711 23.8477 43.4883 25.6406 45.3516C26.2031 45.9258 26.2031 45.9375 25.8867 45.9375C25.0195 45.9375 23.1211 46.8047 22.3242 47.5781L21.9727 47.918L21.6328 47.3086C20.8008 45.832 18.9141 44.4609 17.2734 44.1562L16.582 44.0156L17.1211 43.4531C19.2773 41.2031 19.2891 37.4648 17.1562 35.2383C15.7617 33.7734 13.9336 33.1523 11.8359 33.4102ZM14.707 35.1328C17.4258 36.4102 18.2578 39.832 16.4062 42.1758C14.6953 44.3438 11.4727 44.5312 9.51562 42.5742C7.00781 40.0664 8.22656 35.6836 11.6836 34.8047C12.5156 34.5938 13.8633 34.7461 14.707 35.1328ZM49.1367 35.1328C52.0547 36.4922 52.7461 40.3125 50.4844 42.5742C48.5273 44.5312 45.3047 44.3438 43.5937 42.1758C42.7852 41.1445 42.4219 39.8086 42.6445 38.6016C42.9844 36.7734 44.3789 35.25 46.1367 34.8047C46.957 34.6055 48.3164 34.7461 49.1367 35.1328ZM31.1133 36.75C32.918 37.2188 34.2305 38.6484 34.5703 40.5234C34.9102 42.4336 33.7969 44.5078 31.9336 45.4219C31.2891 45.7266 31.125 45.7617 30 45.7617C28.8867 45.7617 28.6992 45.7266 28.1016 45.4336C26.1797 44.4961 25.0781 42.4688 25.4297 40.5234C25.7695 38.6719 27.0703 37.2188 28.8281 36.75C29.6719 36.5273 30.2695 36.5273 31.1133 36.75ZM17.332 45.5742C17.7187 45.6914 18.2695 45.9258 18.5391 46.0898C19.3008 46.5352 20.2383 47.5898 20.6484 48.4688C21 49.2188 21 49.2422 20.8125 49.6641C20.4609 50.4609 20.2734 51.375 20.2734 52.4062V53.4375H19.3359H18.3984V51.8789C18.3984 50.0625 18.3047 49.7695 17.6953 49.7109C17.0625 49.6406 16.9922 49.8398 16.9922 51.7617V53.4375H12.7734H8.55469V51.7031C8.55469 49.8047 8.51953 49.6875 7.91015 49.6875C7.30078 49.6875 7.26562 49.8047 7.26562 51.7031V53.4375H5.80078H4.33594L4.34766 51.8203C4.34766 49.9336 4.54687 49.0078 5.15625 48C5.88281 46.793 7.23047 45.7852 8.51953 45.4805C8.76562 45.4219 10.6875 45.375 12.7969 45.3633C16.2305 45.3516 16.6875 45.375 17.332 45.5742ZM51.4102 45.4688C52.7578 45.7852 54.1055 46.7695 54.8437 48C55.4531 49.0078 55.6523 49.9336 55.6523 51.8203L55.6641 53.4375H54.1992H52.7344V51.7031C52.7344 49.8047 52.6992 49.6875 52.0898 49.6875C51.4805 49.6875 51.4453 49.8047 51.4453 51.7031V53.4375H47.2266H43.0078V51.7617C43.0078 49.8398 42.9375 49.6406 42.3047 49.7109C41.6953 49.7695 41.6016 50.0625 41.6016 51.8789V53.4375H40.6758H39.7617L39.7031 52.1133C39.6562 51.0352 39.5859 50.6602 39.3281 50.0039L39 49.207L39.3633 48.457C39.7734 47.5781 40.6875 46.5586 41.4727 46.0898C42.6445 45.3984 42.9492 45.3633 47.1094 45.3633C49.207 45.3633 51.1406 45.4102 51.4102 45.4688ZM34.4883 47.4023C35.4609 47.6484 36.0469 47.9883 36.7969 48.7031C38.0859 49.9219 38.4375 50.9883 38.4375 53.5781V55.3125H36.9727H35.5078V53.5781C35.5078 52.3828 35.4609 51.7969 35.3672 51.7031C35.1328 51.4688 34.4766 51.5273 34.3359 51.7852C34.2773 51.9141 34.2187 52.7578 34.2187 53.6602V55.3125H30H25.7812V53.6602C25.7812 52.7578 25.7227 51.9141 25.6641 51.7852C25.5234 51.5273 24.8672 51.4688 24.6328 51.7031C24.5391 51.7969 24.4922 52.3828 24.4922 53.5781V55.3125H23.0273H21.5625V53.6602C21.5625 51.6211 21.7617 50.6602 22.3711 49.7227C23.168 48.5039 24.1641 47.7539 25.4648 47.4023C26.3789 47.1562 33.5508 47.1562 34.4883 47.4023Z" fill="#D2A226" stroke="#D2A226" stroke-width="1.6" mask="url(#path-4-inside-2_402_2921)"/>
</svg>
