<svg width="54" height="55" viewBox="0 0 54 55" fill="none" xmlns="http://www.w3.org/2000/svg">
<path d="M23.9414 2.8125C21.5742 5.17969 21.2578 5.54297 21.2578 5.87109C21.2578 6.73828 21.6328 6.96094 23.1328 6.96094H24.1875V9.51562C24.1875 11.9766 24.1992 12.0938 24.4336 12.3047C24.6562 12.5039 24.8789 12.5273 27 12.5273C29.1211 12.5273 29.3438 12.5039 29.5664 12.3047C29.8008 12.0938 29.8125 11.9766 29.8125 9.51562V6.96094H30.8672C32.3672 6.96094 32.7422 6.73828 32.7422 5.87109C32.7422 5.55469 32.4141 5.17969 30.1289 2.89453C27.8438 0.597656 27.4688 0.269531 27.082 0.199219L26.625 0.128906L23.9414 2.8125ZM28.2305 3.79688L29.4023 4.96875H28.9336C28.6289 4.96875 28.3945 5.05078 28.207 5.22656C27.9375 5.47266 27.9375 5.51953 27.9375 8.03906V10.5938H27H26.0625V8.05078C26.0625 5.60156 26.0508 5.49609 25.8047 5.23828C25.6172 5.03906 25.418 4.96875 25.0781 4.96875H24.5977L25.7695 3.79688C26.4141 3.15234 26.9648 2.625 27 2.625C27.0352 2.625 27.5859 3.15234 28.2305 3.79688Z" fill="#D2A226"/>
<path d="M12.6914 9.375C10.3242 11.7422 10.0078 12.1055 10.0078 12.4336C10.0078 13.3008 10.3828 13.5234 11.8828 13.5234H12.9375V16.0781C12.9375 18.5391 12.9492 18.6562 13.1836 18.8672C13.4062 19.0664 13.6289 19.0898 15.75 19.0898C17.8711 19.0898 18.0938 19.0664 18.3164 18.8672C18.5508 18.6562 18.5625 18.5391 18.5625 16.0781V13.5234H19.6172C21.1172 13.5234 21.4922 13.3008 21.4922 12.4336C21.4922 12.1172 21.1641 11.7422 18.8789 9.45703C16.5938 7.16016 16.2188 6.83203 15.832 6.76172L15.375 6.69141L12.6914 9.375ZM16.9805 10.3594L18.1523 11.5312H17.6836C17.3789 11.5312 17.1445 11.6133 16.957 11.7891C16.6875 12.0352 16.6875 12.082 16.6875 14.6016V17.1562H15.75H14.8125V14.6133C14.8125 12.1641 14.8008 12.0586 14.5547 11.8008C14.3672 11.6016 14.168 11.5312 13.8281 11.5312H13.3477L14.5195 10.3594C15.1641 9.71484 15.7148 9.1875 15.75 9.1875C15.7852 9.1875 16.3359 9.71484 16.9805 10.3594Z" fill="#D2A226"/>
<path d="M35.1914 9.375C32.8242 11.7422 32.5078 12.1055 32.5078 12.4336C32.5078 13.3008 32.8828 13.5234 34.3828 13.5234H35.4375V16.0781C35.4375 18.5391 35.4492 18.6562 35.6836 18.8672C35.9062 19.0664 36.1289 19.0898 38.25 19.0898C40.3711 19.0898 40.5938 19.0664 40.8164 18.8672C41.0508 18.6562 41.0625 18.5391 41.0625 16.0781V13.5234H42.1172C43.6172 13.5234 43.9922 13.3008 43.9922 12.4336C43.9922 12.1172 43.6641 11.7422 41.3789 9.45703C39.0938 7.16016 38.7188 6.83203 38.332 6.76172L37.875 6.69141L35.1914 9.375ZM39.4805 10.3594L40.6523 11.5312H40.1836C39.8789 11.5312 39.6445 11.6133 39.457 11.7891C39.1875 12.0352 39.1875 12.082 39.1875 14.6016V17.1562H38.25H37.3125V14.6133C37.3125 12.1641 37.3008 12.0586 37.0547 11.8008C36.8672 11.6016 36.668 11.5312 36.3281 11.5312H35.8477L37.0195 10.3594C37.6641 9.71484 38.2148 9.1875 38.25 9.1875C38.2852 9.1875 38.8359 9.71484 39.4805 10.3594Z" fill="#D2A226"/>
<path d="M2.33159 15.9727C2.07378 16.0898 1.69878 16.3711 1.48784 16.582C0.702682 17.4141 0.749557 16.6172 0.749557 29.8359C0.749557 41.2617 0.761276 41.8477 0.972213 42.293C1.0894 42.5508 1.37065 42.9258 1.58159 43.1367C2.4019 43.9102 1.80424 43.875 13.0542 43.875H23.2496V45.75V47.625H18.6558C13.523 47.625 13.523 47.625 12.7378 48.457C12.0816 49.1602 11.9996 49.5117 11.9996 51.7266C11.9996 53.5664 12.023 53.7422 12.2339 53.9531C12.4683 54.1875 12.6206 54.1875 26.9996 54.1875C41.3785 54.1875 41.5308 54.1875 41.7652 53.9531C41.9761 53.7422 41.9996 53.5664 41.9996 51.7031C41.9996 49.4297 41.9058 49.0664 41.1675 48.3633C40.3941 47.625 40.3707 47.625 35.3199 47.625H30.7496V45.75V43.875H40.9449C52.1949 43.875 51.5972 43.9102 52.4175 43.1367C52.6285 42.9258 52.9097 42.5508 53.0269 42.293C53.2378 41.8477 53.2496 41.2617 53.2496 29.8125C53.2496 18.3633 53.2378 17.7773 53.0269 17.332C52.9097 17.0742 52.6285 16.6992 52.4175 16.4883C51.6558 15.7617 51.5503 15.75 47.273 15.75C43.5582 15.75 43.3941 15.7617 43.1714 15.9844C43.0191 16.1367 42.9371 16.3711 42.9371 16.6875C42.9371 17.0039 43.0191 17.2383 43.1714 17.3906C43.3941 17.6133 43.5582 17.625 46.8511 17.625C49.1128 17.625 50.4136 17.6719 50.6714 17.7539C51.398 18.0117 51.3746 17.7539 51.3746 27.5273V36.375H26.9996H2.62456V27.5273C2.62456 17.7539 2.60112 18.0117 3.32768 17.7539C3.58549 17.6719 4.88628 17.625 7.14799 17.625C10.441 17.625 10.605 17.6133 10.8277 17.3906C10.98 17.2383 11.0621 17.0039 11.0621 16.6875C11.0621 16.3711 10.98 16.1367 10.8277 15.9844C10.605 15.7617 10.441 15.75 6.70268 15.75C3.1519 15.75 2.75346 15.7734 2.33159 15.9727ZM51.3746 39.5977C51.3746 41.2148 51.2339 41.6719 50.6714 41.8711C50.1207 42.0586 3.87846 42.0586 3.32768 41.8711C2.76518 41.6719 2.62456 41.2148 2.62456 39.5977V38.25H26.9996H51.3746V39.5977ZM28.8746 45.75V47.625H26.9996H25.1246V45.75V43.875H26.9996H28.8746V45.75ZM39.4214 49.6289C39.9253 49.8164 40.1246 50.3203 40.1246 51.4336V52.3125H26.9996H13.8746V51.4453C13.8746 50.332 14.0386 49.875 14.5074 49.6641C14.9996 49.4531 38.8121 49.418 39.4214 49.6289Z" fill="#D2A226"/>
<path d="M37.9561 20.3321C35.835 20.5547 34.0421 21.6563 32.8702 23.4844C32.2257 24.4805 31.9092 25.5235 31.8389 26.8829C31.5694 31.8399 36.3858 35.3438 41.1553 33.6797C43.0303 33.0235 44.6007 31.3829 45.3038 29.3438C45.6788 28.254 45.6788 26.2383 45.3038 25.043C44.3428 21.961 41.2608 19.9805 37.9561 20.3321ZM37.7803 24.3047V26.1797H35.835H33.9014L33.9717 25.9102C34.3467 24.6329 35.4249 23.3438 36.6319 22.7813C37.8389 22.2071 37.7803 22.1368 37.7803 24.3047ZM40.71 22.7344C42.8428 23.7305 44.0264 26.0626 43.5108 28.2774C42.9483 30.7149 40.3467 32.4961 37.9913 32.0626C36.0811 31.711 34.4053 30.211 33.9717 28.4883L33.8897 28.1719H36.5382C39.0342 28.1719 39.1983 28.1602 39.421 27.9376C39.6436 27.7149 39.6553 27.5508 39.6553 25.0665C39.6553 22.0547 39.585 22.2071 40.71 22.7344Z" fill="#D2A226"/>
<path d="M5.69484 21.1758C5.34328 21.5508 5.34328 22.3125 5.68312 22.6172C5.9175 22.8281 6.24562 22.8398 15.2808 22.8398C24.3159 22.8398 24.6441 22.8281 24.8784 22.6172C25.23 22.3008 25.2183 21.5039 24.855 21.1641L24.5855 20.9062H15.2691H5.94094L5.69484 21.1758Z" fill="#D2A226"/>
<path d="M5.69484 24.9258C5.34328 25.3008 5.34328 26.0625 5.68312 26.3672C5.9175 26.5781 6.30422 26.5898 17.2027 26.625C23.3902 26.6367 28.5816 26.625 28.7339 26.5898C29.4605 26.4141 29.7183 25.4883 29.1675 24.9492L28.8862 24.6562H17.4136H5.94094L5.69484 24.9258Z" fill="#D2A226"/>
<path d="M5.69484 28.6758C5.34328 29.0508 5.34328 29.8125 5.68312 30.1172C5.9175 30.3281 6.30422 30.3398 17.2027 30.375C23.3902 30.3867 28.5816 30.375 28.7339 30.3398C29.4605 30.1641 29.7183 29.2383 29.1675 28.6992L28.8862 28.4062H17.4136H5.94094L5.69484 28.6758Z" fill="#D2A226"/>
<path d="M5.69484 32.4258C5.34328 32.8008 5.34328 33.5625 5.68312 33.8672C5.9175 34.0781 6.30422 34.0898 17.2027 34.125C23.3902 34.1367 28.5816 34.125 28.7339 34.0898C29.4605 33.9141 29.7183 32.9883 29.1675 32.4492L28.8862 32.1562H17.4136H5.94094L5.69484 32.4258Z" fill="#D2A226"/>
</svg>
