<svg width="60" height="60" viewBox="0 0 60 60" fill="none" xmlns="http://www.w3.org/2000/svg">
<path d="M5.07422 2.98826C3.90234 3.35154 2.84766 4.30076 2.25 5.50779L1.93359 6.15232V23.9062V41.6601L2.27344 42.3633C2.71875 43.2656 3.60938 44.1562 4.51172 44.6015L5.21484 44.9414L13.3242 44.9765C21.3398 45 21.4453 45 21.6797 44.7656C21.9609 44.4844 21.9961 43.7578 21.75 43.4062C21.5859 43.1953 21.3281 43.1836 13.8047 43.125C6.23438 43.0664 6.02344 43.0547 5.50781 42.8203C4.875 42.5273 4.18359 41.8008 3.97266 41.1797C3.72656 40.5 3.72656 7.31248 3.97266 6.63279C4.19531 5.97654 4.95703 5.20311 5.60156 4.95701C6.12891 4.75779 7.06641 4.74607 23.4375 4.74607C37.7812 4.74607 40.8047 4.76951 41.1797 4.91014C41.8008 5.12107 42.5273 5.81248 42.8203 6.44529C43.0547 6.96092 43.0664 7.16014 43.1016 13.6523C43.1367 20.2734 43.1367 20.332 43.3828 20.5898C43.7344 20.9648 44.4023 20.9531 44.7539 20.5898L45.0117 20.3086L44.9766 13.2304L44.9414 6.15232L44.6016 5.4492C44.1562 4.54686 43.2656 3.65623 42.3633 3.21092L41.6602 2.87107L23.6133 2.84764C8.85938 2.83592 5.47266 2.85936 5.07422 2.98826Z" fill="#D2A226"/>
<path d="M14.4492 8.44922C13.7695 8.57812 13.3477 8.8125 12.8555 9.36328C12.1992 10.0898 12.1289 10.4766 12.3164 12.4219C12.3281 12.5156 12.1172 13.0664 11.8594 13.6523C11.6016 14.2266 11.0391 15.8438 10.6055 17.2266C9.65625 20.2734 9.12891 21.6445 8.56641 22.5C8.19141 23.0625 8.0625 23.168 7.5 23.3555C6.75 23.5898 6.5625 23.7891 6.5625 24.375C6.5625 24.9844 6.9375 25.3125 7.65234 25.3125C8.35547 25.3125 8.87109 25.1016 9.46875 24.5508C10.5117 23.6133 11.1797 22.1602 12.4688 18.082C12.9609 16.5234 13.4766 14.9766 13.6289 14.625L13.8984 14.0156L14.8359 14.0391C15.6328 14.0742 15.832 14.0391 16.3125 13.7812L16.8633 13.4883L17.2852 14.4961C17.5078 15.0586 18.0703 16.6992 18.5273 18.1523C19.3828 20.8711 19.8516 22.1367 20.3672 23.0625C20.6016 23.4727 20.6602 23.7305 20.6367 24.2109C20.5547 25.9336 21.7266 27.1875 23.4141 27.1875C24.2812 27.1875 24.8672 26.9648 25.4062 26.4492C26.0391 25.8398 26.2969 25.2539 26.2734 24.375C26.2734 23.7305 26.332 23.4961 26.6602 22.8516C27.1172 21.9375 27.6562 20.4609 28.5469 17.6367C28.9102 16.4766 29.332 15.1758 29.4961 14.7539L29.8008 13.9805L30.7148 14.0391C31.4883 14.0859 31.7109 14.0508 32.168 13.8281C32.625 13.6055 32.7422 13.5938 32.8242 13.7227C33.1055 14.168 33.6914 15.7852 34.4414 18.1641C35.0977 20.2617 35.332 20.8594 35.5664 21.0586C35.918 21.375 36.2109 21.3984 36.668 21.1523C37.3359 20.8125 37.3125 20.6133 36.3867 17.625C35.2734 14.0625 34.8398 12.9727 34.0898 11.8711C33.8672 11.543 33.75 11.2383 33.75 10.9336C33.7383 10.0195 33 9 32.0508 8.61328C31.4297 8.34375 30.3867 8.35547 29.7539 8.63672C29.1328 8.91797 28.4414 9.65625 28.2422 10.2539C28.125 10.6172 28.125 11.2734 28.2539 12.4805C28.2539 12.5391 28.0547 13.0664 27.7969 13.6523C27.5391 14.2266 26.9531 15.9141 26.4844 17.4023C26.0273 18.8789 25.4883 20.4844 25.2891 20.9531C24.9492 21.7734 24.9141 21.8086 24.6211 21.7266C23.625 21.4688 23.25 21.4688 22.2539 21.7266C21.9609 21.8086 21.9258 21.7734 21.5859 20.9531C21.3867 20.4844 20.8477 18.8789 20.3906 17.4023C19.4766 14.5195 18.8906 13.0195 18.2812 12.0703C18.0352 11.6836 17.8828 11.2852 17.8477 10.9336C17.707 9.29297 16.1367 8.14453 14.4492 8.44922ZM15.5859 10.6641C15.7148 10.793 15.8203 11.0508 15.8203 11.25C15.8203 11.4492 15.7148 11.707 15.5859 11.8359C15.082 12.3398 14.1797 11.9648 14.1797 11.25C14.1797 10.8047 14.5547 10.4297 15 10.4297C15.1992 10.4297 15.457 10.5352 15.5859 10.6641ZM31.5234 10.6641C31.6523 10.793 31.7578 11.0508 31.7578 11.25C31.7578 11.4492 31.6523 11.707 31.5234 11.8359C31.3945 11.9648 31.1367 12.0703 30.9375 12.0703C30.7383 12.0703 30.4805 11.9648 30.3516 11.8359C30.2227 11.707 30.1172 11.4492 30.1172 11.25C30.1172 11.0508 30.2227 10.793 30.3516 10.6641C30.4805 10.5352 30.7383 10.4297 30.9375 10.4297C31.1367 10.4297 31.3945 10.5352 31.5234 10.6641ZM24.0234 23.7891C24.1523 23.918 24.2578 24.1758 24.2578 24.375C24.2578 24.5742 24.1523 24.832 24.0234 24.9609C23.8945 25.0898 23.6367 25.1953 23.4375 25.1953C23.2383 25.1953 22.9805 25.0898 22.8516 24.9609C22.7227 24.832 22.6172 24.5742 22.6172 24.375C22.6172 24.1758 22.7227 23.918 22.8516 23.7891C22.9805 23.6602 23.2383 23.5547 23.4375 23.5547C23.6367 23.5547 23.8945 23.6602 24.0234 23.7891Z" fill="#D2A226"/>
<path d="M38.4252 23.6133C36.1166 24 33.6439 25.0078 31.6166 26.3906C30.2221 27.3281 28.265 29.2852 27.3275 30.6797C25.8744 32.8008 24.9252 35.1914 24.5268 37.6641C24.2924 39.1406 24.3744 42.5039 24.6674 43.8164C25.3939 47.0859 26.9525 49.9219 29.2963 52.2656C31.6752 54.6445 34.5463 56.2031 37.8744 56.918C39.2689 57.2227 43.2299 57.2227 44.6479 56.918C47.9291 56.2148 50.8354 54.6328 53.2025 52.2656C54.6439 50.8242 55.6635 49.3828 56.5424 47.543C57.6674 45.1992 58.1244 43.0898 58.1244 40.3125C58.1244 37.5352 57.6674 35.4258 56.5424 33.082C55.6635 31.2422 54.6439 29.8008 53.2025 28.3594C50.6596 25.8164 47.4838 24.1758 44.0033 23.6133C42.7143 23.4023 39.6791 23.4023 38.4252 23.6133ZM43.8275 25.6172C45.9135 25.9922 48.1166 26.9062 49.7924 28.0898C50.8705 28.8516 52.5814 30.5508 53.3666 31.6289C55.1947 34.1836 56.1322 37.1133 56.1322 40.3125C56.1322 44.4492 54.6088 48.0469 51.6439 50.9414C50.3666 52.1836 49.3822 52.8984 47.976 53.6133C45.89 54.6797 43.6635 55.207 41.2494 55.207C38.8354 55.207 36.6088 54.6797 34.5229 53.6133C33.1166 52.8984 32.1322 52.1836 30.8549 50.9414C27.89 48.0469 26.3666 44.4492 26.3666 40.3125C26.3666 38.6016 26.5658 37.2539 27.0697 35.707C28.3822 31.6172 31.6752 28.0781 35.683 26.4727C38.2611 25.4414 41.1439 25.1367 43.8275 25.6172Z" fill="#D2A226"/>
<path d="M34.9219 28.3594C34.7227 28.5586 34.6875 28.7461 34.6875 29.7656V30.9375H33.5156C32.4961 30.9375 32.3086 30.9727 32.1094 31.1719C31.9102 31.3711 31.875 31.5586 31.875 32.5781V33.75H30.7031C29.3203 33.75 29.0625 33.8906 29.0625 34.6875C29.0625 35.4844 29.3203 35.625 30.7031 35.625H31.875V37.5V39.375H30.7031C29.3203 39.375 29.0625 39.5156 29.0625 40.3125C29.0625 41.1094 29.3203 41.25 30.7031 41.25H31.875V43.125V45H30.7031C29.3203 45 29.0625 45.1406 29.0625 45.9375C29.0625 46.7344 29.3203 46.875 30.7031 46.875H31.875V48.0469C31.875 49.0664 31.9102 49.2539 32.1094 49.4531C32.3086 49.6523 32.4961 49.6875 33.5156 49.6875H34.6875V50.8594C34.6875 52.2422 34.8281 52.5 35.625 52.5C36.4219 52.5 36.5625 52.2422 36.5625 50.8594V49.6875H38.4375H40.3125V50.8594C40.3125 52.2422 40.4531 52.5 41.25 52.5C42.0469 52.5 42.1875 52.2422 42.1875 50.8594V49.6875H44.0625H45.9375V50.8594C45.9375 52.2422 46.0781 52.5 46.875 52.5C47.6719 52.5 47.8125 52.2422 47.8125 50.8594V49.6875H48.9844C50.5781 49.6875 50.625 49.6406 50.625 48.0469V46.875H51.7969C53.1797 46.875 53.4375 46.7344 53.4375 45.9375C53.4375 45.1406 53.1797 45 51.7969 45H50.625V43.125V41.25H51.7969C53.1797 41.25 53.4375 41.1094 53.4375 40.3125C53.4375 39.5156 53.1797 39.375 51.7969 39.375H50.625V37.5V35.625H51.7969C53.1797 35.625 53.4375 35.4844 53.4375 34.6875C53.4375 33.8906 53.1797 33.75 51.7969 33.75H50.625V32.5781C50.625 31.5586 50.5898 31.3711 50.3906 31.1719C50.1914 30.9727 50.0039 30.9375 48.9844 30.9375H47.8125V29.7656C47.8125 28.3828 47.6719 28.125 46.875 28.125C46.0781 28.125 45.9375 28.3828 45.9375 29.7656V30.9375H44.0625H42.1875V29.7656C42.1875 28.3828 42.0469 28.125 41.25 28.125C40.4531 28.125 40.3125 28.3828 40.3125 29.7656V30.9375H38.4375H36.5625V29.7656C36.5625 28.3828 36.4219 28.125 35.625 28.125C35.3086 28.125 35.0742 28.207 34.9219 28.3594ZM48.75 40.3125V47.8125H41.25H33.75V40.3125V32.8125H41.25H48.75V40.3125Z" fill="#D2A226"/>
<path d="M38.7539 35.7773C38.4727 35.9766 35.625 43.5938 35.625 44.1211C35.625 44.6602 35.9648 45 36.5156 45C37.1484 45 37.3359 44.8359 37.6875 43.9453L38.0039 43.125H39.3867H40.7578L41.0742 43.9453C41.25 44.4023 41.4844 44.8242 41.6016 44.8828C41.8828 45.0352 42.4922 45.0352 42.7734 44.8828C42.9961 44.7656 43.2656 44.1445 43.1836 43.9102C42.7969 42.6445 40.207 35.9883 40.0547 35.8359C39.8086 35.5898 39.0469 35.5547 38.7539 35.7773ZM39.4922 39.668C39.4922 39.6914 39.6211 40.0664 39.7852 40.4883L40.0664 41.25H39.3867H38.6953L39 40.4297C39.1758 39.9727 39.3516 39.6094 39.3984 39.6094C39.457 39.6094 39.4922 39.6328 39.4922 39.668Z" fill="#D2A226"/>
<path d="M44.2969 35.8594C44.0742 36.082 44.0625 36.2461 44.0625 40.3125C44.0625 44.3789 44.0742 44.543 44.2969 44.7656C44.4492 44.918 44.6836 45 45 45C45.3164 45 45.5508 44.918 45.7031 44.7656C45.9258 44.543 45.9375 44.3789 45.9375 40.3125C45.9375 36.2461 45.9258 36.082 45.7031 35.8594C45.5508 35.707 45.3164 35.625 45 35.625C44.6836 35.625 44.4492 35.707 44.2969 35.8594Z" fill="#D2A226"/>
<path d="M6.79688 28.3594C6.64453 28.5117 6.5625 28.7461 6.5625 29.0625C6.5625 29.3789 6.64453 29.6133 6.79688 29.7656C7.01953 29.9883 7.18359 30 13.125 30C19.0664 30 19.2305 29.9883 19.4531 29.7656C19.6055 29.6133 19.6875 29.3789 19.6875 29.0625C19.6875 28.7461 19.6055 28.5117 19.4531 28.3594C19.2305 28.1367 19.0664 28.125 13.125 28.125C7.18359 28.125 7.01953 28.1367 6.79688 28.3594Z" fill="#D2A226"/>
<path d="M6.79688 33.0469C6.64453 33.1992 6.5625 33.4336 6.5625 33.75C6.5625 34.0664 6.64453 34.3008 6.79688 34.4531C7.01953 34.6758 7.18359 34.6875 13.125 34.6875C19.0664 34.6875 19.2305 34.6758 19.4531 34.4531C19.6055 34.3008 19.6875 34.0664 19.6875 33.75C19.6875 33.4336 19.6055 33.1992 19.4531 33.0469C19.2305 32.8242 19.0664 32.8125 13.125 32.8125C7.18359 32.8125 7.01953 32.8242 6.79688 33.0469Z" fill="#D2A226"/>
<path d="M6.79688 37.7344C6.64453 37.8867 6.5625 38.1211 6.5625 38.4375C6.5625 38.7539 6.64453 38.9883 6.79688 39.1406C7.01953 39.3633 7.18359 39.375 13.125 39.375C19.0664 39.375 19.2305 39.3633 19.4531 39.1406C19.6055 38.9883 19.6875 38.7539 19.6875 38.4375C19.6875 38.1211 19.6055 37.8867 19.4531 37.7344C19.2305 37.5117 19.0664 37.5 13.125 37.5C7.18359 37.5 7.01953 37.5117 6.79688 37.7344Z" fill="#D2A226"/>
</svg>
