<svg width="60" height="60" viewBox="0 0 60 60" fill="none" xmlns="http://www.w3.org/2000/svg">
<path d="M33.0473 2.1094C32.848 2.30862 32.8129 2.49612 32.8129 3.51565V4.68752H30.4574H28.102L27.0941 3.89065C25.184 2.39065 24.9496 2.22659 24.6332 2.22659C24.2231 2.22659 18.1527 4.19534 17.9184 4.40627C17.8129 4.50002 17.5082 5.41409 17.227 6.43362L16.7113 8.30862L15.0941 9.48049L13.477 10.6641L11.4496 10.5938L9.43399 10.5235L9.1293 10.8516C8.5668 11.4492 5.27383 16.0664 5.20352 16.336C5.16836 16.5 5.39102 17.3086 5.81289 18.4571L6.48086 20.3086L5.87149 22.1719L5.25039 24.0352L3.83243 24.9844C1.6293 26.4492 1.87539 25.8047 1.87539 30.0117V33.6211L2.25039 33.9258C2.46133 34.0899 3.23477 34.6289 3.97305 35.1328L5.29727 36.0352L5.89493 37.8633L6.48086 39.7031L5.81289 41.543C5.39102 42.7031 5.16836 43.5 5.20352 43.6641C5.27383 43.9219 9.04727 49.1953 9.30508 49.3711C9.37539 49.4297 10.3481 49.4414 11.4496 49.4063L13.477 49.336L15.0824 50.5196L16.6996 51.6914L17.1918 53.4492C17.4613 54.4219 17.7543 55.336 17.8481 55.4766C17.977 55.6758 18.7387 55.9688 21.1762 56.7539C22.9106 57.3164 24.4691 57.7735 24.6332 57.7735C24.9496 57.7735 25.1957 57.6094 27.0941 56.1094L28.102 55.3125H30.4574H32.8129V56.4844C32.8129 58.2891 32.2738 58.125 38.4379 58.125C43.4418 58.125 43.6059 58.1133 43.8285 57.8906C44.0512 57.668 44.0629 57.5039 44.0629 55.0781V52.5H47.1098C50.0043 52.5 50.1684 52.4883 50.391 52.2656C50.6137 52.043 50.6254 51.8789 50.6254 47.5781V43.125H52.266C54.5512 43.125 54.3754 43.4297 54.3754 39.6094V36.5625H56.016C57.5043 36.5625 57.6801 36.5391 57.891 36.3281C58.1137 36.1055 58.1254 35.9414 58.1254 30C58.1254 24.0586 58.1137 23.8946 57.891 23.6719C57.6801 23.461 57.5043 23.4375 56.016 23.4375H54.3754V20.8594C54.3754 17.5781 54.5395 17.8125 52.266 17.8125H50.6254V14.2969C50.6254 10.9336 50.6137 10.7696 50.391 10.5469C50.1684 10.3242 50.0043 10.3125 47.1098 10.3125H44.0629V6.32815C44.0629 2.49612 44.0512 2.33205 43.8285 2.1094C43.6059 1.88674 43.4418 1.87502 38.4379 1.87502C33.434 1.87502 33.2699 1.88674 33.0473 2.1094ZM42.1879 9.37502V15H40.5473C39.059 15 38.8832 15.0235 38.6723 15.2344C38.4496 15.4571 38.4379 15.6211 38.4379 18.9844V22.5H35.8598C33.434 22.5 33.2699 22.5117 33.0473 22.7344C32.8246 22.9571 32.8129 23.1211 32.8129 26.0156V29.0625H33.7504H34.6879V26.7188V24.375H36.5629H38.4379V26.0156C38.4379 27.5039 38.4613 27.6797 38.6723 27.8906C38.8949 28.1133 39.059 28.125 43.3598 28.125H47.8129V27.1875V26.25H44.0629H40.3129V21.5625V16.875H41.9535C44.1918 16.875 44.0629 17.0274 44.0629 14.2969V12.1875H46.4066H48.7504V15V17.8125H47.5785C45.891 17.8125 45.9379 17.7305 45.9379 20.3906V22.5H46.8754H47.8129V21.0938V19.6875H50.1566H52.5004V22.2656C52.5004 25.5469 52.3363 25.3125 54.6098 25.3125H56.2504V30V34.6875H53.4379H50.6254V32.8125V30.9375H52.0316H53.4379V30V29.0625H51.3285C49.3715 29.0625 49.2074 29.0742 48.9848 29.2969C48.7621 29.5196 48.7504 29.6836 48.7504 32.8125C48.7504 36.9024 48.5629 36.5625 50.8598 36.5625H52.5004V38.9063V41.25H50.8598C49.3715 41.25 49.1957 41.2735 48.9848 41.4844C48.7621 41.7071 48.7504 41.8711 48.7504 46.1719V50.625H46.4066H44.0629V49.6875V48.75H45.0004H45.9379V47.8125V46.875H44.2973C42.809 46.875 42.6332 46.8985 42.4223 47.1094C42.1996 47.3321 42.1879 47.4961 42.1879 51.7969V56.25H38.4379H34.6879V51.5625V46.875H36.5629H38.4379V48.2813V49.6875H39.3754H40.3129V47.5781C40.3129 45.6211 40.3012 45.4571 40.0785 45.2344C39.8559 45.0117 39.6918 45 36.5629 45C33.434 45 33.2699 45.0117 33.0473 45.2344C32.8246 45.4571 32.8129 45.6211 32.8129 49.4531V53.4375H31.8754H30.9379V44.0625V34.6875H33.2816H35.6254V37.7344C35.6254 40.6289 35.6371 40.793 35.8598 41.0156C36.0824 41.2383 36.2465 41.25 41.2504 41.25C46.2543 41.25 46.4184 41.2383 46.641 41.0156C46.8637 40.793 46.8754 40.6289 46.8754 36.0938C46.8754 31.5586 46.8637 31.3946 46.641 31.1719C46.4184 30.9492 46.2543 30.9375 44.2973 30.9375H42.1879V31.875V32.8125H43.5941H45.0004V36.0938V39.375H41.2504H37.5004V36.3281C37.5004 33.4336 37.4887 33.2696 37.266 33.0469C37.0434 32.8242 36.8793 32.8125 33.9848 32.8125H30.9379V19.6875V6.56252H31.8754H32.8129V9.14065C32.8129 11.5664 32.8246 11.7305 33.0473 11.9531C33.2699 12.1758 33.434 12.1875 36.5629 12.1875C39.6918 12.1875 39.8559 12.1758 40.0785 11.9531C40.3012 11.7305 40.3129 11.5664 40.3129 9.14065V6.56252H39.3754H38.4379V8.43752V10.3125H36.5629H34.6879V7.03127V3.75002H38.4379H42.1879V9.37502ZM25.6996 5.37893C26.4262 5.94143 27.1293 6.46877 27.2699 6.5508C27.4105 6.62112 27.8676 6.67971 28.2895 6.67971H29.0629V8.47268V10.2656L27.7738 10.4063C24.434 10.7813 21.2113 12.0235 18.3402 14.0508C17.0746 14.9414 14.8832 17.1446 13.9106 18.5156C12.9731 19.8399 11.7426 22.2539 11.2504 23.7539C9.94961 27.7031 9.94961 32.2969 11.2504 36.2461C11.7426 37.7461 12.9731 40.1602 13.9106 41.4844C14.8832 42.8555 17.0746 45.0586 18.3402 45.9492C21.2113 47.9766 24.434 49.2188 27.7738 49.5938L29.0629 49.7344V51.5274V53.3203H28.2895C27.8676 53.3203 27.4105 53.3789 27.2699 53.4492C27.1293 53.5313 26.4262 54.0586 25.6996 54.6328L24.3871 55.6758L21.9496 54.8906C20.6137 54.4688 19.5004 54.1055 19.477 54.0821C19.4652 54.0703 19.2426 53.3086 18.9848 52.3828C18.727 51.4571 18.4574 50.6133 18.3754 50.4961C18.2934 50.3789 17.2973 49.6172 16.1723 48.7969L14.1215 47.3203L12.2465 47.4024L10.3715 47.4844L8.87149 45.4336C8.05118 44.2969 7.38321 43.3125 7.38321 43.2305C7.38321 43.1485 7.65274 42.375 7.96914 41.5196C8.29727 40.6641 8.55508 39.8672 8.55508 39.7617C8.55508 39.6563 8.21524 38.4961 7.79336 37.1953C7.27774 35.5781 6.93789 34.7227 6.76211 34.5586C6.62149 34.4297 5.90664 33.9375 5.1918 33.4805L3.86758 32.6367V30V27.3633L5.39102 26.3672C7.14883 25.2305 6.91446 25.6055 7.98086 22.2188L8.60196 20.2383L8.21524 19.1719C8.0043 18.586 7.72305 17.7774 7.58243 17.3906L7.34805 16.6758L8.85977 14.5899L10.3715 12.5156L12.2465 12.5977L14.1215 12.6797L16.1723 11.2031C17.2973 10.3828 18.2934 9.62112 18.3754 9.50393C18.4574 9.38674 18.727 8.54299 18.9848 7.61721C19.2426 6.69143 19.4652 5.92971 19.477 5.91799C19.5238 5.88284 24.1762 4.3594 24.2934 4.34768C24.3402 4.33596 24.9731 4.80471 25.6996 5.37893ZM29.0629 18.3399V24.3633L28.5707 24.5039C27.2465 24.8555 25.934 25.8047 25.2191 26.9297C24.0707 28.711 24.0707 31.2891 25.2191 33.0703C25.934 34.1953 27.2465 35.1446 28.5707 35.4961L29.0629 35.6367V41.6602V47.6953H28.723C27.9965 47.6953 25.6645 47.2266 24.4809 46.8399C18.5043 44.8828 13.9926 39.8789 12.6566 33.7617C11.3676 27.8672 13.1723 21.7617 17.4731 17.4727C19.9809 14.9531 23.4145 13.1602 26.9184 12.5508C27.6098 12.4219 28.3832 12.3164 28.6293 12.3164L29.0629 12.3047V18.3399ZM29.0629 30.0117V33.5274L28.8051 33.4453C27.9379 33.1875 27.0824 32.4024 26.6488 31.4883C26.4379 31.0196 26.3676 30.6797 26.3676 30C26.3676 28.9336 26.684 28.1602 27.4223 27.4219C27.8441 27 28.6879 26.4961 28.9809 26.4844C29.0277 26.4844 29.0629 28.0664 29.0629 30.0117Z" fill="#D2A226"/>
</svg>
