<svg width="61" height="60" viewBox="0 0 61 60" fill="none" xmlns="http://www.w3.org/2000/svg">
<g clip-path="url(#clip0_477_3618)">
<path d="M10.4512 0.0703125C7.65039 0.65625 5.93945 1.52344 4.14648 3.26953C2.64648 4.72266 1.55664 6.5625 0.947266 8.67188C0.736328 9.38672 0.724609 10.1133 0.689453 21.8672L0.654297 34.2891L0.900391 34.5117C1.2168 34.793 1.87305 34.8047 2.18945 34.5117C2.42383 34.3008 2.42383 34.2305 2.42383 24.2344V14.1797H23.7402H45.0449L45.3613 13.9336C45.748 13.6289 45.7949 12.9023 45.4316 12.5391C45.1973 12.3047 45.0449 12.3047 38.7871 12.3047C31.6738 12.3047 31.4043 12.2812 29.9043 11.5547C28.2168 10.7461 26.9512 9.50391 26.1895 7.88672C25.6035 6.65625 25.498 6.07031 25.4277 3.83203L25.3574 1.74609L37.8848 1.78125C50.377 1.82812 50.4121 1.82812 51.3496 2.08594C55.6621 3.26953 58.5332 6.77344 58.8379 11.2148L58.9082 12.3047H53.6934C48.6309 12.3047 48.4668 12.3164 48.2441 12.5391C48.0918 12.6914 48.0098 12.9258 48.0098 13.207C48.0098 14.1914 47.916 14.1797 53.8105 14.1797H58.9199L58.8848 31.957L58.8496 49.7461L58.5801 50.6836C58.0645 52.5469 57.127 54.1406 55.8379 55.3828C54.5723 56.6016 53.1309 57.4219 51.3496 57.9141C50.4238 58.1602 50.2598 58.1719 41.7168 58.2188L33.0332 58.2539L32.6699 57.5742C31.873 56.0742 30.3496 54.3984 28.9551 53.4727L28.3223 53.0508L29.002 52.5938C30.5488 51.5156 32.1309 49.6641 32.9863 47.9062L33.4785 46.9102L34.0527 46.8398C35.4238 46.6758 36.959 45.4453 37.4512 44.1211C37.5918 43.7578 37.6973 43.418 37.6973 43.3594C37.6973 43.2891 40.0879 43.2422 44.1191 43.2422C49.6504 43.2422 50.6348 43.2188 51.1855 43.0547C53.1309 42.4805 54.6895 40.875 55.2168 38.8945C55.4746 37.9336 55.4746 22.9688 55.2168 21.9961C54.7246 20.1211 53.3535 18.6211 51.4551 17.9062L50.7637 17.6367H39.0449H27.3262L26.6348 17.9062C24.7598 18.6094 23.3535 20.1328 22.873 21.9727C22.7324 22.5234 22.6973 23.4258 22.6973 26.3672V30.0586L21.4902 30.082C18.4668 30.1406 15.6426 31.2773 13.4629 33.3398C12.2207 34.5117 11.4941 35.4609 10.7793 36.8555L10.2285 37.9453L9.52539 38.0859C7.20508 38.543 5.81055 40.3945 5.97461 42.7852C6.11523 44.9062 7.66211 46.5938 9.66602 46.8398L10.2402 46.8984L10.5566 47.6367C11.2949 49.3242 12.7715 51.1641 14.377 52.3711L15.291 53.0625L14.6348 53.5078C13.6387 54.1875 12.2793 55.6055 11.5879 56.6602C10.5566 58.2422 10.7793 58.1016 9.85352 57.8555C8.17773 57.4219 6.50195 56.4375 5.2832 55.1719C4.05273 53.9062 3.24414 52.4531 2.76367 50.6836C2.51758 49.793 2.50586 49.4531 2.44727 43.6172C2.40039 37.7695 2.38867 37.4648 2.17773 37.2539C1.87305 36.9492 1.20508 36.9609 0.900391 37.2656C0.677734 37.4883 0.666016 37.6523 0.666016 43.6992C0.666016 50.4844 0.677734 50.6016 1.36914 52.5234C2.06055 54.4453 3.63086 56.5195 5.40039 57.8438C6.33789 58.5586 8.23633 59.4609 9.38477 59.7656C10.3105 60 10.5449 60 30.3848 60C47.2012 60 50.5879 59.9766 51.3145 59.8359C52.5684 59.5898 54.0566 59.0156 55.1699 58.3359C56.4824 57.5391 58.2988 55.7109 59.0605 54.4219C59.7285 53.2852 60.3613 51.5859 60.5371 50.3906C60.6426 49.7344 60.666 44.3086 60.6426 29.4727C60.6074 10.2539 60.5957 9.39844 60.3848 8.67188C59.1895 4.54688 56.1777 1.5 52.123 0.316406L51.2324 0.0585938L30.959 0.046875C19.8027 0.0351562 10.5801 0.046875 10.4512 0.0703125ZM23.5527 3.94922C23.5996 5.69531 23.6582 6.33984 23.8574 7.07812C24.3379 8.82422 25.334 10.4531 26.6582 11.6836L27.3262 12.3047H14.8809H2.42383L2.49414 11.2148C2.59961 9.69141 2.91602 8.56641 3.60742 7.17188C5.07227 4.24219 8.07227 2.19141 11.3184 1.875C11.8105 1.82812 14.752 1.78125 17.8457 1.76953L23.4824 1.75781L23.5527 3.94922ZM51.0801 19.8281C51.9707 20.2383 52.7441 20.9766 53.1309 21.7852L53.459 22.4414V30.4688V38.4961L53.1777 39.0234C52.7207 39.9141 52.1699 40.4883 51.3848 40.9102L50.6465 41.3086L44.1191 41.3438C38.248 41.3672 37.5801 41.3555 37.5801 41.1914C37.5801 40.8867 37.0059 39.8672 36.5723 39.375C36.0684 38.8125 34.7559 38.1445 33.9824 38.0273C33.4082 37.957 33.4082 37.9453 33.0801 37.207C31.7676 34.207 28.873 31.6523 25.5918 30.6445L24.5605 30.3164L24.5957 26.3789C24.6309 22.4766 24.6309 22.4414 24.9121 21.8555C25.4629 20.7539 26.4473 19.9336 27.6074 19.6172C28.0176 19.5 30.7129 19.4766 39.2793 19.4883L50.4121 19.5117L51.0801 19.8281ZM23.9863 32.168C25.9668 32.5664 27.8652 33.6211 29.3652 35.1328L30.2559 36.0352L29.8457 36.0703C28.9082 36.1641 27.6543 35.707 26.6348 34.9102C26.3066 34.6406 25.9316 34.4531 25.7676 34.4531C25.6035 34.4531 25.0996 34.6992 24.666 34.9922C21.7832 36.9258 17.7637 37.582 14.0605 36.7148C13.5918 36.6094 13.2051 36.4805 13.2051 36.4336C13.2051 36.2461 15.0449 34.4062 15.7129 33.9258C18.1855 32.1797 21.0684 31.5703 23.9863 32.168ZM26.2949 37.0195C27.3262 37.6523 28.2285 37.8867 29.8809 37.9453L31.3691 37.9922L31.6152 38.543C32.2363 39.9492 32.5059 41.9062 32.3066 43.5C31.7676 47.8359 28.7676 51.3984 24.6191 52.6289C23.5645 52.9453 21.4785 53.0508 20.2832 52.8516C16.0645 52.1719 12.7363 49.1367 11.6113 44.9414C11.3652 43.9805 11.2715 41.9648 11.4355 40.9102C11.5059 40.4414 11.7051 39.6328 11.8809 39.1172C12.1504 38.2852 12.209 38.1914 12.4316 38.2617C16.6504 39.4922 21.6777 39.0117 24.9121 37.0781C25.2754 36.8672 25.6035 36.6914 25.6504 36.6797C25.6973 36.6797 25.9902 36.832 26.2949 37.0195ZM9.54883 40.7227C9.43164 41.4727 9.47852 44.332 9.63086 44.6719C9.77148 45.0117 9.41992 44.9297 8.85742 44.4961C7.5918 43.5352 7.46289 41.8359 8.55273 40.6758C8.85742 40.3594 9.57227 39.9141 9.64258 39.9961C9.6543 40.0078 9.61914 40.3359 9.54883 40.7227ZM35.3066 40.8398C36.0918 41.8828 36.0215 43.2539 35.1309 44.2148C34.8145 44.5664 34.2051 44.9414 34.1113 44.8477C34.0762 44.8125 34.1113 44.2734 34.1699 43.6406C34.2402 42.9023 34.252 42.082 34.1816 41.3672C34.123 40.7578 34.0645 40.1836 34.0645 40.1016C34.0645 39.8555 34.9551 40.3828 35.3066 40.8398ZM18.6543 54.4453C20.7754 54.9844 23.3418 54.9492 25.3809 54.3516L26.248 54.0938L26.9043 54.4453C27.7832 54.9023 29.0957 55.957 29.7402 56.7305C30.3145 57.4102 30.7832 58.0664 30.7832 58.1719C30.7832 58.207 26.752 58.2422 21.8184 58.2422C12.9824 58.2422 12.8418 58.2422 12.9707 58.0195C13.2402 57.5039 14.3184 56.2734 14.998 55.6875C15.7246 55.0664 17.1426 54.1406 17.3652 54.1406C17.4355 54.1406 18.0098 54.2812 18.6543 54.4453Z" fill="#D2A226"/>
<path d="M9.46613 4.51172C8.02472 4.96875 7.28644 6.75 7.94269 8.20313C8.2591 8.90625 8.47003 9.12891 9.16144 9.44531C9.74738 9.72656 9.77082 9.72656 14.2591 9.72656C17.0833 9.72656 18.9349 9.67969 19.2161 9.59766C19.4622 9.52734 19.8724 9.29297 20.1185 9.07031C20.7396 8.50781 20.9739 7.83984 20.9153 6.82031C20.8685 5.82422 20.5052 5.20313 19.6849 4.72266L19.1224 4.39453L14.5521 4.37109C10.9193 4.34766 9.87628 4.38281 9.46613 4.51172ZM18.6419 6.33984C19.1927 6.59766 19.2513 7.45313 18.7239 7.72266C18.5716 7.80469 17.0364 7.85156 14.2708 7.85156C10.1927 7.85156 10.0286 7.83984 9.80597 7.61719C9.46613 7.27734 9.50128 6.75 9.87628 6.45703C10.181 6.22266 10.3216 6.21094 14.2708 6.21094C17.0716 6.21094 18.4427 6.25781 18.6419 6.33984Z" fill="#D2A226"/>
<path d="M40.7326 22.3008C40.4514 22.4531 40.0647 22.8047 39.8654 23.0742C39.5139 23.5664 39.5139 23.5781 39.4787 25.4414L39.4436 27.3047H38.1897C36.7365 27.3047 36.2209 27.4805 35.6233 28.1602C35.1076 28.7461 35.0022 29.2266 35.0022 31.0078V32.5547L34.3459 32.6016C33.6076 32.6602 33.385 32.8359 33.2795 33.4219C33.2326 33.7734 33.2678 33.9023 33.5139 34.1484L33.8186 34.4531H42.5373C51.1858 34.4531 51.2678 34.4531 51.5725 34.207C51.9826 33.8789 51.9944 33.2695 51.5842 32.8711C51.3615 32.6367 51.1858 32.5781 50.7053 32.5781H50.1194V29.5547C50.1194 26.8945 50.0842 26.4844 49.8967 26.0742C49.4045 24.9844 48.3733 24.5273 46.6272 24.6328L45.6897 24.6914L45.6428 24.0586C45.5725 23.2969 45.1389 22.6875 44.3772 22.2891C43.9319 22.0664 43.674 22.0312 42.549 22.0312C41.4123 22.0312 41.1897 22.0664 40.7326 22.3008ZM43.6506 24.0469C43.7561 24.1523 43.7912 25.2773 43.7912 28.3828V32.5781H42.5608H41.3303V28.3828C41.3303 25.2773 41.3654 24.1523 41.4709 24.0469C41.6584 23.8594 43.4631 23.8594 43.6506 24.0469ZM47.9865 26.6719C48.2444 26.8477 48.2444 26.8828 48.2444 29.7188V32.5781H46.9553H45.6662V29.8711C45.6662 27.2227 45.7131 26.8008 46.0647 26.5781C46.3108 26.4141 47.717 26.4727 47.9865 26.6719ZM39.2444 29.3789C39.4319 29.543 39.4553 29.7656 39.4553 31.0781V32.5781H38.1662H36.8772V31.0898C36.8772 29.2148 36.9006 29.1797 38.1428 29.1797C38.799 29.1797 39.0803 29.2266 39.2444 29.3789Z" fill="#D2A226"/>
<path d="M14.1537 40.8866C13.8491 41.1913 13.7436 41.8007 13.8256 42.6913C13.8842 43.2773 13.9428 43.4648 14.2006 43.6757C14.5873 44.0155 14.9506 44.0155 15.3608 43.6991C15.6537 43.4648 15.6655 43.4179 15.6655 42.2929C15.6655 41.2851 15.6303 41.0976 15.4311 40.8984C15.1264 40.5937 14.4584 40.582 14.1537 40.8866Z" fill="#D2A226"/>
<path d="M28.2168 40.9688C28.0059 41.2266 27.9707 41.4492 27.9707 42.3047C27.9707 43.582 28.1465 43.8867 28.9082 43.8867C29.6699 43.8867 29.8457 43.582 29.8457 42.3047C29.8457 41.0391 29.6348 40.6641 28.9082 40.6641C28.5566 40.6641 28.4043 40.7344 28.2168 40.9688Z" fill="#D2A226"/>
<path d="M19.5801 42.0703C19.252 42.1992 18.9473 42.6328 18.9473 42.9727C18.9473 43.3477 19.5918 44.0273 20.2832 44.3906C20.7871 44.6484 21.0332 44.707 21.8184 44.707C22.9082 44.707 23.5527 44.4609 24.2559 43.8047C24.9121 43.1719 24.8418 42.3516 24.1035 42.082C23.6816 41.9414 23.4824 42 22.9199 42.4453C22.1934 43.0312 21.4434 42.9844 20.5879 42.3164C20.2129 42.0234 19.8848 41.9414 19.5801 42.0703Z" fill="#D2A226"/>
<path d="M33.4783 4.44141C32.6111 4.71094 32.1072 5.15625 31.7322 5.97656C30.9353 7.73438 32.2361 9.71484 34.1931 9.72656C36.0212 9.72656 37.2517 8.05078 36.7595 6.21094C36.4197 4.94531 34.7673 4.05469 33.4783 4.44141ZM34.7087 6.50391C35.072 6.85547 35.0837 7.23047 34.7439 7.58203C34.4041 7.94531 33.9119 7.93359 33.6072 7.54688C33.2908 7.13672 33.3025 6.85547 33.6541 6.50391C34.0173 6.12891 34.3455 6.12891 34.7087 6.50391Z" fill="#D2A226"/>
<path d="M41.4464 4.44143C40.5441 4.7344 39.8175 5.39065 39.5714 6.15237C39.337 6.85549 39.4659 7.86331 39.8761 8.50784C40.5792 9.65628 42.1378 10.0664 43.4034 9.43362C45.2902 8.4844 45.2902 5.63674 43.3917 4.66409C42.8878 4.40628 41.8917 4.28909 41.4464 4.44143ZM42.6769 6.50393C43.0284 6.85549 43.0402 7.13674 42.7237 7.5469C42.2784 8.1094 41.3292 7.80471 41.3292 7.08987C41.3292 6.72659 41.8097 6.21096 42.1495 6.21096C42.2902 6.21096 42.5245 6.33987 42.6769 6.50393Z" fill="#D2A226"/>
<path d="M49.2278 4.49998C48.5246 4.72264 48.0442 5.13279 47.716 5.78904C47.1418 6.92576 47.4114 8.36717 48.3137 9.12889C49.3332 9.96092 50.9856 9.92576 51.9114 9.04686C53.3996 7.6406 52.8489 5.08592 50.9504 4.52342C50.2004 4.30076 49.8723 4.30076 49.2278 4.49998ZM50.6692 6.48045C50.7395 6.56248 50.845 6.7617 50.8801 6.93748C50.9387 7.18357 50.8918 7.3242 50.6575 7.54685C50.1184 8.09764 49.2981 7.79295 49.2981 7.04295C49.2981 6.37498 50.1887 6.0117 50.6692 6.48045Z" fill="#D2A226"/>
</g>
<defs>
<clipPath id="clip0_477_3618">
<rect width="60" height="60" fill="white" transform="translate(0.666016)"/>
</clipPath>
</defs>
</svg>
