<svg width="60" height="60" viewBox="0 0 60 60" fill="none" xmlns="http://www.w3.org/2000/svg">
<path d="M23.9552 2.05564C22.8973 2.23572 21.9631 2.91102 21.4341 3.8677C21.0514 4.57677 20.9164 5.89361 21.1527 6.72649C21.4341 7.71693 22.5709 8.90997 23.415 9.09005L23.7414 9.16884V11.1835C23.7414 12.2977 23.7864 13.2994 23.8427 13.4007C23.899 13.502 25.1145 14.1773 26.5439 14.8864L29.1438 16.1807V25.3198V34.4702H30.0442H30.9446V27.5709V20.6828L33.5446 19.3884C34.9739 18.6794 36.1895 18.0041 36.2458 17.9028C36.302 17.8015 36.3471 16.5972 36.3471 15.2353V12.7705L36.6735 12.6917C37.5176 12.5116 38.6544 11.3186 38.9357 10.3281C39.1721 9.49523 39.037 8.17839 38.6544 7.46932C37.5514 5.44341 34.7263 4.98195 32.9593 6.53515C32.2952 7.12042 31.9238 7.93078 31.8676 8.94374C31.8 10.0017 31.9688 10.6545 32.4641 11.3523C32.8805 11.9376 33.7359 12.5904 34.2199 12.6917L34.5463 12.7705V14.7513V16.7435L32.8017 17.6214C31.845 18.0941 31.0347 18.488 31.0009 18.488C30.9671 18.488 30.9446 17.7452 30.9446 16.8448C30.9446 15.9444 30.8996 15.1228 30.8433 15.0215C30.7871 14.9202 29.5715 14.2449 28.1421 13.5358L25.5422 12.2415V10.6995V9.16884L25.8686 9.09005C26.7127 8.90997 27.8495 7.71693 28.1309 6.72649C28.3672 5.89361 28.2322 4.57677 27.8495 3.8677C27.1067 2.5171 25.5535 1.78552 23.9552 2.05564ZM25.5197 4.1941C26.9829 5.08325 26.3526 7.34552 24.6418 7.34552C23.6851 7.34552 22.9535 6.61394 22.9535 5.65726C22.9535 5.04948 23.2574 4.50924 23.7639 4.1941C23.989 4.05904 24.3379 3.969 24.6418 3.969C24.9457 3.969 25.2946 4.05904 25.5197 4.1941ZM36.3246 7.79572C37.7877 8.68487 37.1574 10.9471 35.4467 10.9471C34.49 10.9471 33.7584 10.2156 33.7584 9.25888C33.7584 8.3022 34.49 7.57062 35.4467 7.57062C35.7505 7.57062 36.0995 7.66066 36.3246 7.79572Z" fill="#D2A226"/>
<path d="M14.0508 9.25891C12.9928 9.43899 12.0586 10.1143 11.5297 11.071C11.147 11.78 11.0119 13.0969 11.2483 13.9298C11.5297 14.9202 12.6664 16.1132 13.5106 16.2933L13.8369 16.3721V17.9366C13.8369 18.8032 13.882 19.6023 13.9382 19.7036C13.9945 19.8049 16.0204 20.8854 18.4403 22.0897L22.841 24.2844V28.4713V32.6694H23.7414H24.6418V27.9873C24.6418 25.3649 24.5968 23.2264 24.5405 23.1251C24.4842 23.0238 22.4583 21.9434 20.0385 20.7391L15.6378 18.5443V17.4526V16.3721L15.9642 16.2933C16.8083 16.1132 17.945 14.9202 18.2264 13.9298C18.4628 13.0969 18.3277 11.78 17.945 11.071C17.2022 9.72037 15.649 8.98879 14.0508 9.25891ZM15.6152 11.3974C17.0784 12.2865 16.4481 14.5488 14.7374 14.5488C14.4335 14.5488 14.0846 14.4587 13.8595 14.3237C12.3963 13.4345 13.0266 11.1723 14.7374 11.1723C15.0412 11.1723 15.3901 11.2623 15.6152 11.3974Z" fill="#D2A226"/>
<path d="M44.6645 11.9601C43.6066 12.1402 42.6724 12.8155 42.1434 13.7722C41.7607 14.4813 41.6257 15.7981 41.862 16.631C42.1434 17.6214 43.2802 18.8145 44.1243 18.9945L44.4507 19.0733V20.1538V21.2455L40.05 23.4403C37.6301 24.6446 35.6042 25.7251 35.5479 25.8264C35.4917 25.9277 35.4466 27.5146 35.4466 29.3379V32.6694H36.347H37.2474V29.8219V26.9856L41.6482 24.7909C44.068 23.5866 46.0939 22.5061 46.1502 22.4048C46.2065 22.3035 46.2515 21.5044 46.2515 20.6378V19.0733L46.5779 18.9945C47.422 18.8145 48.5588 17.6214 48.8402 16.631C49.0765 15.7981 48.9415 14.4813 48.5588 13.7722C47.816 12.4216 46.2628 11.69 44.6645 11.9601ZM46.229 14.0986C47.6921 14.9877 47.0619 17.25 45.3511 17.25C44.3944 17.25 43.6628 16.5184 43.6628 15.5617C43.6628 14.6051 44.3944 13.8735 45.3511 13.8735C45.655 13.8735 46.0039 13.9635 46.229 14.0986Z" fill="#D2A226"/>
<path d="M11.7547 34.6278C9.77385 35.0892 8.16437 35.9671 6.79125 37.329C5.64324 38.4883 4.87789 39.7488 4.31514 41.4484C4.01126 42.3488 4 42.5176 4 44.3747C4 46.2318 4.01126 46.4006 4.31514 47.301C5.41814 50.5987 7.61287 52.7935 10.9106 53.8964C11.811 54.2003 11.9798 54.2116 13.8369 54.2116C15.7728 54.2228 15.8178 54.2116 16.8758 53.8514C18.1589 53.4012 19.1043 52.8947 20.0497 52.1294L20.7475 51.5666L21.0514 52.242C21.9181 54.1441 23.6401 55.9111 25.5985 56.8903C26.8253 57.5206 27.9733 57.7907 29.5602 57.8582C31.1472 57.9145 31.9238 57.8132 33.1956 57.408C35.7055 56.6089 37.9678 54.6055 39.0145 52.2757C39.1721 51.9268 39.3184 51.6117 39.3409 51.5892C39.3634 51.5666 39.611 51.758 39.8924 52.0056C41.6482 53.5475 44.1243 54.3692 46.7017 54.2454C48.2211 54.1778 49.1215 53.964 50.3821 53.3787C51.5526 52.8385 52.1942 52.3883 53.1621 51.4766C54.4339 50.2611 55.4244 48.5503 55.8858 46.7945C56.2122 45.5677 56.1897 42.934 55.8408 41.7297C54.7603 37.993 51.8002 35.3031 47.9623 34.5715C46.9381 34.3802 44.4845 34.504 43.494 34.7966C40.8941 35.562 38.6318 37.419 37.4275 39.7601L36.9436 40.728L36.1782 40.1203C35.1653 39.3324 33.6121 38.5896 32.3515 38.2857C31.4736 38.0831 31.1134 38.0606 29.7066 38.1056C28.7161 38.1394 27.8157 38.2407 27.3993 38.3532C26.4088 38.6233 24.8106 39.4337 23.9215 40.1203L23.1449 40.7168L22.6496 39.7601C21.693 37.903 20.2523 36.4736 18.3952 35.5394C16.8083 34.7403 16.0879 34.5603 14.1183 34.5152C12.9478 34.4927 12.2274 34.5265 11.7547 34.6278ZM16.3243 36.7437C17.5961 37.1939 18.519 37.7792 19.532 38.8034C20.2523 39.5237 20.5449 39.9289 20.9614 40.7505C21.7155 42.2587 21.7155 42.3488 21.1077 43.5981C20.3986 45.0612 20.1285 46.2655 20.1285 47.9988V49.3832L19.2619 50.2273L18.3952 51.0602L18.3389 48.8204C18.2714 46.3105 18.2489 46.1867 17.4611 45.4777C17.2134 45.2526 16.842 45.0162 16.6169 44.9487L16.2117 44.8136L16.5719 44.2396C16.887 43.7444 16.9433 43.5418 16.9771 42.7764C17.0221 41.6847 16.8083 41.0544 16.178 40.3679C14.6248 38.6796 11.676 39.2424 10.8543 41.3696C10.5392 42.2024 10.6517 43.5193 11.1132 44.2509L11.4621 44.8136L11.0569 44.9487C10.8318 45.0162 10.4604 45.2526 10.2128 45.4777C9.42494 46.1867 9.40243 46.3105 9.3349 48.8204L9.27862 51.0714L8.26567 50.0585C6.59992 48.404 5.84583 46.6257 5.84583 44.3747C5.84583 41.3471 7.54534 38.5783 10.2466 37.2164C11.5071 36.5637 12.3963 36.3836 14.0057 36.4173C15.2438 36.4511 15.604 36.4961 16.3243 36.7437ZM48.2662 36.6087C53.2972 38.0043 55.7057 43.4968 53.3197 48.1226C52.9595 48.8317 52.6106 49.2819 51.8228 50.0585L50.8098 51.0714L50.7535 48.8204C50.686 46.3105 50.6635 46.1867 49.8756 45.4777C49.628 45.2526 49.2566 45.0162 49.0315 44.9487L48.6263 44.8136L48.9865 44.2396C49.3016 43.7444 49.3579 43.5418 49.3917 42.7764C49.4367 41.6847 49.2228 41.0544 48.5925 40.3679C47.0394 38.6796 44.0905 39.2424 43.2689 41.3696C42.9538 42.2024 43.0663 43.5193 43.5278 44.2509L43.8767 44.8136L43.4715 44.9487C43.2464 45.0162 42.875 45.2526 42.6274 45.4777C41.8508 46.1867 41.817 46.3105 41.7495 48.8092L41.6932 51.0489L40.8266 50.2273L39.9487 49.4169V47.9988C39.9487 46.2205 39.6898 45.0725 38.9807 43.5981C38.373 42.3488 38.373 42.2587 39.127 40.7505C39.5547 39.8952 39.8249 39.5237 40.6127 38.7471C41.6932 37.6667 42.6949 37.0701 44.113 36.6424C45.2723 36.3048 47.0956 36.2823 48.2662 36.6087ZM32.0589 40.2103C37.0899 41.6059 39.4985 47.0984 37.1124 51.7242C36.7522 52.4333 36.4033 52.8835 35.6155 53.6601L34.6025 54.673L34.5462 52.422C34.4787 49.9122 34.4562 49.7884 33.6683 49.0793C33.4207 48.8542 33.0493 48.6178 32.8242 48.5503L32.419 48.4152L32.7792 47.8412C33.0943 47.346 33.1506 47.1434 33.1844 46.3781C33.2294 45.2863 33.0155 44.656 32.3853 43.9695C30.8321 42.2812 27.8832 42.844 27.0616 44.9712C26.7465 45.8041 26.859 47.1209 27.3205 47.8525L27.6694 48.4152L27.2642 48.5503C27.0391 48.6178 26.6677 48.8542 26.4201 49.0793C25.6322 49.7884 25.6097 49.9122 25.5422 52.422L25.4859 54.673L24.473 53.6601C22.8072 52.0056 22.0531 50.2273 22.0531 47.9763C22.0531 44.3634 24.3717 41.302 27.9057 40.2553C29.065 39.9064 30.8883 39.8839 32.0589 40.2103ZM14.6923 41.7185C15.0074 42.0336 15.075 42.1912 15.075 42.5739C15.075 42.9565 15.0074 43.1141 14.6923 43.4292C14.3772 43.7444 14.2196 43.8119 13.8369 43.8119C13.4543 43.8119 13.2967 43.7444 12.9815 43.4292C12.1599 42.6076 12.6889 41.3471 13.8819 41.3358C14.2196 41.3358 14.3884 41.4146 14.6923 41.7185ZM47.1069 41.7185C47.422 42.0336 47.4896 42.1912 47.4896 42.5739C47.4896 42.9565 47.422 43.1141 47.1069 43.4292C46.7917 43.7444 46.6342 43.8119 46.2515 43.8119C45.8688 43.8119 45.7113 43.7444 45.3961 43.4292C44.5745 42.6076 45.1035 41.3471 46.2965 41.3358C46.6342 41.3358 46.803 41.4146 47.1069 41.7185ZM30.8996 45.3201C31.2147 45.6352 31.2823 45.7928 31.2823 46.1755C31.2823 46.5581 31.2147 46.7157 30.8996 47.0309C30.5845 47.346 30.4269 47.4135 30.0442 47.4135C29.6615 47.4135 29.504 47.346 29.1888 47.0309C28.3672 46.2092 28.8962 44.9487 30.0892 44.9374C30.4269 44.9374 30.5957 45.0162 30.8996 45.3201ZM15.9191 46.7832C16.4819 47.0196 16.5606 47.4248 16.5156 49.8896L16.4819 51.9718L15.7503 52.1632C14.7823 52.4108 12.8915 52.4108 11.9236 52.1632L11.192 51.9718L11.1582 49.8896C11.1132 47.4586 11.2032 47.0196 11.7322 46.7945C12.25 46.5694 15.3901 46.5694 15.9191 46.7832ZM48.3337 46.7832C48.8964 47.0196 48.9752 47.4248 48.9302 49.8896L48.8964 51.9718L48.2211 52.1632C47.3095 52.4108 45.1935 52.4108 44.2819 52.1632L43.6066 51.9718L43.5728 49.8896C43.5278 47.4586 43.6178 47.0196 44.1468 46.7945C44.6645 46.5694 47.8047 46.5694 48.3337 46.7832ZM32.1264 50.3849C32.6891 50.6212 32.7679 51.0264 32.7229 53.4913L32.6891 55.5735L31.9576 55.7648C30.9784 56.0124 28.9862 56.0124 28.0746 55.7648L27.3993 55.5735L27.3655 53.4913C27.3205 51.0602 27.4105 50.6212 27.9395 50.3961C28.4572 50.171 31.5974 50.171 32.1264 50.3849Z" fill="#D2A226"/>
</svg>
