<svg width="61" height="60" viewBox="0 0 61 60" fill="none" xmlns="http://www.w3.org/2000/svg">
<g clip-path="url(#clip0_478_3630)">
<path d="M27.6973 0.117188C26.4434 0.316406 24.6738 0.820312 23.4785 1.33594C21.1582 2.30859 19.4473 3.51562 17.6074 5.42578C15.2637 7.85156 13.7754 10.6641 13.0371 14.0625C12.8613 14.8594 12.8145 15.5508 12.8145 17.5781C12.8145 20.3203 12.9199 21.082 13.5879 23.1211C14.4551 25.7695 15.7793 27.8789 17.9004 30.0117C20.4902 32.6016 23.2441 34.1016 26.8184 34.875C28.248 35.1914 32.4199 35.1914 33.8496 34.875C37.4473 34.0898 40.166 32.6016 42.7676 30.0117C45.3574 27.4102 46.8457 24.6914 47.6309 21.0938C47.9473 19.6641 47.9473 15.4922 47.6309 14.0625C46.8457 10.4648 45.3574 7.74609 42.7676 5.14453C40.2129 2.58984 37.6113 1.14844 34.0957 0.328125C32.9355 0.0585938 28.9277 -0.0703125 27.6973 0.117188ZM32.9121 2.66016C39.123 3.69141 44.1973 8.76562 45.2637 14.9883C45.6621 17.2969 45.4512 20.1562 44.7246 22.3242C43.4707 26.0508 40.7988 29.1797 37.2363 31.043C33.6855 32.9062 29.3027 33.2344 25.459 31.9336C21.1348 30.457 17.4199 26.7305 15.9668 22.418C14.9473 19.3828 14.9473 15.7734 15.9785 12.7148C16.6582 10.6523 18.0527 8.44922 19.6934 6.83203C23.2559 3.32812 27.9902 1.82812 32.9121 2.66016Z" fill="#D2A226"/>
<path d="M27.8966 4.85164C26.9122 5.05086 26.5255 5.41414 26.5255 6.15242C26.5255 6.56258 26.5958 6.73836 26.8419 6.99617C27.2052 7.35945 27.006 7.33602 29.8653 7.20711C31.3653 7.1368 31.6818 7.14852 32.5841 7.37117C34.6583 7.86336 36.2521 8.74227 37.7052 10.1837C39.7208 12.1759 40.7638 14.7071 40.7638 17.5782C40.7638 20.4727 39.7091 22.9923 37.6466 25.0313C35.6778 26.9766 33.1349 28.0196 30.3341 28.0196C27.4747 28.0196 24.9083 26.9415 22.881 24.8907C20.9239 22.9102 19.9044 20.4141 19.9044 17.5782C19.9044 16.043 20.1271 14.9415 20.6778 13.5938C20.9122 13.043 21.1232 12.4102 21.1583 12.1759C21.2872 11.2032 20.4318 10.5587 19.5294 10.9337C19.1778 11.0743 19.0138 11.2618 18.7208 11.8595C18.2286 12.8321 17.8419 13.9923 17.6193 15.1524C17.3849 16.3712 17.3966 18.797 17.631 20.0391C18.5919 25.1016 22.6232 29.2032 27.6857 30.2462C29.0216 30.5157 31.4357 30.5391 32.7599 30.293C37.963 29.3087 42.0646 25.2071 43.0489 20.004C43.2716 18.797 43.2716 16.3595 43.0489 15.1524C42.0646 9.93758 37.9747 5.84773 32.7599 4.86336C31.6349 4.65242 28.963 4.65242 27.8966 4.85164Z" fill="#D2A226"/>
<path d="M22.4355 7.33594C22.1895 7.58203 22.1309 7.75781 22.1309 8.20312C22.1309 8.64844 22.1895 8.82422 22.4355 9.07031C22.6816 9.31641 22.8574 9.375 23.3027 9.375C23.748 9.375 23.9238 9.31641 24.1699 9.07031C24.416 8.82422 24.4746 8.64844 24.4746 8.20312C24.4746 7.75781 24.416 7.58203 24.1699 7.33594C23.9238 7.08984 23.748 7.03125 23.3027 7.03125C22.8574 7.03125 22.6816 7.08984 22.4355 7.33594Z" fill="#D2A226"/>
<path d="M29.4668 9.67969C29.1855 9.96094 29.1621 10.0781 29.1621 10.8984V11.8125L28.5293 12.1758C27.3926 12.8086 26.8301 13.8398 26.8184 15.2461C26.8184 16.0078 26.8652 16.2422 27.1816 16.8516C27.3691 17.25 27.709 17.707 27.9082 17.8828C28.4121 18.3047 29.373 18.75 29.8066 18.75C30.3926 18.75 31.0137 18.9727 31.2129 19.2539C31.4941 19.6641 31.4355 20.3086 31.084 20.6719C30.5566 21.1875 29.7012 21.0469 29.0449 20.332C28.1309 19.3242 26.7012 19.7344 26.7012 20.9883C26.7012 21.3984 26.7832 21.5508 27.2988 22.1016C27.6387 22.4414 28.1895 22.875 28.5293 23.0391L29.1621 23.3438V24.2578C29.1621 25.0781 29.1855 25.1953 29.4668 25.4766C29.9121 25.9102 30.7559 25.9102 31.2012 25.4766C31.4824 25.1953 31.5059 25.0781 31.5059 24.2578V23.3438L32.1387 22.9805C33.2754 22.3477 33.8379 21.3164 33.8496 19.9102C33.8496 19.1484 33.8027 18.9141 33.4863 18.3047C33.2988 17.9062 32.959 17.4492 32.7598 17.2734C32.2559 16.8516 31.2949 16.4062 30.8613 16.4062C30.2754 16.4062 29.6543 16.1836 29.4551 15.9023C28.9512 15.1875 29.4434 14.1797 30.2988 14.1797C30.7207 14.1797 30.9082 14.2617 31.6699 14.8125C31.8574 14.9414 32.1621 15.0234 32.4785 15.0234C32.877 15.0117 33.0293 14.9414 33.2988 14.6484C34.002 13.8633 33.5098 12.7852 32.1387 12.1172L31.5059 11.8125V10.8984C31.5059 10.0781 31.4824 9.96094 31.2012 9.67969C30.9551 9.43359 30.7793 9.375 30.334 9.375C29.8887 9.375 29.7129 9.43359 29.4668 9.67969Z" fill="#D2A226"/>
<path d="M3.416 17.332C2.18553 17.7891 1.30663 18.5859 0.70897 19.8047L0.392563 20.4492L0.357407 29.4961C0.33397 38.4258 0.33397 38.5547 0.580063 39.2812C0.70897 39.6914 0.99022 40.2773 1.18944 40.6055C1.38866 40.9219 3.35741 43.0078 5.56053 45.2344C9.2871 48.9961 9.56835 49.3125 9.65038 49.7695L9.73241 50.2734H8.8535C8.06835 50.2734 7.95116 50.3086 7.66991 50.5781L7.36522 50.8945V55.1367V59.3789L7.66991 59.6953L7.98631 60H16.7402H25.4941L25.8105 59.6953L26.1152 59.3789V55.1367V50.8945L25.8105 50.5781C25.5293 50.3086 25.4121 50.2734 24.6387 50.2734H23.7715V46.3008C23.7715 41.8008 23.7246 41.4492 22.8457 40.125C22.5762 39.7148 20.6543 37.7109 18.0176 35.0859C12.8496 29.9648 12.9902 30.0586 10.998 30.0586H9.76756L9.70897 25.2539L9.65038 20.4492L9.31053 19.7461C8.86522 18.8437 7.9746 17.9531 7.07225 17.5195C6.46288 17.2148 6.21678 17.168 5.19725 17.1328C4.27147 17.1094 3.89647 17.1562 3.416 17.332ZM6.05272 19.793C6.54491 20.0508 6.77928 20.2852 7.08397 20.8594C7.29491 21.2344 7.30663 21.6562 7.34178 26.3203L7.37694 31.3828L6.90819 32.0977C6.33397 33 6.14647 33.7852 6.21678 35.0625C6.29881 36.75 6.42772 36.9375 10.166 40.7109C12.0527 42.6094 13.5644 44.0391 13.7988 44.1445C14.6308 44.4961 15.4512 43.9453 15.4512 43.0312V42.4922L12.2402 39.2578C10.4707 37.4883 8.94725 35.8711 8.84178 35.6602C8.45506 34.8984 8.68944 33.5742 9.31053 33.0352C10.0137 32.4141 11.1035 32.2617 11.9004 32.6836C12.5215 33 20.748 41.2969 21.0058 41.8711C21.3457 42.6211 21.4277 43.5469 21.4277 46.957V50.2734H16.7402H12.0527V49.5352C12.0527 48.1641 11.9238 48.0117 7.31835 43.3711C3.75584 39.7852 3.14647 39.1172 2.95897 38.6133C2.74803 38.0625 2.73631 37.582 2.73631 29.6484C2.73631 21.3047 2.73631 21.2695 2.98241 20.8008C3.26366 20.2734 3.50975 20.0391 4.02538 19.7695C4.51756 19.5117 5.51366 19.5234 6.05272 19.793ZM23.7715 55.1367V57.6562H16.7402H9.70897V55.1367V52.6172H16.7402H23.7715V55.1367Z" fill="#D2A226"/>
<path d="M54.041 17.332C52.8105 17.7891 51.9316 18.5859 51.334 19.8047L51.0176 20.4492L50.959 25.2539L50.9004 30.0586H49.6699C47.6777 30.0586 47.8184 29.9648 42.6504 35.0859C40.0137 37.7109 38.0918 39.7148 37.8223 40.125C36.9434 41.4492 36.8965 41.8008 36.8965 46.3008V50.2734H36.0293C35.2559 50.2734 35.1387 50.3086 34.8574 50.5781L34.5527 50.8945V55.1367V59.3789L34.8574 59.6953L35.1738 60H43.9277H52.6816L52.998 59.6953L53.3027 59.3789V55.1367V50.8945L52.998 50.5781C52.7168 50.3086 52.5996 50.2734 51.8145 50.2734H50.9355L51.0176 49.7695C51.0996 49.3125 51.3809 48.9961 55.1074 45.2344C57.3105 43.0078 59.2793 40.9219 59.4785 40.6055C59.6777 40.2773 59.959 39.6914 60.0879 39.2812C60.334 38.5547 60.334 38.4258 60.3105 29.4961L60.2754 20.4492L59.9355 19.7461C59.4902 18.8437 58.5996 17.9531 57.6973 17.5195C57.0879 17.2148 56.8418 17.168 55.8223 17.1328C54.8965 17.1094 54.5215 17.1562 54.041 17.332ZM56.6777 19.793C57.1699 20.0508 57.4043 20.2852 57.709 20.8594C57.9199 21.2461 57.9316 21.6914 57.9316 29.6484C57.9316 37.582 57.9199 38.0625 57.709 38.6133C57.5215 39.1172 56.9121 39.7852 53.3496 43.3711C48.7441 48.0117 48.6152 48.1641 48.6152 49.5352V50.2734H43.916H39.2168L39.2637 46.4883L39.2988 42.7148L39.627 42.0117C39.9082 41.4023 40.5293 40.7344 44.1387 37.1133C46.459 34.7812 48.5215 32.8125 48.7676 32.6836C49.5645 32.2617 50.6543 32.4141 51.3574 33.0352C52.002 33.5977 52.2129 34.8984 51.791 35.7187C51.6621 35.9531 50.1621 37.5469 48.4512 39.2578C45.123 42.5742 45.0176 42.7148 45.334 43.4883C45.5449 43.9805 45.8848 44.1797 46.5059 44.1797H47.0332L50.3848 40.8047C54.252 36.9258 54.3691 36.7617 54.4512 35.0625C54.5215 33.7852 54.334 33 53.7598 32.0977L53.291 31.3828L53.3262 26.3203C53.3613 21.4219 53.373 21.2578 53.6074 20.8008C53.8887 20.2734 54.1348 20.0391 54.6504 19.7695C55.1426 19.5117 56.1387 19.5234 56.6777 19.793ZM50.959 55.1367V57.6562H43.9277H36.8965V55.1367V52.6172H43.9277H50.959V55.1367Z" fill="#D2A226"/>
</g>
<defs>
<clipPath id="clip0_478_3630">
<rect width="60" height="60" fill="white" transform="translate(0.333984)"/>
</clipPath>
</defs>
</svg>
