<svg width="60" height="60" viewBox="0 0 60 60" fill="none" xmlns="http://www.w3.org/2000/svg">
<path d="M4.70602 3.08929C3.73959 3.38996 2.85906 4.13089 2.37584 5.05437C2.09664 5.59129 2.07517 5.73088 2.04295 7.19128L2 8.75905L2.28993 8.99529C2.65503 9.27448 2.98791 9.28522 3.33154 9.00603C3.58925 8.81274 3.61073 8.7161 3.65368 7.58859C3.71811 6.22484 3.85771 5.79531 4.38388 5.27988C5.03891 4.63559 4.79193 4.65706 13.5113 4.65706C21.5006 4.65706 21.5113 4.65706 21.9408 4.8933C22.4777 5.18324 22.7999 5.51612 23.0146 6.02081C23.1435 6.35369 23.1757 7.01946 23.1757 10.0154V13.602L22.875 14.1711C22.6388 14.6328 22.467 14.8046 22.0052 15.0409C21.4576 15.3308 21.361 15.3416 19.965 15.3416C17.667 15.3416 17.3556 15.6208 17.2804 17.6717C17.259 18.3375 17.216 18.8852 17.1731 18.8852C17.1408 18.8852 16.3784 18.155 15.4979 17.2637C14.6066 16.3724 13.7368 15.5778 13.5436 15.4919C13.2644 15.3738 12.4053 15.3416 9.32345 15.3416C6.06977 15.3416 5.38253 15.3201 5.04965 15.1805C4.12616 14.7939 3.75032 14.1174 3.66442 12.7214C3.62147 11.9376 3.55704 11.6906 3.38523 11.4973C3.10603 11.1966 2.56912 11.1859 2.25772 11.4758C2.04295 11.6798 2.02148 11.8087 2.02148 12.8718C2.02148 13.7953 2.06443 14.1711 2.24698 14.6328C2.54765 15.4597 3.27784 16.2221 4.14764 16.6516C4.82414 16.9845 4.92079 17.006 6.33823 17.0382L7.8201 17.0811V20.3241V23.5563L5.99461 25.3818L4.16911 27.2073V31.1804V35.1643L3.70737 35.3898C2.54765 35.9481 2.02148 36.7965 2.02148 38.1065C2.02148 39.3951 2.51543 40.2005 3.67516 40.8233C4.01878 41.0058 4.29797 41.0595 4.97448 41.0595C5.72615 41.0595 5.9087 41.0166 6.4134 40.7374C7.03621 40.3938 7.54091 39.8568 7.73419 39.3092L7.86305 38.9656H8.75432H9.64559V39.7172C9.64559 40.5656 9.82814 41.1132 10.2684 41.575C10.7087 42.0474 11.1919 42.2407 12.5771 42.5092C13.2751 42.6488 13.9409 42.8313 14.0482 42.928C14.2308 43.089 15.0684 44.9467 15.1972 45.4622C15.2294 45.6125 14.9717 46.0957 14.4026 46.9655C13.5758 48.2219 13.565 48.2541 13.5328 49.0273C13.4684 50.1548 13.6509 50.4554 15.5301 52.3024C17.2912 54.042 17.4952 54.1494 18.6549 54.0849C19.3529 54.0527 19.4281 54.0205 20.663 53.2152C21.522 52.646 22.0052 52.3883 22.1556 52.4205C22.5529 52.5172 24.518 53.3762 24.6683 53.5158C24.7435 53.591 24.926 54.2245 25.0656 54.9225C25.3663 56.4044 25.5488 56.8661 26.0106 57.3171C26.6334 57.9185 26.9019 57.9722 29.5112 57.9722C32.1206 57.9722 32.3891 57.9185 33.0119 57.3171C33.4736 56.8661 33.6562 56.4044 33.9569 54.9225C34.0964 54.2245 34.279 53.591 34.3542 53.5158C34.5045 53.3762 36.4696 52.5172 36.8669 52.4205C37.0172 52.3883 37.5005 52.646 38.3702 53.2152C39.6266 54.042 39.6588 54.0527 40.432 54.0849C41.5595 54.1494 41.8602 53.9668 43.7071 52.0876C45.4467 50.3266 45.5541 50.1226 45.4897 48.9628C45.4575 48.2648 45.4252 48.1897 44.6199 46.9548C44.0508 46.0957 43.793 45.6125 43.8252 45.4622C43.9541 44.9467 44.7917 43.089 44.9742 42.928C45.0816 42.8313 45.7474 42.6488 46.4454 42.5199C47.8091 42.2515 48.3031 42.0582 48.7541 41.575C49.1943 41.1132 49.3769 40.5656 49.3769 39.7172V38.9656H50.2682H51.1594L51.2883 39.3092C51.4816 39.8568 51.9863 40.3938 52.6091 40.7374C53.1138 41.0166 53.2963 41.0595 54.048 41.0595C54.7245 41.0595 55.0037 41.0058 55.3473 40.8233C56.507 40.2005 57.001 39.3951 57.001 38.1065C57.001 36.7965 56.4748 35.9481 55.3151 35.3898L54.8534 35.1643V31.1804V27.2073L53.0279 25.3818L51.2024 23.5563V20.3241V17.0811L52.6843 17.0382C54.1017 17.006 54.1983 16.9845 54.8748 16.6516C55.7446 16.2221 56.4748 15.4597 56.7755 14.6328C56.9581 14.1711 57.001 13.7953 57.001 12.8825C57.001 11.8194 56.9795 11.7121 56.754 11.4973C56.4426 11.2074 55.9379 11.1966 55.6373 11.4651C55.4654 11.6369 55.4118 11.8517 55.3581 12.6892C55.2722 14.1174 54.9071 14.7832 53.9728 15.1805C53.64 15.3201 52.9527 15.3416 49.699 15.3416C46.6172 15.3416 45.7581 15.3738 45.4789 15.4919C45.2856 15.5778 44.4158 16.3724 43.5246 17.2637C42.644 18.155 41.8816 18.8852 41.8494 18.8852C41.8065 18.8852 41.7635 18.3375 41.742 17.6717C41.6669 15.6208 41.3555 15.3416 39.0575 15.3416C37.6615 15.3416 37.5649 15.3308 37.0172 15.0409C36.5555 14.8046 36.3837 14.6328 36.1474 14.1711L35.8468 13.602V10.0154C35.8468 7.01946 35.879 6.35369 36.0078 6.02081C36.2226 5.51612 36.5448 5.18324 37.0817 4.8933C37.5112 4.65706 37.5219 4.65706 45.5111 4.65706C54.2306 4.65706 53.9836 4.63559 54.6386 5.27988C55.1648 5.79531 55.3044 6.22484 55.3688 7.58859C55.4118 8.7161 55.4332 8.81274 55.6909 9.00603C56.0346 9.28522 56.3675 9.27448 56.7326 8.99529L57.0225 8.75905L56.9795 7.19128C56.9473 5.73088 56.9258 5.59129 56.6466 5.05437C56.2708 4.33492 55.6587 3.72284 54.9393 3.347L54.3701 3.04633L45.7581 3.01412C37.275 2.99265 37.1461 2.99265 36.5555 3.20741C35.7287 3.51881 34.9662 4.23827 34.5367 5.1188C34.1931 5.81679 34.1824 5.87048 34.1501 7.47047L34.1072 9.11341H33.1085C32.1206 9.11341 32.1099 9.11341 31.9918 8.81274C31.8307 8.41543 31.4334 7.99664 30.8857 7.63154C30.4884 7.37383 30.3381 7.34161 29.522 7.34161C28.8669 7.34161 28.5019 7.3953 28.2764 7.52416C27.8361 7.7604 27.1918 8.42617 27.0415 8.802L26.9126 9.11341H25.9139H24.9153L24.8723 7.47047C24.8401 5.87048 24.8294 5.81679 24.4858 5.1188C24.0562 4.24901 23.2938 3.51881 22.467 3.21814C21.8871 2.99265 21.7046 2.99265 13.4254 3.00338C8.7758 3.00338 4.85636 3.04633 4.70602 3.08929ZM30.1448 9.28522C30.9609 9.97247 30.1663 11.347 29.1891 10.9389C28.7488 10.7564 28.5448 10.4449 28.5448 9.96173C28.5448 9.65032 28.62 9.49998 28.8777 9.28522C29.0602 9.12415 29.3394 9.00603 29.5112 9.00603C29.6831 9.00603 29.9622 9.12415 30.1448 9.28522ZM27.0844 11.261C27.428 12.0557 28.577 12.7644 29.5112 12.7644C30.4455 12.7644 31.5622 12.0772 31.9273 11.2718L32.1206 10.8315H33.1085H34.1072L34.1501 12.5174C34.1931 14.1067 34.2146 14.257 34.4938 14.8261C34.8696 15.6208 35.5783 16.3187 36.3622 16.6946C36.9206 16.9738 37.1031 16.9952 38.5098 17.0382L40.0347 17.0811V18.2409C40.0347 19.261 40.0669 19.4328 40.2816 19.7442C40.6145 20.2489 41.0011 20.5066 41.5165 20.5711C42.483 20.6999 42.6333 20.614 44.491 18.767L46.2199 17.0597H47.8521H49.4735L49.5057 20.7107L49.538 24.3616L51.3957 26.2193L53.2426 28.0663V31.6207V35.175L52.7916 35.379C52.201 35.6367 51.4816 36.3562 51.299 36.8609L51.1594 37.2475H50.2682H49.3769V36.4958C49.3769 35.6475 49.1943 35.0998 48.7541 34.6381C48.3031 34.1549 47.8091 33.9616 46.4454 33.6931C45.7474 33.5643 45.0816 33.3817 44.9742 33.2851C44.7917 33.124 43.9541 31.2663 43.8252 30.7509C43.793 30.6005 44.0508 30.1173 44.6199 29.2475C45.4467 27.9911 45.4575 27.9589 45.4897 27.1858C45.5541 26.0583 45.3715 25.7576 43.4924 23.9106C41.7313 22.171 41.5273 22.0637 40.3675 22.1281C39.6696 22.1603 39.5944 22.1925 38.3595 22.9979C37.5005 23.567 37.0172 23.8247 36.8669 23.7925C36.4696 23.6959 34.5045 22.8368 34.3542 22.6972C34.279 22.6221 34.0964 21.9885 33.9569 21.2905C33.6562 19.8086 33.4736 19.3469 33.0119 18.8959C32.3891 18.2946 32.1206 18.2409 29.5112 18.2409C26.9019 18.2409 26.6334 18.2946 26.0106 18.8959C25.5488 19.3469 25.3663 19.8086 25.0656 21.2905C24.926 21.9885 24.7435 22.6221 24.6683 22.6972C24.518 22.8368 22.5529 23.6959 22.1556 23.7925C22.0052 23.8247 21.522 23.567 20.6522 22.9979C19.3959 22.171 19.3637 22.1603 18.5905 22.1281C17.463 22.0637 17.1623 22.2462 15.3154 24.1254C13.5758 25.8865 13.4684 26.0905 13.5328 27.2502C13.565 27.9482 13.5972 28.0234 14.4026 29.2583C14.9717 30.1173 15.2294 30.6005 15.1972 30.7509C15.0684 31.2663 14.2308 33.124 14.0482 33.2851C13.9409 33.3817 13.2751 33.5643 12.5771 33.7039C11.1919 33.9723 10.7087 34.1656 10.2684 34.6381C9.82814 35.0998 9.64559 35.6475 9.64559 36.4958V37.2475H8.75432H7.86305L7.72345 36.8609C7.54091 36.3562 6.82145 35.6367 6.24158 35.379L5.77984 35.175V31.6207V28.0663L7.62681 26.2193L9.48452 24.3616L9.51673 20.7107L9.54895 17.0597H11.1704H12.8026L14.5315 18.767C16.3892 20.614 16.5395 20.6999 17.5059 20.5711C18.0214 20.5066 18.408 20.2489 18.7516 19.7442C18.9556 19.4328 18.9878 19.261 18.9878 18.2409V17.0811L20.5234 17.0382C21.9193 16.9952 22.1019 16.9738 22.6603 16.6946C23.4442 16.3187 24.1529 15.6208 24.5287 14.8261C24.8079 14.257 24.8294 14.1067 24.8723 12.5174L24.9153 10.8315H25.9032H26.8911L27.0844 11.261ZM31.7663 20.1201C31.9059 20.2704 32.0562 20.7429 32.2387 21.6449C32.679 23.7818 32.9152 24.0717 34.8374 24.8663C37.0602 25.7791 37.4038 25.7576 39.1756 24.5764C39.9595 24.061 40.3998 23.8247 40.6253 23.8247C40.9045 23.8247 41.1729 24.0395 42.3756 25.2529C43.5461 26.4341 43.793 26.7455 43.793 27.0032C43.793 27.2073 43.5568 27.6797 43.0736 28.3885C42.3649 29.4515 42.0749 30.128 42.0749 30.7186C42.0749 31.2556 43.0843 33.7683 43.5138 34.3159C43.9326 34.8314 44.491 35.0676 45.9729 35.379C47.8091 35.7441 47.7125 35.5938 47.7125 38.1065C47.7125 40.6193 47.8091 40.4689 45.9729 40.834C44.491 41.1454 43.9326 41.3817 43.5138 41.8971C43.0843 42.434 42.0749 44.9575 42.0749 45.4837C42.0749 46.0743 42.3219 46.6649 43.0521 47.7816C43.5353 48.5118 43.793 49.0273 43.793 49.2205C43.793 49.4783 43.5353 49.7897 42.3649 50.9601C41.1729 52.1521 40.883 52.3883 40.6253 52.3883C40.4105 52.3883 39.938 52.1413 39.1756 51.6366C37.4038 50.4554 37.0602 50.434 34.8374 51.3467C32.9152 52.1413 32.679 52.4313 32.2387 54.5682C31.8736 56.4044 32.024 56.3077 29.5112 56.3077C26.9985 56.3077 27.1488 56.4044 26.7837 54.5682C26.4723 53.0863 26.2361 52.5279 25.7207 52.1091C25.1838 51.6796 22.6603 50.6702 22.1341 50.6702C21.5435 50.6702 20.9529 50.9172 19.8361 51.6474C19.0845 52.1413 18.5905 52.3883 18.3865 52.3883C18.1288 52.3883 17.8281 52.1413 16.6469 50.9601C15.4764 49.7897 15.2294 49.489 15.2294 49.2313C15.2294 49.0273 15.4872 48.5226 15.9704 47.7816C16.7006 46.6649 16.9476 46.0743 16.9476 45.4837C16.9476 44.9575 15.9382 42.434 15.5086 41.8971C15.0899 41.3817 14.5315 41.1454 13.0496 40.834C11.2134 40.4689 11.31 40.6193 11.31 38.1065C11.31 35.5938 11.2134 35.7441 13.0496 35.379C14.5315 35.0676 15.0899 34.8314 15.5086 34.3159C15.9382 33.779 16.9476 31.2556 16.9476 30.7294C16.9476 30.1388 16.7006 29.5482 15.9704 28.4314C15.4872 27.6905 15.2294 27.1858 15.2294 26.9818C15.2294 26.724 15.4764 26.4234 16.6469 25.2529C17.8281 24.0717 18.1288 23.8247 18.3865 23.8247C18.5905 23.8247 19.0845 24.0717 19.8361 24.5657C20.9529 25.2959 21.5435 25.5428 22.1341 25.5428C22.6603 25.5428 25.1838 24.5335 25.7207 24.1039C26.2361 23.6851 26.4723 23.1267 26.773 21.6556C27.0522 20.3348 27.2025 20.0127 27.6213 19.9268C27.7394 19.8946 28.6844 19.8838 29.6938 19.8838C31.3904 19.9053 31.5622 19.9268 31.7663 20.1201ZM5.51139 36.9683C6.1342 37.2367 6.39192 38.085 6.0483 38.7401C5.89796 39.0407 5.3181 39.3951 4.97448 39.3951C4.63086 39.3951 4.05099 39.0407 3.90066 38.7401C3.55704 38.0958 3.79328 37.3012 4.40535 37.0005C4.84562 36.7857 5.03891 36.775 5.51139 36.9683ZM54.5849 36.9683C55.2077 37.2367 55.4654 38.085 55.1218 38.7401C54.9715 39.0407 54.3916 39.3951 54.048 39.3951C53.7044 39.3951 53.1245 39.0407 52.9742 38.7401C52.6306 38.0958 52.8668 37.3012 53.4789 37.0005C53.9191 36.7857 54.1124 36.775 54.5849 36.9683Z" fill="#D2A226"/>
<path d="M28.9318 24.061C28.7922 24.2006 28.2338 24.8126 27.6969 25.4247C26.8486 26.4019 26.7197 26.5952 26.7197 26.9388C26.7197 27.4005 26.7519 27.422 28.3305 28.6569C29.5224 29.5804 29.8016 29.7092 30.2526 29.5589C30.9076 29.3227 30.9506 28.5603 30.3385 28.0019L30.0056 27.6905H30.4888C31.1546 27.6905 32.8405 28.1307 33.721 28.528C36.6418 29.8488 38.8324 32.4475 39.67 35.583C39.9492 36.6354 39.9599 39.5669 39.6807 40.5763C39.3693 41.736 38.9827 42.6488 38.4566 43.4863C38.1344 44.0018 37.9626 44.4098 37.9519 44.6353C37.9411 45.4622 38.9613 45.7521 39.5304 45.0649C40.0243 44.485 40.98 42.4233 41.2914 41.2743C41.5706 40.2649 41.5921 40.0716 41.5814 38.1065C41.5814 36.1951 41.5599 35.9267 41.3022 34.971C40.2176 30.9871 37.2324 27.8301 33.313 26.52C32.7868 26.3482 31.9277 26.1442 31.3908 26.0797C30.8647 26.0046 30.2633 25.9294 30.07 25.9079L29.7157 25.8542L30.0486 25.4032C30.4459 24.8663 30.4674 24.4475 30.1023 24.0932C29.7694 23.7495 29.2862 23.7388 28.9318 24.061Z" fill="#D2A226"/>
<path d="M19.8791 30.8044C19.7395 30.8581 19.4603 31.1802 19.2455 31.5239C16.6684 35.5399 16.7328 40.909 19.3851 44.9036C21.2214 47.6741 24.475 49.7358 27.6321 50.1331C28.169 50.2083 28.7596 50.2835 28.9528 50.305L29.3072 50.3586L28.9743 50.8096C28.577 51.3466 28.5555 51.7653 28.9206 52.1197C29.2535 52.4633 29.7367 52.4741 30.0911 52.1412C30.2307 52.0123 30.7891 51.4002 31.326 50.7882C32.1743 49.8217 32.3032 49.6177 32.3032 49.2741C32.3032 48.9842 32.228 48.8123 32.0132 48.6191C31.573 48.211 29.8119 46.858 29.5434 46.7184C29.1676 46.5144 28.7703 46.5681 28.4696 46.8687C28.0938 47.2446 28.1797 47.8137 28.6737 48.2217L29.028 48.5117L28.5341 48.5224C27.8683 48.5224 26.1931 48.0929 25.3019 47.6848C22.9287 46.611 20.8885 44.5385 19.9006 42.2084C18.569 39.0406 18.8482 35.3789 20.6415 32.5869C21.114 31.8567 21.1784 31.3413 20.8563 31.0192C20.5985 30.7614 20.1905 30.6755 19.8791 30.8044Z" fill="#D2A226"/>
<path d="M21.3075 34.7884L21.0283 35.0031V38.1065V41.2098L21.3075 41.4246C21.6619 41.7038 22.1129 41.7145 22.435 41.4461C22.682 41.2528 22.6927 41.1561 22.7464 39.7602L22.8001 38.289L23.8739 39.8138C24.4538 40.6622 25.0337 41.4138 25.1518 41.4997C25.4525 41.7145 25.8927 41.6823 26.1934 41.4461L26.4511 41.242V38.1065V34.9709L26.1934 34.7669C25.8712 34.4984 25.4202 34.5092 25.0766 34.7884C24.7974 35.0031 24.7867 35.0354 24.7652 36.5065L24.733 38.0098L23.584 36.3562C22.9505 35.4434 22.3491 34.6595 22.2525 34.6273C21.9303 34.5092 21.5974 34.5629 21.3075 34.7884Z" fill="#D2A226"/>
<path d="M28.288 34.7884L28.0088 35.0032V38.1065V41.2099L28.288 41.4246C28.535 41.6179 28.7282 41.6501 29.7806 41.6501C30.8329 41.6501 31.0262 41.6179 31.2732 41.4246C31.488 41.2528 31.5524 41.1132 31.5524 40.7911C31.5524 40.1898 31.1873 39.932 30.3605 39.932H29.7376L29.7054 37.4515C29.6732 34.9925 29.6732 34.971 29.4155 34.767C29.0933 34.4985 28.6423 34.5093 28.288 34.7884Z" fill="#D2A226"/>
<path d="M33.3661 34.7669L33.1084 34.9709V38.1065V41.242L33.3661 41.4461C33.6883 41.7145 34.1393 41.7038 34.4936 41.4246C34.7513 41.2206 34.7728 41.1454 34.7728 40.3508V39.5024H35.3419C36.1473 39.5024 36.6627 39.3306 37.1567 38.8796C37.7258 38.3642 37.9943 37.7843 37.9943 37.0327C37.9943 36.281 37.7258 35.7011 37.1567 35.1857C36.5983 34.681 36.158 34.5629 34.7621 34.5629C33.7956 34.5629 33.5809 34.5951 33.3661 34.7669ZM36.0292 36.5172C36.5983 37.0434 36.1366 37.7843 35.2453 37.7843H34.7728V37.0327V36.281H35.2775C35.6426 36.281 35.8466 36.3454 36.0292 36.5172Z" fill="#D2A226"/>
<path d="M7.67048 7.19124C7.1443 7.61003 7.40202 8.68385 8.03557 8.68385C8.2396 8.68385 8.25034 8.75902 8.25034 10.6167C8.25034 12.41 8.26108 12.5603 8.4651 12.7644C8.59396 12.8932 8.81946 12.9791 9.0557 12.9791C9.29194 12.9791 9.51744 12.8932 9.6463 12.7644C9.85033 12.5603 9.86107 12.41 9.86107 9.98317V7.40601L9.58187 7.19124C9.35637 7.01943 9.14161 6.96574 8.62618 6.96574C8.11074 6.96574 7.89598 7.01943 7.67048 7.19124Z" fill="#D2A226"/>
<path d="M12.6201 7.13762C11.4389 7.51345 10.8698 8.58727 10.9557 10.2839C11.0094 11.3362 11.2349 11.8946 11.8363 12.4101C12.9745 13.4195 14.8644 13.0544 15.5731 11.7013C15.8416 11.1859 15.8738 11.0248 15.8738 10.0155C15.8738 9.2423 15.8201 8.76982 15.702 8.49063C15.2188 7.33091 13.8658 6.74031 12.6201 7.13762ZM13.8765 8.90942C14.1342 9.11344 14.1557 9.18861 14.1557 9.98324C14.1557 10.9497 13.9732 11.2611 13.4148 11.2611C12.9208 11.2611 12.6524 10.8316 12.6524 10.0691C12.6524 9.34968 12.792 8.96311 13.1248 8.81278C13.4577 8.6517 13.5544 8.66244 13.8765 8.90942Z" fill="#D2A226"/>
<path d="M17.41 7.07312C17.1308 7.19124 16.9482 7.50265 16.9482 7.85701C16.9482 8.18989 17.3348 8.68385 17.6033 8.68385C17.7966 8.68385 17.8073 8.78049 17.8073 10.5523C17.8073 12.2704 17.8288 12.4315 18.0328 12.6999C18.2046 12.9147 18.3442 12.9791 18.6664 12.9791C18.9885 12.9791 19.1281 12.9147 19.2999 12.6999C19.5147 12.4315 19.5254 12.2811 19.5254 9.97243C19.5254 7.00869 19.5361 7.04091 18.3872 6.99795C17.9791 6.97648 17.5388 7.00869 17.41 7.07312Z" fill="#D2A226"/>
<path d="M37.8114 7.07312C37.5322 7.19124 37.3496 7.50265 37.3496 7.85701C37.3496 7.99661 37.5966 8.5013 37.8973 8.96304C38.1979 9.42479 38.4664 9.85431 38.4986 9.92948C38.5201 10.0046 38.2731 10.4664 37.9509 10.9603C37.2959 11.9268 37.2208 12.2597 37.5751 12.6999C37.7469 12.9147 37.8865 12.9791 38.1979 12.9791C38.6382 12.9791 38.8315 12.8288 39.3362 12.0342L39.6368 11.5832L40.0127 12.1415C40.4744 12.8503 40.6355 12.9791 41.065 12.9791C41.4946 12.9791 41.8382 12.6999 41.9241 12.2811C41.9778 12.0127 41.8811 11.7872 41.3442 10.9711L40.6999 9.99391L41.2798 9.12412C42.0422 7.99661 42.0959 7.71741 41.6664 7.28789C41.108 6.7295 40.6355 6.89057 40.0342 7.8248C39.8409 8.11473 39.6691 8.36171 39.6476 8.36171C39.6261 8.36171 39.4221 8.08251 39.1858 7.72815C38.6919 7.00869 38.3697 6.84762 37.8114 7.07312Z" fill="#D2A226"/>
<path d="M43.7069 7.1376C43.0949 7.56713 43.1808 7.98592 44.1579 9.44631L44.7593 10.3483V11.4329C44.7593 12.4208 44.7807 12.5282 45.0062 12.7429C45.3177 13.0329 45.8331 13.0436 46.166 12.7752C46.4022 12.5819 46.4237 12.4637 46.4774 11.347L46.5311 10.1336L47.2076 9.14564C47.6371 8.51209 47.8733 8.05035 47.8733 7.85706C47.8733 7.21277 47.2827 6.8262 46.6814 7.07317C46.5203 7.14834 46.2197 7.45975 46.0049 7.78189C45.7901 8.10404 45.5968 8.36176 45.5754 8.36176C45.5539 8.36176 45.3821 8.11478 45.1888 7.82485C44.6411 6.97653 44.2224 6.7725 43.7069 7.1376Z" fill="#D2A226"/>
<path d="M49.7314 7.07312C49.2267 7.27715 49.1086 8.06104 49.5166 8.44761C49.7206 8.6409 49.8925 8.68385 50.5367 8.68385C50.9663 8.68385 51.3099 8.70533 51.3099 8.73754C51.3099 8.76976 50.8481 9.47848 50.2898 10.3268C49.173 11.9912 49.0656 12.3241 49.5166 12.7429C49.7529 12.9684 49.871 12.9791 51.5569 12.9791C53.2106 12.9791 53.3716 12.9576 53.5649 12.7644C53.7045 12.6248 53.7797 12.41 53.7797 12.1308C53.7797 11.4973 53.4253 11.261 52.4804 11.261H51.7394L52.7595 9.73619C53.5864 8.49056 53.7797 8.12546 53.7797 7.80332C53.7797 7.50265 53.7152 7.35231 53.5005 7.19124C53.2428 6.98722 53.071 6.96574 51.5891 6.97648C50.6978 6.97648 49.8602 7.01943 49.7314 7.07312Z" fill="#D2A226"/>
</svg>
