<svg width="58" height="58" viewBox="0 0 58 58" fill="none" xmlns="http://www.w3.org/2000/svg">
<path d="M22.9648 1.09766C22.0156 1.36719 20.9609 1.95312 20.293 2.5625C19.8242 2.98438 19.7422 3.13672 19.7422 3.5C19.7422 4.07422 20.1641 4.50781 20.7148 4.50781C21.0195 4.50781 21.2656 4.39062 21.6875 4.03906C22.0039 3.76953 22.5547 3.41797 22.9062 3.24219C23.4922 2.96094 23.668 2.92578 24.8398 2.92578C26.3281 2.92578 26.9023 3.11328 28.0391 4.00391C29.0234 4.77734 29.8555 4.63672 30.0078 3.67578C30.0664 3.32422 30.0195 3.19531 29.7031 2.83203C29.1289 2.17578 28.0156 1.49609 26.9961 1.16797C25.8359 0.804688 24.0781 0.769531 22.9648 1.09766Z" fill="#D2A226"/>
<path d="M36.6172 1.10938C36.3828 1.34375 36.3828 1.49609 36.3828 10.8594V20.375L34.5078 23.1641C33.2773 24.9805 32.6328 26.0469 32.6328 26.2578C32.6328 26.4336 32.7734 26.7031 32.9844 26.9141C33.3828 27.3008 33.125 27.2891 35.5977 27.0547L36.3828 26.9844V28.2266C36.3828 29.3164 36.418 29.5039 36.6172 29.7031C36.8516 29.9375 37.0039 29.9375 46.7539 29.9375C56.5039 29.9375 56.6562 29.9375 56.8906 29.7031C57.125 29.4688 57.125 29.3164 57.125 15.4062C57.125 1.49609 57.125 1.34375 56.8906 1.10938C56.6562 0.875 56.5039 0.875 46.7539 0.875C37.0039 0.875 36.8516 0.875 36.6172 1.10938ZM55.25 15.4062V28.0625H46.8242H38.3984L38.3516 26.7734C38.3164 25.625 38.2812 25.4609 38.0469 25.2266C37.8008 24.9805 37.6836 24.957 36.7461 24.9922L35.7031 25.0156L37.0156 23.0703L38.3164 21.125L38.3516 11.9375L38.375 2.75H46.8125H55.25V15.4062Z" fill="#D2A226"/>
<path d="M40.4258 5.375C40.004 5.79688 40.0157 6.51172 40.4376 6.83984C40.7422 7.08594 40.8594 7.08594 46.7774 7.08594H52.8008L53.0821 6.79297C53.4454 6.44141 53.4688 5.82031 53.1524 5.43359L52.9297 5.15234L46.8243 5.11719L40.7188 5.08203L40.4258 5.375Z" fill="#D2A226"/>
<path d="M40.4376 9.44141C40.0157 9.76953 40.004 10.4844 40.4258 10.8945L40.7071 11.1875H46.754H52.8008L53.0821 10.8945C53.2813 10.707 53.3751 10.4844 53.3751 10.1914C53.3751 9.89844 53.2813 9.67578 53.0821 9.48828L52.8008 9.19531H46.7774C40.8594 9.19531 40.7422 9.19531 40.4376 9.44141Z" fill="#D2A226"/>
<path d="M40.3909 13.5664C40.1331 13.8359 40.051 14.3633 40.2034 14.7617C40.4026 15.2656 40.6252 15.2891 46.7541 15.2891C52.8831 15.2891 53.1057 15.2656 53.3049 14.7617C53.4573 14.3398 53.3752 13.8008 53.1057 13.5547L52.8362 13.2969H46.7424H40.637L40.3909 13.5664Z" fill="#D2A226"/>
<path d="M40.3672 17.6328C40.2148 17.7852 40.1328 18.0195 40.1328 18.3359C40.1328 18.6523 40.2148 18.8867 40.3672 19.0391C40.5898 19.2617 40.7539 19.2734 43.9297 19.2734H47.2695L47.5039 18.9688C47.6445 18.793 47.75 18.5117 47.75 18.3359C47.75 18.1602 47.6445 17.8789 47.5039 17.7031L47.2695 17.3984H43.9297C40.7539 17.3984 40.5898 17.4102 40.3672 17.6328Z" fill="#D2A226"/>
<path d="M23.9737 3.92187C23.3291 4.0625 22.5557 4.51953 22.1573 4.98828C21.2901 6.01953 22.4971 7.14453 23.6104 6.32422C24.4776 5.6914 25.2393 5.66797 26.0244 6.26562C26.8916 6.92187 27.8291 6.60547 27.8291 5.65625C27.8291 5.09375 27.4893 4.70703 26.6221 4.27344C25.8135 3.88672 24.8174 3.74609 23.9737 3.92187Z" fill="#D2A226"/>
<path d="M24.1831 7.54305C23.9136 7.75398 23.9019 7.84773 23.8667 9.40633L23.8316 11.047L20.3511 11.0938C16.5542 11.1524 16.3199 11.1876 14.8784 11.9259C14.023 12.3477 12.6636 13.6837 12.2066 14.5509C11.8433 15.2423 11.4214 16.754 11.4214 17.4102C11.4214 17.8087 11.2808 17.9845 10.9527 17.9845C10.9058 17.9845 10.5074 16.9415 10.062 15.6641C9.21829 13.2149 8.98391 12.8282 8.39798 12.8282C7.9761 12.8282 7.48391 13.1915 7.39016 13.5782C7.34329 13.7657 7.6011 14.6915 8.18704 16.3907L9.04251 18.9102L8.64407 19.297C7.75344 20.1524 7.24954 21.793 7.44876 23.1876C7.64798 24.6759 8.84329 26.3048 9.72219 26.3048C10.2964 26.3048 10.7183 25.8829 10.7183 25.3087C10.7183 24.9923 10.6245 24.793 10.3081 24.4766C8.84329 23.0118 9.20657 20.797 11.0464 20.0235L11.4214 19.8712V24.9454C11.4214 29.6798 11.4331 30.0782 11.6558 30.7813C12.1011 32.211 13.2964 33.4532 14.6558 33.8751C14.9722 33.9805 15.7925 34.086 16.4956 34.1212L17.7495 34.1915V35.047V35.9024L14.2691 35.9376C10.9292 35.9727 10.7534 35.9845 10.2964 36.2305C10.0269 36.3712 9.78079 36.5704 9.73391 36.6759C9.58157 37.0977 9.6636 37.5665 9.96829 37.8595C10.2261 38.129 10.3199 38.1524 10.7534 38.0821C11.023 38.0352 17.3277 37.9766 24.7456 37.9415C38.187 37.9063 38.2574 37.9063 38.773 38.1407C39.0542 38.2813 39.3941 38.504 39.5347 38.6563L39.7808 38.9141L39.2769 39.1368C38.6089 39.4298 37.6011 40.461 37.2613 41.211C36.5464 42.793 36.687 44.8087 37.6011 46.1798C37.7417 46.379 39.3355 48.3829 41.1519 50.6329C44.7261 55.0626 44.8784 55.2149 46.0503 55.3321C47.5855 55.4962 48.9214 54.254 48.9214 52.6602C48.9214 52.0157 46.062 41.7266 45.7105 41.1407C45.0659 40.0391 43.5894 38.9493 42.4995 38.7735C42.0894 38.7149 41.9722 38.6212 41.7261 38.211C41.3159 37.5196 40.355 36.6524 39.5699 36.2891L38.9019 35.9727L35.4214 35.9376L31.9292 35.9024V35.0235V34.1563H32.8316C35.1753 34.1563 36.8277 33.3477 36.5699 32.3282C36.3706 31.5782 35.6792 31.3907 34.7534 31.836L34.2144 32.1055H24.8394H15.4644L14.9839 31.8477C14.3745 31.5196 13.8472 30.922 13.6011 30.2774C13.4253 29.8087 13.4019 29.0938 13.437 23.1993L13.4722 16.6368L13.8472 15.8516C14.5034 14.4571 15.7808 13.461 17.2691 13.1798C17.6558 13.1095 20.6675 13.0626 24.9449 13.0626C30.687 13.0626 32.1167 13.0977 32.6909 13.2384C33.6988 13.4845 34.0738 13.461 34.3667 13.1446C34.6949 12.793 34.7183 12.1016 34.4019 11.7852C33.8628 11.2462 33.148 11.1524 29.3863 11.0938L25.8355 11.047V9.44148C25.8355 7.90633 25.8238 7.81258 25.5659 7.5782C25.2261 7.25008 24.5581 7.23836 24.1831 7.54305ZM29.937 35.0352V35.9141H24.8394H19.7417V35.0352V34.1563H24.8394H29.937V35.0352ZM42.5816 40.8946C43.1675 41.1876 43.8238 41.8438 44.0347 42.3243C44.2456 42.793 46.9292 52.4493 46.9292 52.7305C46.9292 52.8126 46.8355 53.0001 46.7183 53.1407C46.273 53.6915 46.0855 53.504 42.5699 49.1446C40.7417 46.8946 39.1831 44.9141 39.1011 44.7618C38.3159 43.2618 39.1128 41.211 40.6714 40.7188C41.1402 40.5665 42.1363 40.6602 42.5816 40.8946Z" fill="#D2A226"/>
<path d="M18.8866 15.9921C16.203 16.66 15.3827 19.953 17.4218 21.7929C19.9296 24.0429 23.8085 21.5585 22.8593 18.3124C22.3905 16.7069 20.4921 15.5936 18.8866 15.9921ZM20.4218 18.1718C20.5741 18.2772 20.7851 18.5468 20.8788 18.7811C21.1249 19.3671 20.9023 20.035 20.328 20.4218C19.3788 21.0546 18.0663 20.164 18.289 19.039C18.3827 18.6171 18.9218 18.0194 19.3085 17.9491C19.6601 17.8788 20.0937 17.9608 20.4218 18.1718Z" fill="#D2A226"/>
<path d="M29.3638 15.9921C28.3091 16.2147 27.313 17.0819 26.9263 18.1366C26.7271 18.6757 26.7388 19.8475 26.9614 20.4686C27.5005 22.0624 29.3638 22.9882 31.0278 22.5077C31.9653 22.2382 32.6099 21.6874 33.0786 20.7968C33.4536 20.0819 33.4771 19.9764 33.4302 19.1561C33.3481 17.7499 32.6216 16.66 31.438 16.1796C30.8989 15.9569 29.9731 15.8749 29.3638 15.9921ZM30.5708 18.0311C31.52 18.4296 31.7544 19.4257 31.063 20.1874C30.7114 20.5741 30.5942 20.621 30.1138 20.621C29.6333 20.621 29.5161 20.5741 29.1646 20.1874C28.8599 19.8475 28.7661 19.6483 28.7661 19.285C28.7661 18.7577 29.106 18.2655 29.6333 18.0311C30.0903 17.8319 30.1021 17.8319 30.5708 18.0311Z" fill="#D2A226"/>
<path d="M20.8905 24.5001C20.4921 24.711 20.3983 25.0626 20.4804 25.9415C20.5624 26.879 21.1015 27.8868 21.8983 28.6251C23.8319 30.3946 26.8554 30.1016 28.4374 28.004C28.953 27.3243 29.2108 26.6329 29.3163 25.6954C29.3749 25.0626 29.3632 25.0157 29.0233 24.6758L28.6718 24.3126H24.9335C21.8632 24.3243 21.1483 24.3477 20.8905 24.5001ZM27.0194 26.5157C26.8437 26.8321 26.2929 27.3594 25.8944 27.5704C25.3788 27.8399 24.3593 27.8165 23.7616 27.5001C23.328 27.2774 22.6718 26.5977 22.6718 26.3868C22.6718 26.3399 23.6796 26.3047 24.8983 26.3047C27.0077 26.3047 27.1249 26.3165 27.0194 26.5157Z" fill="#D2A226"/>
<path d="M7.08614 38.7851C5.77364 39.1601 4.48458 40.2031 3.92208 41.3515C3.48848 42.2656 0.863481 51.9453 0.863481 52.6953C0.840044 54.7343 2.87911 55.9765 4.71895 55.0273C5.28145 54.7343 5.49239 54.5 7.77754 51.6406C8.83223 50.3398 9.69942 49.2734 9.72286 49.2734C9.74629 49.2734 10.0627 49.707 10.4377 50.2343C12.84 53.6797 16.9768 56.2695 21.1721 56.9492C22.6486 57.1836 27.1838 57.1953 28.5432 56.9492C30.1486 56.6797 31.5432 56.2226 33.0432 55.4961C35.0705 54.5117 36.5354 53.4218 38.1057 51.7109C38.6447 51.125 38.7268 50.9726 38.7268 50.5625C38.7268 49.9297 38.4104 49.625 37.7893 49.625C37.344 49.625 37.2502 49.6953 36.4065 50.5742C34.2268 52.8711 31.3674 54.4179 28.2385 54.9804C26.5861 55.2851 22.7424 55.2383 21.1838 54.9101C18.0666 54.2539 15.594 52.8828 13.4143 50.6093C12.4768 49.6367 11.1877 47.8672 11.1877 47.5742C11.1877 47.5039 11.4572 47.1054 11.7736 46.6836C12.5236 45.7343 12.84 44.9023 12.9104 43.707C13.0393 41.6211 12.0666 39.8867 10.2736 39.0547C9.37129 38.6211 8.07051 38.5156 7.08614 38.7851ZM9.09004 40.7422C10.2385 41.082 11.0236 42.3125 10.9299 43.5898C10.8947 43.9883 10.7775 44.4804 10.6721 44.6914C10.3088 45.3828 3.93379 53.1992 3.62911 53.3047C3.26583 53.4453 2.86739 53.1289 2.86739 52.6953C2.86739 52.3203 5.51583 42.6758 5.72676 42.2656C6.16036 41.4336 7.42598 40.6015 8.24629 40.6015C8.45723 40.6015 8.84395 40.6601 9.09004 40.7422Z" fill="#D2A226"/>
<path d="M21.5938 40.8475C21.3477 40.9061 20.8438 41.1053 20.4805 41.2928C18.6055 42.2421 17.5156 44.0116 17.5156 46.0975C17.5156 48.7577 19.2383 50.9022 21.8164 51.4413C22.9766 51.6874 23.2227 51.6639 23.6211 51.2772L23.9609 50.9374V46.1093V41.2928L23.668 41.0116C23.4336 40.7655 23.2812 40.7186 22.707 40.7303C22.332 40.7421 21.8281 40.7889 21.5938 40.8475ZM21.9219 49.3553C21.8164 49.4608 20.9609 48.9686 20.5625 48.5702C19.8594 47.8671 19.5664 47.1288 19.5664 46.1093C19.5664 45.4296 19.625 45.1132 19.8359 44.7264C20.2109 44.0116 20.8438 43.3553 21.418 43.0741L21.9102 42.828L21.9453 46.0741C21.957 47.8553 21.9453 49.3319 21.9219 49.3553Z" fill="#D2A226"/>
<path d="M26.0947 40.9883C25.8369 41.2579 25.8369 41.293 25.8369 46.1329C25.8369 51.9102 25.7549 51.5704 27.0908 51.5352C29.0596 51.4766 30.794 50.3164 31.6846 48.4532C32.0713 47.6446 32.1065 47.4688 32.1416 46.3438C32.1768 45.336 32.1416 44.9961 31.9424 44.4219C31.1572 42.2071 29.1768 40.7305 26.9385 40.7188C26.4697 40.7188 26.294 40.7774 26.0947 40.9883ZM29.3174 43.8243C29.4932 44.0118 29.751 44.4571 29.915 44.8086C30.1611 45.3477 30.1963 45.5586 30.1494 46.3321C30.0908 47.3164 29.915 47.75 29.2705 48.4649C28.9072 48.8633 28.1221 49.3907 27.8877 49.3907C27.8525 49.3907 27.8291 47.9141 27.8291 46.0977V42.8164L28.4268 43.1329C28.7549 43.3204 29.1533 43.625 29.3174 43.8243Z" fill="#D2A226"/>
</svg>
