<svg width="61" height="60" viewBox="0 0 61 60" fill="none" xmlns="http://www.w3.org/2000/svg">
<path d="M3.69885 2.09473C3.47913 2.31445 3.47913 2.45728 3.47913 8.41187V14.5203L3.75378 14.7839C4.01746 15.0586 4.02844 15.0586 6.28064 15.0586H8.53284V16.6516V18.2446H6.3905C4.14929 18.2446 3.70984 18.3215 3.54504 18.739C3.51208 18.8379 3.47913 21.6284 3.47913 24.9463C3.47913 30.7031 3.49011 30.9778 3.68787 31.2195C3.89661 31.4832 3.92957 31.4832 6.21472 31.5161L8.53284 31.5491V33.1421V34.7241H6.28064C4.02844 34.7241 4.01746 34.7241 3.75378 34.9988L3.47913 35.2625V41.3159C3.47913 45.0623 3.52307 47.4463 3.58899 47.5781C3.64392 47.688 3.85266 47.8308 4.03943 47.8967C4.29211 47.9846 7.79675 48.0176 15.9596 48.0176H27.5172L27.7589 48.7646C29.308 53.4888 33.3839 57.0483 38.2948 57.9602C39.4923 58.1799 41.9532 58.1799 43.1508 57.9602C47.4904 57.1582 51.0939 54.4006 53.0275 50.4346C53.2692 49.9182 53.5768 49.1711 53.6976 48.7537L53.9283 48.0176H55.4335C57.0265 48.0176 57.5758 47.9187 57.8175 47.6111C57.9384 47.4463 57.9603 46.2817 57.9713 41.3379V35.2625L57.6967 34.9988L57.433 34.7241H53.8295L50.226 34.7131L49.2921 33.9551C48.2045 33.0652 47.0948 32.406 45.8424 31.9006L44.9525 31.5491L51.2477 31.5161L57.5538 31.4832L57.7626 31.2195C57.9603 30.9778 57.9713 30.7031 57.9713 24.9463C57.9713 21.6284 57.9384 18.8379 57.9054 18.739C57.7076 18.2227 58.8063 18.2446 33.8014 18.2446H10.4005V16.6516V15.0586H33.9113H57.433L57.6967 14.7839L57.9713 14.5203V8.41187C57.9713 2.45728 57.9713 2.31445 57.7516 2.09473C57.5319 1.875 57.389 1.875 30.7252 1.875C4.0614 1.875 3.91858 1.875 3.69885 2.09473ZM56.2135 8.41187V13.1909H30.7252H5.23694V8.41187V3.63281H30.7252H56.2135V8.41187ZM56.2135 24.8914V29.6704H30.7252H5.23694V24.8914V20.1123H30.7252H56.2135V24.8914ZM35.5812 31.9226C34.3617 32.417 33.1752 33.1311 32.0765 34.01L31.1866 34.7241H20.7936H10.4005V33.1311V31.5381H23.4523H36.493L35.5812 31.9226ZM43.5023 33.0652C46.996 33.988 49.8195 36.2732 51.3246 39.3713C54.6864 46.3257 50.7313 54.3677 43.0848 56.1145C42.5575 56.2354 41.7994 56.2903 40.6678 56.2903C38.8331 56.2903 37.7345 56.0706 36.0865 55.3784C33.1862 54.1809 30.6373 51.4343 29.5826 48.3911C28.6708 45.7874 28.7367 42.7222 29.7584 40.1843C30.5604 38.1848 32.3073 35.9875 33.9772 34.856C35.3834 33.9111 37.0753 33.208 38.6683 32.9004C39.8219 32.6807 42.3927 32.7686 43.5023 33.0652ZM29.2201 37.218C28.528 38.3057 27.8688 39.8438 27.5172 41.1841C27.2096 42.3486 27.1766 42.6453 27.1656 44.3042L27.1547 46.1499H16.2013H5.23694V41.3708V36.5918H17.4318H29.6266L29.2201 37.218ZM56.2135 41.3708V46.1499H55.2577H54.2909V44.469C54.2909 42.6562 54.17 41.8103 53.6757 40.3162C53.3461 39.2834 52.6429 37.8113 52.1266 37.0532L51.808 36.5918H54.0162H56.2135V41.3708Z" fill="#D2A226"/>
<path d="M41.2172 5.7751C40.9425 6.03877 40.9425 6.03877 40.9425 8.40083C40.9425 10.7299 40.9425 10.7629 41.2062 11.0595C41.5358 11.444 42.162 11.466 42.5245 11.1145C42.7443 10.8947 42.7552 10.7519 42.7882 8.76338C42.8322 6.42329 42.7882 6.02778 42.4696 5.70918C42.162 5.40156 41.5468 5.43452 41.2172 5.7751Z" fill="#D2A226"/>
<path d="M45.7765 5.72028C45.4579 6.03889 45.4359 6.25861 45.4689 8.66462C45.5018 10.752 45.5128 10.8948 45.7325 11.1146C46.0841 11.4661 46.7433 11.4332 47.0729 11.0487C47.3256 10.752 47.3256 10.73 47.2926 8.33503C47.2596 5.951 47.2596 5.91804 46.996 5.7093C46.6554 5.43464 46.0621 5.43464 45.7765 5.72028Z" fill="#D2A226"/>
<path d="M50.3029 5.72029C50.0721 5.94002 50.0612 6.01692 50.0612 8.45589C50.0612 10.796 50.0721 10.9718 50.2699 11.1475C50.3907 11.2574 50.6654 11.3453 50.8961 11.3563C51.2037 11.3673 51.3575 11.3013 51.5553 11.0596C51.819 10.763 51.819 10.7301 51.819 8.40096C51.819 6.0389 51.819 6.0389 51.5443 5.77522C51.2147 5.43465 50.6434 5.41267 50.3029 5.72029Z" fill="#D2A226"/>
<path d="M9.95005 7.79663C9.57652 8.09326 9.59849 8.74146 10.005 9.08203L10.3016 9.3457H16.3331C19.64 9.3457 22.4415 9.31274 22.5404 9.27979C22.7491 9.19189 23.0348 8.67554 23.0348 8.37891C23.0348 8.25806 22.9359 8.03833 22.8041 7.87354L22.5843 7.58789H16.388C10.5104 7.58789 10.1918 7.59888 9.95005 7.79663Z" fill="#D2A226"/>
<path d="M41.2172 22.2546C40.9425 22.5183 40.9425 22.5183 40.9425 24.8693C40.9425 27.0886 40.9535 27.2424 41.1732 27.517C41.4589 27.8686 42.0961 27.9125 42.4916 27.5939C42.7552 27.3852 42.7552 27.3413 42.7882 25.155C42.8102 23.9245 42.7992 22.8149 42.7552 22.6721C42.5795 21.9799 41.7225 21.7382 41.2172 22.2546Z" fill="#D2A226"/>
<path d="M45.7655 22.1887C45.5018 22.3974 45.5018 22.4084 45.5018 24.8913C45.5018 27.3742 45.5018 27.3852 45.7655 27.5939C46.161 27.9125 46.7982 27.8686 47.0839 27.517C47.3036 27.2424 47.3146 27.0886 47.3146 24.8693C47.3146 22.5183 47.3146 22.5183 47.0399 22.2546C46.7103 21.914 46.1281 21.892 45.7655 22.1887Z" fill="#D2A226"/>
<path d="M50.2809 22.1998C50.0721 22.4086 50.0612 22.5624 50.0612 24.8915C50.0612 27.2206 50.0721 27.3744 50.2809 27.5831C50.6215 27.9237 51.3026 27.8797 51.5883 27.5172C51.808 27.2425 51.819 27.0887 51.819 24.8915C51.819 22.6942 51.808 22.5404 51.5883 22.2657C51.3026 21.9032 50.6215 21.8592 50.2809 22.1998Z" fill="#D2A226"/>
<path d="M10.005 24.2212C9.77429 24.4189 9.69739 24.5728 9.69739 24.8914C9.69739 25.21 9.77429 25.3638 10.005 25.5615L10.3016 25.8252H16.3441H22.3976L22.7162 25.5066C23.1337 25.0891 23.1337 24.6936 22.7162 24.2761L22.3976 23.9575H16.3441H10.3016L10.005 24.2212Z" fill="#D2A226"/>
<path d="M40.0856 35.4163C39.8439 35.6689 39.8439 35.6909 39.8439 40.7886C39.8439 45.5017 39.8549 45.9192 40.0416 46.1279C40.1405 46.2488 41.5248 47.2485 43.1178 48.3472C45.5787 50.0391 46.0731 50.3467 46.4137 50.3467C47.1058 50.3467 47.5123 49.6436 47.1718 49.0393C47.0948 48.9075 45.8204 47.9517 44.3263 46.908L41.6017 45.0293V40.3271V35.636L41.349 35.4053C40.9974 35.0757 40.3932 35.0867 40.0856 35.4163Z" fill="#D2A226"/>
<path d="M10.005 40.7007C9.60948 41.0303 9.57653 41.6455 9.93907 42.0081L10.1918 42.2498H16.3441H22.5074L22.7711 41.9421C23.1776 41.4697 23.0568 40.7996 22.5184 40.5579C22.3426 40.47 20.42 40.437 16.2782 40.437H10.3016L10.005 40.7007Z" fill="#D2A226"/>
</svg>
