<svg width="60" height="60" viewBox="0 0 60 60" fill="none" xmlns="http://www.w3.org/2000/svg">
<path d="M3.37821 2.20001C3.1376 2.30938 2.80948 2.53905 2.64543 2.71405C1.97827 3.43589 2.01108 2.68124 2.01108 16.1228C2.01108 27.8364 2.02202 28.427 2.21889 28.8536C2.4595 29.3785 3.11572 29.9582 3.65164 30.1004C3.89225 30.166 8.21238 30.2097 14.9824 30.2097H25.9413L26.9038 32.8018C27.9428 35.5798 28.1178 35.9189 28.6865 36.3017C29.0037 36.5204 29.2005 36.5532 30.0099 36.5532C30.8192 36.5532 31.0161 36.5204 31.3333 36.3017C31.902 35.9189 32.077 35.5798 33.116 32.8018L34.0785 30.2097H40.4985H46.9295L47.1591 29.9582C47.4763 29.6191 47.4763 29.0067 47.1701 28.7223C46.9513 28.5254 46.6451 28.5145 40.072 28.4817C33.4879 28.4598 33.2035 28.4598 32.9519 28.6567C32.777 28.8098 32.3723 29.7395 31.5958 31.8066L30.4911 34.7486H30.0099H29.5287L28.424 31.8066C27.6475 29.7613 27.2428 28.8098 27.0678 28.6676C26.8272 28.4708 26.3788 28.4598 15.5183 28.4598C4.55941 28.4598 4.22036 28.4489 3.96881 28.252L3.70632 28.0442V16.1119V4.19054L3.95787 3.939L4.20943 3.68744L8.40925 3.65463L12.6091 3.62182L12.8387 3.33746C13.1231 2.97654 13.1122 2.64843 12.8278 2.27657L12.6091 1.9922H8.21238C4.16568 1.9922 3.78288 2.01408 3.37821 2.20001Z" fill="#D2A226"/>
<path d="M15.1355 2.18904C14.8402 2.42966 14.8074 3.12963 15.0699 3.40305C15.234 3.56711 16.9511 3.57804 35.5331 3.63273L55.8104 3.68741L56.0619 3.93896L56.3135 4.19052V16.1119V28.0442L56.051 28.252C55.8104 28.4489 55.5807 28.4598 52.5183 28.4598C49.1825 28.4598 48.9419 28.4817 48.6357 28.8863C48.4169 29.1707 48.4716 29.6519 48.7669 29.9363L49.0294 30.2097H52.5074C54.4323 30.2097 56.1604 30.166 56.3682 30.1003C56.9041 29.9582 57.5603 29.3785 57.8009 28.8535C57.9978 28.427 58.0087 27.8364 58.0087 16.1228C58.0087 2.68121 58.0415 3.43586 57.3744 2.71402C57.2103 2.53902 56.8822 2.30935 56.6416 2.19998C56.226 2.00311 55.4276 1.99217 35.7956 1.99217C16.3386 1.99217 15.3652 2.00311 15.1355 2.18904Z" fill="#D2A226"/>
<path d="M12.8388 9.10143C12.6091 9.33111 12.5544 9.85609 12.7294 10.1951C12.7841 10.3045 12.9919 10.4467 13.1778 10.5123C13.67 10.6873 46.3498 10.6873 46.842 10.5123C47.0279 10.4467 47.2357 10.3045 47.2904 10.1951C47.4654 9.85609 47.4107 9.33111 47.1811 9.10143C46.9623 8.88269 46.8201 8.88269 30.0099 8.88269C13.1997 8.88269 13.0575 8.88269 12.8388 9.10143Z" fill="#D2A226"/>
<path d="M13.1013 13.1918C12.5763 13.4214 12.4341 14.1652 12.8388 14.5698C13.0575 14.7886 13.1997 14.7886 23.0102 14.7886C32.8207 14.7886 32.9629 14.7886 33.1816 14.5698C33.4113 14.3402 33.466 13.8152 33.291 13.4761C33.2363 13.3668 33.0285 13.2246 32.8426 13.159C32.2848 12.9621 13.5497 12.9949 13.1013 13.1918Z" fill="#D2A226"/>
<path d="M35.5221 13.1152C34.9097 13.2355 34.6909 14.1105 35.1503 14.5698C35.3581 14.7776 35.5112 14.7886 41.1657 14.7886C46.8201 14.7886 46.9732 14.7776 47.181 14.5698C47.4107 14.3402 47.4654 13.8152 47.2904 13.4761C47.0717 13.0715 46.667 13.0386 41.1219 13.0496C38.1689 13.0605 35.6425 13.0933 35.5221 13.1152Z" fill="#D2A226"/>
<path d="M13.1669 17.3806C12.5872 17.5993 12.4122 18.4087 12.8606 18.8352C13.0903 19.054 13.2216 19.054 18.2198 19.054H23.3492L23.6117 18.7805C24.0601 18.343 23.8961 17.6212 23.3055 17.4134C22.9664 17.304 13.484 17.2603 13.1669 17.3806Z" fill="#D2A226"/>
<path d="M25.8429 17.4243C25.296 17.6321 25.1539 18.354 25.5804 18.7805L25.8429 19.054H36.3862C46.842 19.054 46.9185 19.054 47.1592 18.8352C47.4873 18.529 47.4873 17.8509 47.1701 17.5665C46.9514 17.3697 46.6014 17.3587 36.5284 17.3368C30.0755 17.3259 26.0179 17.3587 25.8429 17.4243Z" fill="#D2A226"/>
<path d="M17.2354 21.7445C16.7323 22.0944 16.7105 22.8053 17.1917 23.1663C17.4651 23.385 42.5547 23.385 42.8281 23.1663C43.3093 22.8053 43.2875 22.0944 42.7844 21.7445C42.5656 21.5913 41.3188 21.5695 30.0099 21.5695C18.701 21.5695 17.4542 21.5913 17.2354 21.7445Z" fill="#D2A226"/>
<path d="M28.9709 39.3532C26.7616 39.6813 24.8148 40.6328 23.3492 42.1312C22.1352 43.3561 21.0525 45.2701 21.2165 45.9044C21.3368 46.4075 21.7962 46.6263 22.3758 46.4732C22.6055 46.4075 22.7805 46.1888 23.1742 45.4341C23.8086 44.1983 24.4867 43.367 25.3835 42.6889C27.0897 41.4203 28.9927 40.8843 30.9067 41.1468C32.3832 41.3546 33.4113 41.7812 34.6363 42.6889C35.5331 43.367 36.2112 44.1983 36.8455 45.4341C37.2393 46.1888 37.4143 46.4075 37.6439 46.4732C38.2236 46.6263 38.683 46.4075 38.8033 45.9044C38.9673 45.2701 37.8846 43.3561 36.6705 42.1312C34.9862 40.414 32.8098 39.4516 30.3927 39.3532C29.7912 39.3313 29.1568 39.3313 28.9709 39.3532Z" fill="#D2A226"/>
<path d="M6.33123 43.6186C5.02972 43.892 4.25319 44.2967 3.43291 45.117C1.79236 46.7575 1.51893 49.459 2.78763 51.4495C3.75009 52.9369 5.30314 53.7572 7.1515 53.7463C8.27802 53.7463 9.29516 53.4072 10.1811 52.7291C11.056 52.0729 11.8544 50.8808 12.0185 49.973L12.095 49.5683H18.537H24.9679L25.0992 50.0277C25.7335 52.4557 28.2053 54.0634 30.7536 53.7135C32.6785 53.451 34.4285 51.9088 34.9206 50.0277L35.0519 49.5683H41.4828H47.9248L48.0013 49.973C48.1654 50.8808 48.9638 52.0729 49.8387 52.7291C50.7246 53.4072 51.7418 53.7463 52.8683 53.7463C54.301 53.7572 55.3291 53.3744 56.3353 52.4776C58.129 50.8698 58.5337 48.3871 57.3744 46.1232C57.09 45.5544 56.1494 44.6138 55.5041 44.2529C53.448 43.0936 50.8121 43.4764 49.2372 45.1826C48.6247 45.8388 48.1216 46.7466 48.0013 47.4247L47.9248 47.8184H41.5047H35.0847L34.8878 47.1622C34.166 44.767 31.7161 43.2467 29.2224 43.6514C27.2647 43.9686 25.6898 45.3248 25.132 47.1622L24.9351 47.8184H18.5151H12.095L12.0185 47.4247C11.8982 46.7466 11.3951 45.8388 10.7826 45.1826C9.69983 44.0014 7.75304 43.3233 6.33123 43.6186ZM8.44207 45.631C9.55765 46.1122 10.4326 47.4575 10.4326 48.6934C10.4326 49.8417 9.73264 51.012 8.70456 51.5698C6.97651 52.5104 4.99691 51.887 4.06726 50.1152C3.71727 49.4261 3.70634 47.8731 4.05632 47.2169C4.92035 45.5872 6.77964 44.9201 8.44207 45.631ZM30.9614 45.4669C32.5254 45.9372 33.6301 47.709 33.3019 49.2512C32.941 50.9136 31.6395 52.0073 30.0099 52.0073C27.3959 52.0073 25.7991 49.1199 27.1881 46.9216C28.0084 45.6201 29.5177 45.0404 30.9614 45.4669ZM53.7214 45.4341C54.651 45.6638 55.4822 46.32 55.9635 47.2169C56.3135 47.8731 56.3025 49.4261 55.9525 50.1152C54.5745 52.7619 50.8449 52.576 49.8059 49.8199C49.3794 48.6715 49.6528 47.3481 50.495 46.4294C51.3699 45.4779 52.5074 45.1279 53.7214 45.4341Z" fill="#D2A226"/>
<path d="M37.6549 50.7824C37.4471 50.8589 37.2393 51.1542 36.8674 51.8979C35.5003 54.6322 32.9629 56.2399 30.0099 56.2399C27.0788 56.2399 24.6507 54.7197 23.1742 51.9636C22.7696 51.2089 22.5508 50.9136 22.3321 50.837C21.9274 50.6949 21.4243 50.9245 21.2603 51.3292C21.0743 51.7557 21.3806 52.5542 22.179 53.7682C23.5461 55.8353 25.6132 57.268 28.0303 57.8039C29.1787 58.0664 31.0161 58.0445 32.1864 57.7711C33.3566 57.4868 34.8878 56.743 35.8065 56.0103C37.119 54.9603 38.2783 53.4182 38.7048 52.1495C38.9564 51.4167 38.8142 50.9573 38.3002 50.7824C38.1142 50.7167 37.9611 50.662 37.9502 50.673C37.9392 50.673 37.808 50.7277 37.6549 50.7824Z" fill="#D2A226"/>
</svg>
