<svg width="60" height="60" viewBox="0 0 60 60" fill="none" xmlns="http://www.w3.org/2000/svg">
<path d="M36.9776 1.78541C34.8742 2.25036 33.0033 3.2467 31.4424 4.73013C29.8261 6.26891 28.8851 7.79662 28.2098 9.97749C27.9331 10.8963 27.9109 11.1067 27.9109 13.0108C27.8998 14.8152 27.9331 15.1584 28.1545 15.9223C28.7412 17.9482 29.8039 19.5312 32.1066 21.8117C33.0365 22.7195 33.9775 23.7158 34.1989 24.0147L34.6085 24.5461L34.3207 24.8118L34.0439 25.0664V27.2916C34.0439 29.9374 34.0439 29.9484 35.1509 29.9484H35.8152V31.0776V32.1957L36.4572 32.8489L37.1104 33.491H39.3577H41.605L42.2581 32.8489L42.9002 32.1957V31.0776V29.9484H43.5644C44.6715 29.9484 44.6715 29.9374 44.6715 27.2916V25.0664L44.3947 24.8118L44.1069 24.5461L44.5165 24.0147C44.7379 23.7158 45.6789 22.7195 46.6088 21.8117C48.9114 19.5312 49.9742 17.9482 50.5609 15.9223C50.7823 15.1584 50.8155 14.8152 50.8045 13.0108C50.8045 11.1067 50.7823 10.8963 50.5056 9.97749C49.8524 7.85197 48.9225 6.32426 47.4058 4.8519C45.9113 3.40168 44.5386 2.59355 42.5017 1.98468C41.6382 1.71899 41.295 1.68578 39.6344 1.65257C38.2285 1.61935 37.5532 1.65257 36.9776 1.78541ZM41.5496 3.72272C43.5201 4.15447 45.5017 5.38328 46.8302 6.99956C49.0111 9.64538 49.6199 13.5089 48.3247 16.4869C47.8597 17.5718 47.0184 18.6345 44.9482 20.76C43.4094 22.3431 42.7452 23.107 42.4906 23.6051C42.2913 23.9704 42.1253 24.3579 42.1253 24.4575C42.1253 24.6015 41.9703 24.6347 41.1843 24.6347H40.2433V20.6493V16.664H41.7932C43.808 16.664 43.7858 16.6861 43.7858 15.0699C43.7858 13.985 43.7969 13.9075 44.0183 13.841C44.4058 13.7193 45.1364 12.9886 45.3468 12.5126C45.6014 11.9591 45.6235 10.8299 45.38 10.2653C44.9814 9.29112 44.0515 8.7044 42.9223 8.69332C41.7821 8.69332 40.8965 9.2247 40.4537 10.1878C40.1769 10.7746 40.1769 11.9148 40.4537 12.5126C40.664 12.9886 41.3946 13.7193 41.7821 13.841C41.9703 13.8964 42.0146 13.996 42.0146 14.4056V14.8927H39.3577H36.7008V14.4056C36.7008 13.996 36.7451 13.8964 36.9333 13.841C37.3207 13.7193 38.0514 12.9886 38.2617 12.5126C38.5385 11.9148 38.5385 10.7746 38.2617 10.1878C37.8189 9.2247 36.9333 8.69332 35.793 8.69332C34.6638 8.7044 33.7339 9.29112 33.3354 10.2653C33.0919 10.8299 33.114 11.9591 33.3686 12.5126C33.5789 12.9886 34.3096 13.7193 34.6971 13.841C34.9185 13.9075 34.9295 13.985 34.9295 15.0699C34.9295 16.6861 34.9074 16.664 36.9222 16.664H38.4721V20.6493V24.6347H37.5311C36.7451 24.6347 36.5901 24.6015 36.5901 24.4575C36.5901 24.3579 36.424 23.9704 36.2358 23.6051C35.9701 23.107 35.3059 22.3431 33.7671 20.76C31.697 18.6345 30.8556 17.5718 30.3907 16.4869C29.66 14.8152 29.5161 12.6565 29.9921 10.7635C31.1324 6.30212 35.3281 3.21349 39.9112 3.46811C40.2433 3.47918 40.985 3.60095 41.5496 3.72272ZM36.3687 10.7967C36.4905 10.9185 36.5901 11.162 36.5901 11.3502C36.5901 11.5384 36.4905 11.782 36.3687 11.9037C36.2469 12.0255 36.0034 12.1251 35.8152 12.1251C35.627 12.1251 35.3834 12.0255 35.2616 11.9037C35.1399 11.782 35.0402 11.5384 35.0402 11.3502C35.0402 11.162 35.1399 10.9185 35.2616 10.7967C35.3834 10.6749 35.627 10.5753 35.8152 10.5753C36.0034 10.5753 36.2469 10.6749 36.3687 10.7967ZM43.4537 10.7967C43.5755 10.9185 43.6751 11.162 43.6751 11.3502C43.6751 11.5384 43.5755 11.782 43.4537 11.9037C43.3319 12.0255 43.0884 12.1251 42.9002 12.1251C42.712 12.1251 42.4685 12.0255 42.3467 11.9037C42.2249 11.782 42.1253 11.5384 42.1253 11.3502C42.1253 11.162 42.2249 10.9185 42.3467 10.7967C42.4685 10.6749 42.712 10.5753 42.9002 10.5753C43.0884 10.5753 43.3319 10.6749 43.4537 10.7967ZM42.9002 27.2916V28.1772H39.3577H35.8152V27.2916V26.4059H39.3577H42.9002V27.2916ZM41.1289 30.5795C41.1289 31.0666 41.0736 31.2658 40.8854 31.4651C40.664 31.6976 40.5644 31.7197 39.3688 31.7197C38.2174 31.7197 38.0735 31.6976 37.841 31.4762C37.6307 31.2769 37.5864 31.1219 37.5864 30.5905V29.9484H39.3577H41.1289V30.5795Z" fill="#D2A226"/>
<path d="M23.361 6.92212L22.6968 7.58634L24.0584 8.948L25.409 10.2986L26.0954 9.60115L26.7928 8.91479L25.4644 7.58634C24.7337 6.8557 24.1138 6.2579 24.0806 6.2579C24.0474 6.2579 23.7263 6.5568 23.361 6.92212Z" fill="#D2A226"/>
<path d="M53.2732 7.56413C52.5647 8.27264 51.978 8.91472 51.978 8.97007C51.978 9.11399 53.1071 10.2432 53.2511 10.2432C53.3175 10.2432 53.9596 9.64536 54.6902 8.91472L56.0187 7.58627L55.3544 6.92205C54.9891 6.55673 54.6681 6.25783 54.6349 6.25783C54.6016 6.25783 53.9928 6.84456 53.2732 7.56413Z" fill="#D2A226"/>
<path d="M21.6451 12.2357V13.1213H23.8592H26.0732V12.2357V11.3501H23.8592H21.6451V12.2357Z" fill="#D2A226"/>
<path d="M52.6422 12.2357V13.1213H54.8562H57.0703V12.2357V11.3501H54.8562H52.6422V12.2357Z" fill="#D2A226"/>
<path d="M24.0252 15.5568L22.6968 16.8852L23.3942 17.5716L24.0806 18.269L25.4312 16.9185L26.7928 15.5568L26.1286 14.8926C25.7633 14.5273 25.4422 14.2284 25.409 14.2284C25.3758 14.2284 24.7559 14.8262 24.0252 15.5568Z" fill="#D2A226"/>
<path d="M52.5868 14.8926L51.9226 15.5568L53.2843 16.9185L54.6348 18.269L55.3212 17.5716L56.0186 16.8852L54.6902 15.5568C53.9596 14.8262 53.3396 14.2284 53.3064 14.2284C53.2732 14.2284 52.9522 14.5273 52.5868 14.8926Z" fill="#D2A226"/>
<path d="M10.9622 19.819C7.25362 21.5571 4.14284 23.0626 4.07642 23.1623C3.88822 23.4058 3.88822 24.0922 4.07642 24.3357C4.14284 24.4354 5.52664 25.1328 7.14291 25.8856L10.0766 27.2583L10.1098 28.5978L10.143 29.9484H9.02488C7.47503 29.9484 7.47503 29.9484 7.47503 31.8525C7.47503 33.0481 7.51931 33.4024 7.68536 33.7677C8.06176 34.5869 9.01381 35.2622 9.77766 35.2622C10.0876 35.2622 10.0987 35.2954 10.2869 36.1478C10.5858 37.5648 11.3164 38.8933 12.3903 39.9782C12.8884 40.4763 13.5748 41.0409 13.9291 41.2402L14.5601 41.5944V42.4469V43.2993L9.2795 44.1074C6.36799 44.5502 3.8218 44.9598 3.62253 45.0263C3.43434 45.0816 3.21293 45.2255 3.15758 45.3362C3.09116 45.4691 3.04688 47.8381 3.04688 51.6906C3.04688 57.7018 3.04688 57.8458 3.26828 58.0672C3.48969 58.2886 3.6336 58.2886 18.1026 58.2886C32.5716 58.2886 32.7155 58.2886 32.9369 58.0672C33.1583 57.8458 33.1583 57.7018 33.1583 51.6906C33.1583 47.8381 33.114 45.4691 33.0476 45.3362C32.9922 45.2255 32.7708 45.0816 32.5826 45.0263C32.3834 44.9598 29.8372 44.5502 26.9367 44.1074L21.6451 43.2882V42.4469V41.5944L22.2872 41.2402C22.6304 41.0409 23.3167 40.4763 23.8149 39.9782C24.8887 38.8933 25.6194 37.5648 25.9183 36.1478C26.1065 35.2733 26.1175 35.2622 26.4496 35.2622C26.9257 35.2511 27.612 34.919 28.0327 34.4762C28.6194 33.8452 28.7301 33.4466 28.7301 31.8304C28.7301 29.9484 28.7301 29.9484 27.1803 29.9484H26.0622L26.0954 28.6089L26.1286 27.2583L28.2209 26.2841C29.3833 25.7417 30.3575 25.2989 30.4128 25.2989C30.4571 25.2989 30.5014 25.9409 30.5014 26.738V28.1772H31.387H32.2727V25.7638C32.2727 24.0036 32.2395 23.2951 32.1398 23.1623C31.9073 22.8523 18.5122 16.664 18.0915 16.664C17.8369 16.664 15.5121 17.7046 10.9622 19.819ZM23.7042 21.2028C26.6489 22.5755 29.0512 23.7158 29.0512 23.749C29.0512 23.7822 28.398 24.1033 27.5899 24.4796L26.1286 25.1549L26.0733 24.6014C25.9958 23.9483 25.7522 23.7158 24.5788 23.1401C22.8518 22.3099 21.003 21.9777 18.1026 21.9777C15.2021 21.9777 13.3534 22.3099 11.6264 23.1401C10.453 23.7158 10.2094 23.9483 10.1319 24.6014L10.0766 25.1549L8.61527 24.4796C7.80714 24.1033 7.15398 23.7822 7.15398 23.749C7.15398 23.6383 17.9476 18.6677 18.1358 18.6898C18.2465 18.7009 20.7484 19.8301 23.7042 21.2028ZM20.9034 24.0368C21.9772 24.2029 23.0953 24.535 23.8924 24.9225L24.302 25.1217V27.0923V29.0628H18.1026H11.9032V27.0812V25.1107L12.5674 24.8118C14.6929 23.8597 17.848 23.5608 20.9034 24.0368ZM24.2688 33.0703C24.2024 35.4504 24.1027 36.0482 23.5935 37.0777C22.9071 38.4615 21.468 39.7236 20.0399 40.1885C19.11 40.4985 17.0952 40.4985 16.1653 40.1885C14.7372 39.7236 13.298 38.4615 12.6117 37.0777C12.1024 36.0482 12.0028 35.4504 11.9364 33.0703L11.87 30.834H18.1026H24.3352L24.2688 33.0703ZM10.1319 32.5499C10.1319 33.0592 10.0876 33.3802 10.0101 33.3802C9.5784 33.3802 9.24629 32.8156 9.24629 32.0961C9.24629 31.7307 9.25736 31.7197 9.6891 31.7197H10.1319V32.5499ZM26.9589 32.0961C26.9589 32.8156 26.6268 33.3802 26.195 33.3802C26.1175 33.3802 26.0733 33.0592 26.0733 32.5499V31.7197H26.5161C26.9478 31.7197 26.9589 31.7307 26.9589 32.0961ZM19.8738 42.9561V43.6203L18.9882 44.506L18.1026 45.3916L17.217 44.506L16.3313 43.6203V42.9561V42.2919H18.1026H19.8738V42.9561ZM16.3313 46.3879C17.5823 47.6167 17.6376 47.661 18.1026 47.661C18.5675 47.661 18.6229 47.6167 19.8628 46.399L21.1469 45.1259L23.3942 45.4801L25.6415 45.8233L21.8776 49.5873L18.1026 53.3623L14.3276 49.5873L10.5637 45.8233L12.7002 45.4801C13.8737 45.292 14.8811 45.137 14.9365 45.1259C15.0029 45.1259 15.6228 45.6905 16.3313 46.3879ZM10.929 48.9562L13.6744 51.7017V54.104V56.5173H9.24629H4.81814V51.6131V46.6979L6.2905 46.4765C7.08756 46.3547 7.85142 46.244 7.97319 46.2329C8.11711 46.2219 9.08023 47.1075 10.929 48.9562ZM29.815 46.4654L31.387 46.709V51.6131V56.5173H26.9589H22.5307V54.115V51.7017L25.2651 48.9673C26.7818 47.4507 28.0549 46.2219 28.1213 46.2219C28.1766 46.2219 28.9405 46.3326 29.815 46.4654ZM17.217 55.8752V56.5173H16.3313H15.4457V55.0007V53.473L16.3313 54.3586L17.217 55.2442V55.8752ZM20.7595 55.0228V56.5173H19.8738H18.9882V55.8863V55.2442L19.8406 54.3918C20.3167 53.9158 20.7152 53.5283 20.7263 53.5283C20.7484 53.5283 20.7595 54.2036 20.7595 55.0228Z" fill="#D2A226"/>
<path d="M14.7815 34.5979C14.4826 34.8968 14.4826 35.8268 14.7925 36.646C15.8664 39.5243 20.3388 39.5243 21.4126 36.646C21.7226 35.8268 21.7226 34.8968 21.4237 34.5979C21.2134 34.3876 21.0584 34.3765 18.1026 34.3765C15.1468 34.3765 14.9918 34.3876 14.7815 34.5979ZM19.3646 36.3803C18.7114 37.1109 17.4937 37.1109 16.8406 36.3803L16.6302 36.1478H18.1026H19.5749L19.3646 36.3803Z" fill="#D2A226"/>
<path d="M30.5014 30.8341V31.7197H31.387H32.2727V30.8341V29.9485H31.387H30.5014V30.8341Z" fill="#D2A226"/>
<path d="M38.4721 36.1478V37.0334H39.3577H40.2434V36.1478V35.2622H39.3577H38.4721V36.1478Z" fill="#D2A226"/>
<path d="M38.4721 39.6903V40.5759H39.3577H40.2434V39.6903V38.8047H39.3577H38.4721V39.6903Z" fill="#D2A226"/>
<path d="M38.4721 43.2328V44.1184H39.3577H40.2434V43.2328V42.3471H39.3577H38.4721V43.2328Z" fill="#D2A226"/>
<path d="M34.9296 46.7753V47.6609H35.8152H36.7008V46.7753V45.8896H35.8152H34.9296V46.7753Z" fill="#D2A226"/>
<path d="M38.4721 46.7753V47.6609H39.3577H40.2434V46.7753V45.8896H39.3577H38.4721V46.7753Z" fill="#D2A226"/>
</svg>
