<svg width="60" height="60" viewBox="0 0 60 60" fill="none" xmlns="http://www.w3.org/2000/svg">
<g clip-path="url(#clip0_474_3564)">
<path d="M2.51978 1.16016C2.26196 1.27734 1.88696 1.55859 1.67603 1.76953C0.902588 2.57812 0.937744 2.19141 0.937744 11.2734C0.937744 20.4727 0.902588 19.9922 1.76978 20.8242C2.54321 21.5508 2.60181 21.5625 7.3479 21.5625H11.6487L13.5354 23.4375C15.3752 25.2539 15.4456 25.3125 15.9143 25.3125C16.2542 25.3125 16.4768 25.2422 16.6409 25.0781C16.8518 24.8672 16.8752 24.6914 16.8752 23.2031V21.5625H19.137C21.6565 21.5625 21.9846 21.4805 22.6995 20.7305C23.4729 19.9219 23.4377 20.2969 23.4377 11.25C23.4377 2.20312 23.4729 2.57812 22.6995 1.76953C22.4885 1.55859 22.1135 1.27734 21.8557 1.16016C21.4104 0.949219 20.9065 0.9375 12.1877 0.9375C3.46899 0.9375 2.96509 0.949219 2.51978 1.16016ZM20.9065 2.97656C21.176 3.08203 21.3401 3.25781 21.4338 3.51562C21.6213 4.05469 21.6213 18.4453 21.4338 18.9844C21.2112 19.6172 20.8596 19.6875 17.9885 19.6875C14.9182 19.6875 15.0002 19.6523 15.0002 21.0586V21.9609L13.8401 20.8242L12.6917 19.6875H8.29712C5.32056 19.6875 3.77368 19.6406 3.51587 19.5586C2.80103 19.3008 2.81274 19.418 2.81274 11.2734C2.81274 6.08203 2.8479 3.78516 2.94165 3.51562C3.19946 2.80078 2.96509 2.82422 12.1643 2.8125C19.0432 2.8125 20.5901 2.83594 20.9065 2.97656Z" fill="#D2A226"/>
<path d="M4.6875 5.625V6.5625H12.1875H19.6875V5.625V4.6875H12.1875H4.6875V5.625Z" fill="#D2A226"/>
<path d="M6.5625 9.375V10.3125H12.1875H17.8125V9.375V8.4375H12.1875H6.5625V9.375Z" fill="#D2A226"/>
<path d="M4.6875 13.125V14.0625H12.1875H19.6875V13.125V12.1875H12.1875H4.6875V13.125Z" fill="#D2A226"/>
<path d="M6.5625 16.875V17.8125H12.1875H17.8125V16.875V15.9375H12.1875H6.5625V16.875Z" fill="#D2A226"/>
<path d="M28.7701 1.16016C28.5123 1.27734 28.1373 1.55859 27.9263 1.76953C27.1412 2.60156 27.188 1.80469 27.188 15.0234C27.188 26.4492 27.1998 27.0352 27.4107 27.4805C27.5279 27.7383 27.8091 28.1133 28.0201 28.3242C28.8052 29.0625 28.7701 29.0625 34.3365 29.0625H39.3755V31.6406C39.3755 34.0664 39.3873 34.2305 39.6099 34.4531C39.774 34.6172 39.9966 34.6875 40.3365 34.6875C40.8287 34.6875 40.8638 34.6523 43.6529 31.875L46.4771 29.0625H51.7388C57.6216 29.0625 57.5279 29.0742 58.3248 28.2305C59.1099 27.3984 59.063 28.1953 59.063 15C59.063 1.80469 59.1099 2.60156 58.3248 1.76953C58.1138 1.55859 57.7388 1.27734 57.481 1.16016C57.0357 0.949219 56.4029 0.9375 43.1255 0.9375C29.8482 0.9375 29.2154 0.949219 28.7701 1.16016ZM56.4849 2.94141C57.2115 3.19922 57.188 2.73047 57.188 14.9766C57.188 22.9688 57.1529 26.2031 57.0591 26.4844C56.813 27.1758 56.731 27.1875 50.7779 27.1875H45.4224L43.3365 29.2617L41.2505 31.3359V29.4961C41.2505 27.8086 41.2271 27.6328 41.0162 27.4219C40.7935 27.1992 40.6294 27.1875 35.4498 27.1875C29.5201 27.1875 29.438 27.1758 29.1919 26.4844C29.0044 25.9336 29.0044 4.06641 29.1919 3.51562C29.4498 2.78906 28.7818 2.82422 43.0787 2.8125C52.5005 2.8125 56.2037 2.84766 56.4849 2.94141Z" fill="#D2A226"/>
<path d="M40.5469 4.92185C40.3477 5.12107 40.3125 5.30857 40.3125 6.07029C40.3125 6.96091 40.3008 6.98435 39.9961 7.10154C39.6914 7.21873 39.6094 7.17185 38.836 6.42185C38.0625 5.69529 37.9571 5.62498 37.4883 5.62498C37.0078 5.62498 36.9375 5.67185 35.4727 7.11326C34.6406 7.94529 33.8789 8.78904 33.7969 8.98826C33.5625 9.52732 33.7735 9.9492 34.6641 10.8164C35.3321 11.4726 35.3555 11.5195 35.2383 11.8476C35.1094 12.1875 35.0977 12.1875 34.1953 12.1875C32.7891 12.1875 32.8125 12.1289 32.8125 15C32.8125 17.8711 32.7891 17.8125 34.1953 17.8125C35.0977 17.8125 35.1094 17.8125 35.2383 18.1523C35.3555 18.4804 35.3321 18.5273 34.6641 19.1836C33.7735 20.0508 33.5625 20.4726 33.7969 21C34.0078 21.4804 36.7383 24.1992 37.1836 24.3633C37.6524 24.539 38.1328 24.3047 38.9414 23.4609C39.5977 22.7929 39.6446 22.7695 39.9727 22.8867C40.3125 23.0156 40.3125 23.0273 40.3125 23.9297C40.3125 25.3359 40.2539 25.3125 43.125 25.3125C45.9961 25.3125 45.9375 25.3359 45.9375 23.9297C45.9375 23.039 45.9492 23.0156 46.2656 22.8984C46.5586 22.7812 46.6406 22.8281 47.4141 23.5781C48.1875 24.3047 48.293 24.375 48.7617 24.375C49.2422 24.375 49.3125 24.3281 50.7774 22.875C51.6094 22.0547 52.3711 21.2109 52.4531 21C52.6875 20.4726 52.4766 20.0508 51.586 19.1836C50.918 18.5273 50.8946 18.4804 51.0117 18.1523C51.1406 17.8125 51.1524 17.8125 52.0547 17.8125C53.461 17.8125 53.4375 17.8711 53.4375 15C53.4375 12.1289 53.461 12.1875 52.0547 12.1875C51.1524 12.1875 51.1406 12.1875 51.0117 11.8476C50.8946 11.5195 50.918 11.4726 51.586 10.8164C52.4766 9.9492 52.6875 9.52732 52.4531 8.98826C52.2422 8.51951 49.5117 5.80076 49.0664 5.6367C48.5977 5.46091 48.1172 5.69529 47.3086 6.53904C46.6524 7.20701 46.6055 7.23045 46.2774 7.11326C45.9375 6.98435 45.9375 6.97263 45.9375 6.07029C45.9375 4.66404 45.9961 4.68748 43.125 4.68748C40.9336 4.68748 40.7696 4.6992 40.5469 4.92185ZM44.0625 7.38279C44.0625 8.35545 44.1914 8.54295 45.1289 8.84763C45.4805 8.96482 45.9727 9.16404 46.2188 9.28123C46.8867 9.62107 47.2735 9.49216 48.0821 8.69529L48.75 8.02732L49.418 8.69529L50.086 9.36326L49.3594 10.125C48.5039 11.0156 48.4688 11.2265 48.9844 12.3281C49.1719 12.7265 49.336 13.1484 49.336 13.2539C49.336 13.3594 49.4414 13.582 49.5821 13.7578C49.8047 14.039 49.8867 14.0625 50.6953 14.0625H51.5625V15V15.9375H50.7422C49.7696 15.9375 49.5821 16.0664 49.2774 17.0039C49.1602 17.3554 48.961 17.8476 48.8438 18.0937C48.5039 18.7617 48.6328 19.1484 49.4297 19.957L50.0977 20.625L49.4297 21.2929L48.7617 21.9609L48 21.2344C47.1094 20.3789 46.8985 20.3437 45.7969 20.8594C45.3985 21.0469 44.9766 21.2109 44.8711 21.2109C44.7656 21.2109 44.543 21.3164 44.3672 21.457C44.086 21.6797 44.0625 21.7617 44.0625 22.5703V23.4375H43.125H42.1875V22.6172C42.1875 21.6445 42.0586 21.457 41.1211 21.1523C40.7696 21.0351 40.2891 20.8476 40.0547 20.7304C39.3281 20.3672 39.0821 20.4258 38.25 21.2344L37.4883 21.9609L36.8321 21.2929L36.1641 20.6367L36.8906 19.875C37.7461 18.9844 37.7813 18.7734 37.2656 17.6719C37.0781 17.2734 36.9141 16.8515 36.9141 16.7461C36.9141 16.6406 36.8086 16.4179 36.668 16.2422C36.4453 15.9609 36.3633 15.9375 35.5547 15.9375H34.6875V15V14.0625H35.5078C36.4805 14.0625 36.668 13.9336 36.9727 12.9961C37.0899 12.6445 37.2774 12.164 37.3946 11.9297C37.7578 11.2031 37.6992 10.957 36.8906 10.125L36.1641 9.36326L36.8321 8.70701L37.4883 8.03904L38.25 8.7656C39.1406 9.62107 39.3516 9.65623 40.4531 9.1406C40.8516 8.9531 41.2735 8.78904 41.3789 8.78904C41.4844 8.78904 41.7071 8.68357 41.8828 8.54295C42.1641 8.32029 42.1875 8.23826 42.1875 7.42966V6.56248H43.125H44.0625V7.38279Z" fill="#D2A226"/>
<path d="M41.6367 10.4766C40.4531 10.8633 39.4102 11.8008 38.8125 13.0078C38.5195 13.5938 38.4961 13.7695 38.4961 15C38.4961 16.2539 38.5195 16.3945 38.8359 17.0508C39.2812 17.9531 40.1719 18.8438 41.0742 19.2891C41.7305 19.6055 41.8711 19.6289 43.125 19.6289C44.3789 19.6289 44.5195 19.6055 45.1758 19.2891C46.0781 18.8438 46.9688 17.9531 47.4141 17.0508C47.7305 16.3945 47.7539 16.2539 47.7539 15C47.7539 13.7461 47.7305 13.6055 47.4141 12.9492C46.9688 12.0469 46.0781 11.1562 45.1758 10.7227C44.5664 10.418 44.332 10.3711 43.3008 10.3477C42.5508 10.3242 41.9531 10.3711 41.6367 10.4766ZM44.2734 12.5273C45.9961 13.4062 46.3594 15.6562 44.9883 16.957C43.2773 18.5742 40.4414 17.3789 40.4297 15.0234C40.4297 13.9336 41.0273 12.9844 42.0117 12.5273C42.6445 12.2344 43.6992 12.2344 44.2734 12.5273Z" fill="#D2A226"/>
<path d="M14.3555 27.375C12.1289 27.8672 10.1484 28.9219 8.49609 30.4922C6.77344 32.1328 5.77734 33.7617 5.08594 36.0469C4.81641 36.9375 4.76953 37.3711 4.72266 38.9648L4.66406 40.8398L4.08984 41.1914C2.77734 41.9766 1.78125 43.2188 1.26562 44.6953C0.984375 45.5039 0.9375 45.832 0.9375 46.875C0.9375 48.8555 1.53516 50.2852 2.94141 51.6562C4.03125 52.7227 5.71875 53.4375 7.17188 53.4375C8.54297 53.4375 8.4375 53.9883 8.4375 46.875C8.4375 39.7969 8.53125 40.3125 7.26562 40.3125H6.55078L6.63281 39.1055C7.00781 33.3516 11.3203 29.168 16.875 29.168C22.4297 29.168 26.7422 33.3516 27.1172 39.1055L27.1992 40.3125H26.4844C25.2188 40.3125 25.3125 39.7969 25.3125 46.875C25.3125 52.8164 25.3242 52.9805 25.5469 53.2031C25.7227 53.3789 25.9336 53.4375 26.3672 53.4375H26.9648L26.7891 53.7656C26.543 54.2344 25.9102 54.7969 25.3711 55.043C24.9844 55.207 24.457 55.2539 22.2422 55.2891C19.5938 55.3359 19.5938 55.3359 19.5117 55.0781C19.3828 54.6562 18.6094 53.8828 18.1055 53.6602C17.5195 53.3906 16.3242 53.3672 15.7266 53.625C14.6953 54.0469 14.0742 55.0312 14.0625 56.2266C14.0625 57.4336 14.625 58.3711 15.6445 58.8398C16.2656 59.1328 17.4727 59.1328 18.1055 58.8398C18.6094 58.6172 19.3828 57.8438 19.5 57.4453C19.582 57.2109 19.6758 57.1992 22.6523 57.1641L25.7227 57.1289L26.4258 56.7891C27.7383 56.1445 28.8516 54.7031 29.0156 53.4375C29.0859 52.9336 29.1328 52.8633 29.6953 52.5352C30.457 52.0781 31.3359 51.2109 31.8281 50.4258C32.8711 48.8203 33.1172 46.5469 32.4844 44.6953C32.2969 44.1797 31.9922 43.5117 31.7812 43.2188C31.2773 42.4922 30.3633 41.6133 29.6602 41.1914L29.0859 40.8398L29.0273 38.9648C28.9805 37.3711 28.9336 36.9375 28.6641 36.0469C27.9961 33.832 27.0117 32.1914 25.3945 30.6211C23.8125 29.0859 22.3594 28.2305 20.2031 27.5859C19.2891 27.3047 18.9258 27.2695 17.168 27.2344C15.6797 27.1992 14.9648 27.2344 14.3555 27.375ZM6.5625 46.875C6.5625 51.9727 6.66797 51.5977 5.42578 50.9766C3.70312 50.1094 2.67188 48.1641 2.94141 46.2305C3.12891 44.8125 4.125 43.418 5.42578 42.7734C6.66797 42.1523 6.5625 41.7773 6.5625 46.875ZM28.3242 42.7734C30.0469 43.6406 31.0781 45.5859 30.8086 47.5195C30.6211 48.9375 29.625 50.332 28.3242 50.9766C27.082 51.5977 27.1875 51.9727 27.1875 46.875C27.1875 41.7773 27.082 42.1523 28.3242 42.7734ZM17.4609 55.6641C17.9648 56.168 17.5898 57.0703 16.875 57.0703C16.4297 57.0703 16.0547 56.6953 16.0547 56.25C16.0547 55.8047 16.4297 55.4297 16.875 55.4297C17.0742 55.4297 17.332 55.5352 17.4609 55.6641Z" fill="#D2A226"/>
<path d="M39.375 43.125V44.0625H40.3125H41.25V43.125V42.1875H40.3125H39.375V43.125Z" fill="#D2A226"/>
<path d="M43.125 43.125V44.0625H50.625H58.125V43.125V42.1875H50.625H43.125V43.125Z" fill="#D2A226"/>
<path d="M35.625 46.875V47.8125H45H54.375V46.875V45.9375H45H35.625V46.875Z" fill="#D2A226"/>
<path d="M39.375 50.625V51.5625H48.75H58.125V50.625V49.6875H48.75H39.375V50.625Z" fill="#D2A226"/>
</g>
<defs>
<clipPath id="clip0_474_3564">
<rect width="60" height="60" fill="white"/>
</clipPath>
</defs>
</svg>
