<svg width="60" height="60" viewBox="0 0 60 60" fill="none" xmlns="http://www.w3.org/2000/svg">
<path d="M6.5625 3.85545C5.57812 4.16014 4.59375 5.00389 4.08984 5.97654L3.80859 6.50389V23.4375V40.3711L4.08984 40.8984C4.46484 41.6133 5.21484 42.375 5.91797 42.75L6.50391 43.0664L15.1992 43.1015C23.8008 43.125 23.9062 43.125 24.1406 42.8906C24.3633 42.6679 24.375 42.5156 24.375 38.9062C24.375 34.4648 24.4688 34.7578 22.9922 34.6523C21.4805 34.5586 20.7422 33.9492 20.7422 32.8125C20.7422 31.6758 21.4805 31.0664 22.9922 30.9726C24.4453 30.8672 24.375 31.0664 24.375 27.4219V24.375H26.7188H29.0625V24.7851C29.0625 25.9804 30.1172 27.4219 31.3477 27.8789C32.2266 28.207 33.3984 28.207 34.2773 27.8789C35.5078 27.4219 36.5625 25.9804 36.5625 24.7851V24.375H39.6094C42.5156 24.375 42.668 24.3633 42.8906 24.1406C43.125 23.9062 43.125 23.8008 43.1016 15.1992L43.0664 6.50389L42.75 5.91795C42.375 5.21482 41.6133 4.46482 40.8984 4.08982L40.3711 3.80857L23.6133 3.78514C14.4023 3.77342 6.72656 3.80857 6.5625 3.85545ZM22.5 8.67186C22.5 12.3164 22.4297 12.1172 23.8828 12.2226C25.3945 12.3164 26.1328 12.9258 26.1328 14.0625C26.1328 15.1992 25.3945 15.8086 23.8828 15.9023C22.4297 16.0078 22.5 15.8086 22.5 19.4531V22.5H20.1562H17.8125V22.0898C17.8125 20.8945 16.7578 19.4531 15.5273 18.9961C14.6484 18.6679 13.4766 18.6679 12.5977 18.9961C11.3672 19.4531 10.3125 20.8945 10.3125 22.0898V22.5H7.96875H5.625V15.1992C5.63672 11.1914 5.68359 7.67576 5.73047 7.39451C5.89453 6.55076 6.52734 5.89451 7.34766 5.74217C7.59375 5.69529 11.0977 5.64842 15.1523 5.6367L22.5 5.62498V8.67186ZM40.0312 5.88279C40.5938 6.18748 40.9805 6.72654 41.1211 7.38279C41.2031 7.78123 41.25 10.4414 41.25 15.2344V22.5H38.2031C34.5586 22.5 34.7578 22.4297 34.6523 23.8828C34.5586 25.3945 33.9492 26.1328 32.8125 26.1328C31.6758 26.1328 31.0664 25.3945 30.9727 23.8828C30.8672 22.4297 31.0664 22.5 27.4219 22.5H24.375V20.1562V17.8125H24.7852C25.9805 17.8125 27.4219 16.7578 27.8789 15.5273C28.4297 14.0742 28.1016 12.4101 27.0703 11.3672C26.4492 10.7578 25.4883 10.3125 24.7852 10.3125H24.375V7.96873V5.61326L32.0273 5.64842C38.9766 5.68357 39.7031 5.70701 40.0312 5.88279ZM15 21.0117C15.6094 21.4101 15.832 21.9023 15.9023 22.9922C16.0078 24.4453 15.8086 24.375 19.4531 24.375H22.5V26.7187V29.0625H22.0898C20.8945 29.0625 19.4531 30.1172 18.9961 31.3476C18.668 32.2265 18.668 33.3984 18.9961 34.2773C19.4531 35.5078 20.8945 36.5625 22.0898 36.5625H22.5V38.9062V41.25H15.2344C10.2656 41.25 7.78125 41.2031 7.35938 41.1211C6.50391 40.9336 5.94141 40.3711 5.75391 39.5156C5.67188 39.0937 5.625 36.6094 5.625 31.6406V24.375H8.67188C12.3164 24.375 12.1172 24.4453 12.2227 22.9922C12.3164 21.4804 12.9258 20.7422 14.0625 20.7422C14.4375 20.7422 14.7422 20.8242 15 21.0117Z" fill="#D2A226"/>
<path d="M7.5 7.5V8.4375H8.4375H9.375V7.5V6.5625H8.4375H7.5V7.5Z" fill="#D2A226"/>
<path d="M11.25 7.5V8.4375H12.1875H13.125V7.5V6.5625H12.1875H11.25V7.5Z" fill="#D2A226"/>
<path d="M15 7.5V8.4375H15.9375H16.875V7.5V6.5625H15.9375H15V7.5Z" fill="#D2A226"/>
<path d="M18.75 7.5V8.4375H19.6875H20.625V7.5V6.5625H19.6875H18.75V7.5Z" fill="#D2A226"/>
<path d="M26.25 7.5V8.4375H27.1875H28.125V7.5V6.5625H27.1875H26.25V7.5Z" fill="#D2A226"/>
<path d="M30 7.5V8.4375H30.9375H31.875V7.5V6.5625H30.9375H30V7.5Z" fill="#D2A226"/>
<path d="M33.75 7.5V8.4375H34.6875H35.625V7.5V6.5625H34.6875H33.75V7.5Z" fill="#D2A226"/>
<path d="M37.5 7.5V8.4375H38.4375H39.375V7.5V6.5625H38.4375H37.5V7.5Z" fill="#D2A226"/>
<path d="M7.5 39.375V40.3125H8.4375H9.375V39.375V38.4375H8.4375H7.5V39.375Z" fill="#D2A226"/>
<path d="M11.25 39.375V40.3125H12.1875H13.125V39.375V38.4375H12.1875H11.25V39.375Z" fill="#D2A226"/>
<path d="M15 39.375V40.3125H15.9375H16.875V39.375V38.4375H15.9375H15V39.375Z" fill="#D2A226"/>
<path d="M18.75 39.375V40.3125H19.6875H20.625V39.375V38.4375H19.6875H18.75V39.375Z" fill="#D2A226"/>
<path d="M49.957 3.96094C47.8242 4.72266 46.582 6.83203 46.8984 9.15234C47.1328 10.8867 48.3281 12.3516 49.9805 12.9141L50.5664 13.1133L50.6016 15.1641L50.625 17.2148L49.3711 18.0586C48.668 18.5156 48.0352 18.9727 47.9649 19.0781C47.8477 19.2188 47.8125 20.8828 47.8125 26.5078V33.75H48.75H49.6875V27.0117V20.2734L50.9531 19.4414C51.6445 18.9844 52.2656 18.5508 52.3242 18.4922C52.3945 18.4336 52.4649 17.2734 52.5 15.75L52.5586 13.1133L53.1445 12.9141C54.3164 12.5156 55.4063 11.5195 55.8984 10.4062C56.4141 9.23438 56.3906 7.55859 55.8399 6.36328C55.4649 5.54297 54.4453 4.52344 53.5899 4.125C52.6758 3.71484 50.8945 3.63281 49.957 3.96094ZM52.5938 5.92969C53.5899 6.33984 54.2578 7.33594 54.2578 8.4375C54.2578 9.94922 53.0742 11.1328 51.5625 11.1328C49.1953 11.1328 47.9766 8.29688 49.6055 6.57422C50.3555 5.78906 51.6094 5.51953 52.5938 5.92969Z" fill="#D2A226"/>
<path d="M35.8594 35.8594C35.6367 36.082 35.625 36.2461 35.625 39.1406V42.1875H35.2148C34.0195 42.1875 32.5781 43.2422 32.1211 44.4726C31.5703 45.9258 31.8984 47.5898 32.9297 48.6328C33.5508 49.2422 34.5117 49.6875 35.2148 49.6875H35.625V52.7344C35.625 55.6406 35.6367 55.7929 35.8594 56.0156C36.0937 56.25 36.1992 56.25 44.8008 56.2265L53.4961 56.1914L54.082 55.875C54.7851 55.5 55.5351 54.7383 55.9101 54.0234L56.1914 53.4961L56.2266 44.8008C56.25 36.1992 56.25 36.0937 56.0156 35.8594C55.793 35.6367 55.6406 35.625 52.0312 35.625C47.5898 35.625 47.8828 35.5312 47.7773 37.0078C47.6836 38.5195 47.0742 39.2578 45.9375 39.2578C44.8008 39.2578 44.1914 38.5195 44.0976 37.0078C43.9922 35.5312 44.2851 35.625 39.8437 35.625C36.2461 35.625 36.082 35.6367 35.8594 35.8594ZM42.1875 37.9101C42.1875 39.1054 43.2422 40.5469 44.4726 41.0039C45.3516 41.332 46.5234 41.332 47.4023 41.0039C48.6328 40.5469 49.6875 39.1054 49.6875 37.9101V37.5H52.0312H54.375V44.7656C54.375 49.7344 54.3281 52.2187 54.2461 52.6406C54.0586 53.4961 53.4961 54.0586 52.6406 54.2461C52.2187 54.3281 49.7344 54.375 44.7656 54.375H37.5V51.3281C37.5 47.6836 37.5703 47.8828 36.1172 47.7773C34.6055 47.6836 33.8672 47.0742 33.8672 45.9375C33.8672 44.8008 34.6055 44.1914 36.1172 44.0976C37.5703 43.9922 37.5 44.1914 37.5 40.5469V37.5H39.8437H42.1875V37.9101Z" fill="#D2A226"/>
<path d="M39.375 52.5V53.4375H40.3125H41.25V52.5V51.5625H40.3125H39.375V52.5Z" fill="#D2A226"/>
<path d="M43.125 52.5V53.4375H44.0625H45V52.5V51.5625H44.0625H43.125V52.5Z" fill="#D2A226"/>
<path d="M46.875 52.5V53.4375H47.8125H48.75V52.5V51.5625H47.8125H46.875V52.5Z" fill="#D2A226"/>
<path d="M50.625 52.5V53.4375H51.5625H52.5V52.5V51.5625H51.5625H50.625V52.5Z" fill="#D2A226"/>
<path d="M6.94922 45.1641C5.76562 45.5508 4.72266 46.4883 4.125 47.6953C3.83203 48.2812 3.80859 48.457 3.80859 49.6875C3.80859 50.9414 3.83203 51.082 4.14844 51.7383C4.59375 52.6406 5.48438 53.5312 6.38672 53.9766C7.04297 54.293 7.18359 54.3164 8.4375 54.3164C9.66797 54.3164 9.84375 54.293 10.4297 54C11.6484 53.4023 12.6094 52.3242 12.9492 51.1758L13.0898 50.6836L15.1523 50.6484L17.2148 50.625L18.0586 51.8789C18.5156 52.582 18.9727 53.2148 19.0781 53.2852C19.2188 53.4023 20.8828 53.4375 26.5078 53.4375H33.75V52.5V51.5625H27.0117H20.2734L19.4414 50.2969C18.9844 49.6055 18.5508 48.9844 18.4922 48.9258C18.4336 48.8555 17.2734 48.7852 15.7383 48.75L13.0898 48.6914L12.9492 48.1992C12.6094 47.0508 11.6484 45.9727 10.4297 45.375C9.87891 45.1055 9.60938 45.0586 8.61328 45.0352C7.86328 45.0117 7.26562 45.0586 6.94922 45.1641ZM9.46875 47.1797C11.2617 47.918 11.707 50.3086 10.3008 51.6445C8.57812 53.2734 5.74219 52.0664 5.74219 49.6875C5.74219 48.6211 6.29297 47.7305 7.26562 47.2148C7.78125 46.9453 8.87109 46.9219 9.46875 47.1797Z" fill="#D2A226"/>
</svg>
