<svg width="60" height="60" viewBox="0 0 60 60" fill="none" xmlns="http://www.w3.org/2000/svg">
<path d="M3.45702 2.09766C3.19921 2.21484 2.82421 2.49609 2.61327 2.70703C1.81639 3.55078 1.87499 1.85156 1.87499 24.375C1.87499 46.8984 1.81639 45.1992 2.61327 46.043C2.82421 46.2539 3.19921 46.5352 3.45702 46.6523C3.90233 46.8633 4.42967 46.875 13.6875 46.875H23.4375V48.75V50.625H21.1875C18.6562 50.625 18.3281 50.707 17.6133 51.457C16.9336 52.1836 16.875 52.4648 16.875 55.1953C16.875 57.5039 16.8867 57.668 17.1094 57.8906C17.3437 58.125 17.4961 58.125 30 58.125C42.5039 58.125 42.6562 58.125 42.8906 57.8906C43.1133 57.668 43.125 57.5039 43.125 55.1602C43.125 52.3828 43.0547 52.0898 42.293 51.3633C41.5781 50.6953 41.2617 50.625 38.7891 50.625H36.5625V48.75V46.875H46.3242C55.5703 46.875 56.0976 46.8633 56.543 46.6523C56.8008 46.5352 57.1758 46.2539 57.3867 46.043C58.1836 45.1992 58.125 46.8984 58.125 24.3516C58.125 4.69922 58.1133 3.90234 57.9023 3.45703C57.6328 2.88281 57.0351 2.29688 56.4609 2.0625C56.0742 1.89844 53.25 1.875 29.9766 1.875C4.85155 1.875 3.91405 1.88672 3.45702 2.09766ZM55.5469 3.87891C56.2969 4.14844 56.25 3.07031 56.25 22.0898V39.375H30H3.74999V22.1016C3.74999 9.53906 3.78514 4.73438 3.87889 4.45312C3.97264 4.20703 4.14842 4.01953 4.3828 3.91406C4.68749 3.78516 8.99999 3.76172 29.9531 3.75C48.4687 3.75 55.2656 3.78516 55.5469 3.87891ZM56.25 42.5977C56.25 44.2148 56.1094 44.6719 55.5469 44.8711C54.9961 45.0586 5.00389 45.0586 4.45311 44.8711C3.89061 44.6719 3.74999 44.2148 3.74999 42.5977V41.25H30H56.25V42.5977ZM34.6875 48.75V50.625H30H25.3125V48.75V46.875H30H34.6875V48.75ZM40.5937 52.6641C41.1211 52.8867 41.25 53.3086 41.25 54.9141V56.25H30H18.75V54.9141C18.75 53.3438 18.8789 52.8867 19.3828 52.6641C19.9336 52.4297 40.0195 52.4297 40.5937 52.6641Z" fill="#D2A226"/>
<path d="M27.0816 7.74602C21.8081 8.88274 17.6831 12.832 16.3237 18.0468C16.1597 18.6796 16.0073 19.6757 15.9722 20.3554L15.9019 21.539L15.48 21.621C14.2261 21.8554 12.8784 22.9921 12.4214 24.2343C12.0698 25.1484 12.0698 26.414 12.4331 27.3632C12.7964 28.3241 13.8511 29.3906 14.8003 29.7421C15.3862 29.9648 15.7144 29.9999 17.3433 29.9999C19.0659 29.9999 19.2417 29.9765 19.4527 29.7656C19.6753 29.5429 19.687 29.3788 19.687 25.7812C19.687 22.1835 19.6753 22.0195 19.4527 21.7968C19.2769 21.621 19.0659 21.5624 18.5737 21.5624H17.9292V20.8593C17.9292 19.4296 18.5034 17.4023 19.3237 15.8671C21.105 12.5624 24.3159 10.2538 27.9956 9.6093C29.0269 9.4218 31.1714 9.44524 32.2261 9.65618C37.1011 10.5937 40.8745 14.3437 41.8823 19.2421C41.9878 19.7343 42.0698 20.4609 42.0698 20.8593V21.5624H41.4253C40.9331 21.5624 40.7222 21.621 40.5464 21.7968C40.3237 22.0195 40.312 22.1835 40.312 25.7812C40.312 30.1757 40.2652 29.9999 41.4839 29.9999H42.187V30.3984C42.187 30.6093 42.1284 30.9609 42.0581 31.1718C41.8237 31.8398 41.5894 31.8749 37.4058 31.8749H33.6675L33.5386 31.5937C33.3159 31.1015 32.648 30.4335 32.1675 30.2226C31.5347 29.9296 28.5816 29.9062 27.9136 30.1874C26.8706 30.621 26.2495 31.5937 26.2495 32.8124C26.2495 34.0312 26.8706 35.0038 27.9136 35.4374C28.5816 35.7187 31.5347 35.6952 32.1675 35.4023C32.648 35.1913 33.3159 34.5234 33.5386 34.0312L33.6675 33.7499H37.8159C42.3862 33.7499 42.4566 33.7382 43.23 33.0116C43.8159 32.4491 44.062 31.8398 44.062 30.8671V30.0234L44.5073 29.9413C45.7847 29.707 47.1206 28.5702 47.5777 27.3281C48.1402 25.8281 47.812 24.0937 46.7573 22.9335C46.1714 22.289 45.2691 21.7616 44.5191 21.621L44.0972 21.539L44.0269 20.3554C43.8511 17.1679 42.398 14.0273 39.9722 11.5898C38.1206 9.74993 36.0464 8.55462 33.5152 7.87493C32.5659 7.62883 32.0972 7.58196 30.2925 7.5468C28.5112 7.51165 28.0073 7.5468 27.0816 7.74602ZM17.812 25.7929V28.1601L16.8277 28.0898C15.0464 27.9609 14.1792 27.2109 14.1792 25.7812C14.1792 24.2695 15.1636 23.496 17.1441 23.4491L17.812 23.4374V25.7929ZM44.6128 23.7656C45.4097 24.1757 45.8198 24.8554 45.8198 25.7812C45.8198 27.2109 44.9527 27.9609 43.1714 28.0898L42.187 28.1601V25.7812V23.4023L43.1714 23.4726C43.8042 23.5195 44.3316 23.6249 44.6128 23.7656ZM31.23 32.039C31.6636 32.2265 31.8394 32.6015 31.7105 33.1171C31.605 33.5273 31.0073 33.7499 29.9995 33.7499C28.9917 33.7499 28.3941 33.5273 28.2886 33.1171C28.1714 32.6132 28.3355 32.2265 28.7456 32.0507C29.2378 31.8281 30.7144 31.8281 31.23 32.039Z" fill="#D2A226"/>
<path d="M27.4219 11.4844C27.2578 11.6484 27.1875 11.8711 27.1875 12.2578V12.7969L26.7773 12.4336C26.0156 11.7656 25.8398 11.8477 24 13.6875C22.1602 15.5273 22.0781 15.7031 22.7461 16.4648L23.1094 16.875H22.5703C22.1836 16.875 21.9609 16.9453 21.7969 17.1094C21.5742 17.332 21.5625 17.4961 21.5625 19.6875C21.5625 21.8789 21.5742 22.043 21.7969 22.2656C21.9609 22.4297 22.1836 22.5 22.5703 22.5H23.1094L22.7461 22.9102C22.0781 23.6719 22.1602 23.8477 24 25.6875C25.8398 27.5273 26.0156 27.6094 26.7773 26.9414L27.1875 26.5781V27.1172C27.1875 27.5039 27.2578 27.7266 27.4219 27.8906C27.6445 28.1133 27.8086 28.125 30 28.125C32.1914 28.125 32.3555 28.1133 32.5781 27.8906C32.7422 27.7266 32.8125 27.5039 32.8125 27.1172V26.5781L33.2227 26.9414C33.9844 27.6094 34.1602 27.5273 36 25.6875C37.8398 23.8477 37.9219 23.6719 37.2539 22.9102L36.8906 22.5H37.4297C37.8164 22.5 38.0391 22.4297 38.2031 22.2656C38.4258 22.043 38.4375 21.8789 38.4375 19.6875C38.4375 17.4961 38.4258 17.332 38.2031 17.1094C38.0391 16.9453 37.8164 16.875 37.4297 16.875H36.8906L37.2539 16.4648C37.9219 15.7031 37.8398 15.5273 36 13.6875C34.1602 11.8477 33.9844 11.7656 33.2227 12.4336L32.8125 12.7969V12.2578C32.8125 11.8711 32.7422 11.6484 32.5781 11.4844C32.3555 11.2617 32.1914 11.25 30 11.25C27.8086 11.25 27.6445 11.2617 27.4219 11.4844ZM30.9375 14.4023C30.9375 15.6445 30.9492 15.6914 31.2422 15.9258C31.8164 16.3711 32.1562 16.2656 33.1172 15.3281L33.9961 14.4844L34.5938 15.0938L35.2031 15.6914L34.3594 16.5703C33.4219 17.5312 33.3164 17.8711 33.7617 18.4453C33.9961 18.7383 34.043 18.75 35.2852 18.75H36.5625V19.6875V20.625H35.2852C34.043 20.625 33.9961 20.6367 33.7617 20.9297C33.3164 21.5039 33.4219 21.8438 34.3594 22.8047L35.2031 23.6836L34.5938 24.2812L33.9961 24.8906L33.1172 24.0469C32.1562 23.1094 31.8164 23.0039 31.2422 23.4492C30.9492 23.6836 30.9375 23.7305 30.9375 24.9727V26.25H30H29.0625V24.9727C29.0625 23.7305 29.0508 23.6836 28.7578 23.4492C28.1836 23.0039 27.8438 23.1094 26.8828 24.0469L26.0039 24.8906L25.4062 24.2812L24.7969 23.6836L25.6406 22.8047C26.5781 21.8438 26.6836 21.5039 26.2383 20.9297C26.0039 20.6367 25.957 20.625 24.7148 20.625H23.4375V19.6875V18.75H24.7148C25.957 18.75 26.0039 18.7383 26.2383 18.4453C26.6836 17.8711 26.5781 17.5312 25.6406 16.5703L24.7969 15.6914L25.4062 15.0938L26.0039 14.4844L26.8828 15.3281C27.8438 16.2656 28.1836 16.3711 28.7578 15.9258C29.0508 15.6914 29.0625 15.6445 29.0625 14.4023V13.125H30H30.9375V14.4023Z" fill="#D2A226"/>
<path d="M28.7695 17.0977C27.75 17.5664 27.1875 18.5039 27.1875 19.7109C27.1992 21.375 28.3242 22.5 30 22.5C31.6875 22.5 32.8125 21.375 32.8125 19.6875C32.8125 18.4687 32.1914 17.4961 31.1484 17.0625C30.5391 16.8047 29.3555 16.8281 28.7695 17.0977ZM30.5859 19.1016C30.7148 19.2305 30.8203 19.4883 30.8203 19.6875C30.8203 19.8867 30.7148 20.1445 30.5859 20.2734C30.457 20.4023 30.1992 20.5078 30 20.5078C29.8008 20.5078 29.543 20.4023 29.4141 20.2734C29.2852 20.1445 29.1797 19.8867 29.1797 19.6875C29.1797 19.4883 29.2852 19.2305 29.4141 19.1016C29.543 18.9727 29.8008 18.8672 30 18.8672C30.1992 18.8672 30.457 18.9727 30.5859 19.1016Z" fill="#D2A226"/>
<path d="M48.9844 42.4219C48.832 42.5742 48.75 42.8086 48.75 43.125C48.75 43.9453 48.9844 44.0625 50.625 44.0625C52.2656 44.0625 52.5 43.9453 52.5 43.125C52.5 42.3047 52.2656 42.1875 50.625 42.1875C49.3711 42.1875 49.1953 42.2109 48.9844 42.4219Z" fill="#D2A226"/>
</svg>
