<svg width="25" height="24" viewBox="0 0 25 24" fill="none" xmlns="http://www.w3.org/2000/svg">
<path d="M18.7204 20.75H6.28043C5.93365 20.7359 5.59305 20.6535 5.27814 20.5075C4.96323 20.3616 4.68018 20.155 4.44519 19.8996C4.2102 19.6442 4.02788 19.3449 3.90867 19.019C3.78946 18.693 3.73568 18.3468 3.75043 18V15C3.75043 14.8011 3.82945 14.6103 3.9701 14.4697C4.11076 14.329 4.30152 14.25 4.50043 14.25C4.69935 14.25 4.89011 14.329 5.03076 14.4697C5.17142 14.6103 5.25043 14.8011 5.25043 15V18C5.22462 18.2969 5.31408 18.5924 5.50027 18.8251C5.68645 19.0579 5.95508 19.21 6.25043 19.25H18.7204C19.0158 19.21 19.2844 19.0579 19.4706 18.8251C19.6568 18.5924 19.7462 18.2969 19.7204 18V15C19.7204 14.8011 19.7994 14.6103 19.9401 14.4697C20.0807 14.329 20.2715 14.25 20.4704 14.25C20.6693 14.25 20.8601 14.329 21.0007 14.4697C21.1414 14.6103 21.2204 14.8011 21.2204 15V18C21.2504 18.6954 21.0045 19.3744 20.5363 19.8894C20.0681 20.4045 19.4155 20.7137 18.7204 20.75Z" fill="white"/>
<path d="M16.4999 8.75007C16.4014 8.75054 16.3036 8.73132 16.2127 8.69354C16.1217 8.65576 16.0391 8.60018 15.9699 8.53007L12.4999 5.06007L9.02985 8.53007C8.88767 8.66255 8.69963 8.73467 8.50533 8.73125C8.31103 8.72782 8.12564 8.6491 7.98823 8.51169C7.85081 8.37428 7.7721 8.18889 7.76867 7.99459C7.76525 7.80029 7.83737 7.61225 7.96985 7.47007L11.9699 3.47007C12.1105 3.32962 12.3011 3.25073 12.4999 3.25073C12.6986 3.25073 12.8893 3.32962 13.0299 3.47007L17.0299 7.47007C17.1704 7.6107 17.2492 7.80132 17.2492 8.00007C17.2492 8.19882 17.1704 8.38944 17.0299 8.53007C16.9607 8.60018 16.8781 8.65576 16.7871 8.69354C16.6961 8.73132 16.5984 8.75054 16.4999 8.75007Z" fill="white"/>
<path d="M12.5 15.75C12.3019 15.7474 12.1126 15.6676 11.9725 15.5275C11.8324 15.3874 11.7526 15.1981 11.75 15V4C11.75 3.80109 11.829 3.61032 11.9697 3.46967C12.1103 3.32902 12.3011 3.25 12.5 3.25C12.6989 3.25 12.8897 3.32902 13.0303 3.46967C13.171 3.61032 13.25 3.80109 13.25 4V15C13.2474 15.1981 13.1676 15.3874 13.0275 15.5275C12.8874 15.6676 12.6981 15.7474 12.5 15.75Z" fill="white"/>
</svg>
